<svg preserveAspectRatio="xMidYMid meet" width="261" height="572" overflow="visible" style="display: block;" viewBox="0 0 261 572" fill="none" xmlns="http://www.w3.org/2000/svg">
<g id="illustration" clip-path="url(#clip0_0_56)">
<path id="Vector" d="M102.333 82.3457C102.117 82.3457 101.897 82.2971 101.69 82.1976C88.2047 75.6425 79.1005 61.1695 79.0328 46.1823C79.0243 44.1616 79.2001 41.8404 80.5741 39.9636C82.5114 37.3145 85.9033 36.7157 88.9309 36.3644C93.5148 35.8312 98.7105 35.226 103.593 36.7453C110.019 38.7448 115.295 44.5425 117.035 51.5145C118.625 57.8877 117.4 65.0713 113.675 71.2223C113.254 71.9184 112.348 72.1406 111.651 71.7195C110.955 71.2985 110.732 70.3928 111.154 69.6967C114.476 64.2122 115.577 57.8454 114.177 52.2276C112.682 46.231 108.183 41.2564 102.718 39.5574C98.4311 38.2222 93.5656 38.7893 89.2718 39.2886C86.7523 39.5827 84.1883 40.0102 82.9518 41.7008C82.0816 42.8899 81.9715 44.6271 81.9779 46.1696C82.0393 60.0586 90.4787 73.4736 102.977 79.5485C103.709 79.904 104.012 80.7863 103.656 81.5163C103.402 82.041 102.877 82.3457 102.331 82.3457H102.333Z" fill="var(--fill-0, #FF6900)"/>
<path id="Vector_2" d="M129.546 85.4942C128.608 85.4942 127.67 85.4583 126.76 85.4223C125.981 85.3906 125.244 85.3631 124.554 85.3588C117.393 85.325 116.241 84.6161 115.752 79.9463C115.657 79.0343 115.538 77.9002 115.263 76.5396C113.754 69.0788 112.739 58.0718 114.84 51.5991C116.273 47.1832 119.32 44.3838 123.417 43.7109C128.697 42.8434 133.766 45.6322 137.465 47.6677C141.686 49.9889 146.292 52.8729 147.522 57.7374C148.493 61.5842 146.961 65.5452 145.841 68.4398C143.975 73.262 141.86 78.7275 137.93 82.8557C135.809 85.0859 132.673 85.4942 129.544 85.4942H129.546ZM125.485 46.4892C124.956 46.4892 124.427 46.5294 123.895 46.6161C120.107 47.2382 118.405 50.1624 117.643 52.509C115.841 58.057 116.599 68.2833 118.151 75.9556C118.454 77.4537 118.581 78.6661 118.683 79.6395C118.839 81.127 118.924 81.7046 119.218 81.8908C119.919 82.333 122.204 82.4029 124.569 82.4156C125.31 82.4198 126.072 82.4494 126.876 82.4812C130.196 82.6123 133.959 82.7605 135.798 80.8265C139.324 77.1215 141.327 71.9438 143.094 67.3776C144.361 64.1064 145.354 61.1758 144.668 58.459C143.728 54.7413 139.893 52.3651 136.046 50.2492C132.316 48.1967 128.9 46.4913 125.485 46.4913V46.4892Z" fill="var(--fill-0, #FF6900)"/>
<path id="Vector_3" d="M108.173 89.3199C105.014 89.3199 101.948 87.0325 101.097 83.9856C100.432 81.6009 100.953 78.882 102.687 75.6763C104.717 71.9248 107.205 69.8596 110.082 69.538C113.243 69.1804 116.542 71.3238 117.751 74.5168C118.793 77.2654 118.369 80.5768 116.614 83.372C115.375 85.3461 112.087 89.1273 108.503 89.3114C108.393 89.3177 108.281 89.3199 108.17 89.3199H108.173ZM103.934 83.1921C104.442 85.0097 106.46 86.4549 108.352 86.3681C110.23 86.2708 112.758 83.9729 114.118 81.8062C115.367 79.8172 115.704 77.422 114.996 75.5578C114.26 73.6175 112.244 72.2527 110.408 72.4622C108.092 72.7204 106.339 75.1135 105.278 77.075C103.923 79.5781 103.485 81.5777 103.934 83.1921Z" fill="var(--fill-0, #FF6900)"/>
<path id="Vector_4" d="M97.7366 82.9128C86.2844 82.9128 74.794 77.8113 67.2228 69.227C66.685 68.6176 66.7443 67.6866 67.354 67.1491C67.9638 66.6117 68.8954 66.6709 69.4332 67.2803C77.0045 75.8646 88.8018 80.6974 100.226 79.8807C101.035 79.8257 101.742 80.4329 101.8 81.2454C101.857 82.0558 101.247 82.7605 100.434 82.8176C99.5363 82.8811 98.6364 82.9128 97.7366 82.9128Z" fill="var(--fill-0, #FF6900)"/>
<path id="Vector_5" d="M71.7007 93.2322C71.1799 93.2322 70.6739 92.955 70.4071 92.4662C70.0175 91.7532 70.2801 90.8581 70.9936 90.4688C80.2947 85.3927 91.226 83.1667 101.774 84.1972C102.583 84.2776 103.176 84.997 103.097 85.8053C103.019 86.6136 102.297 87.2039 101.488 87.1277C91.5225 86.1523 81.1945 88.2577 72.4058 93.0524C72.1814 93.1751 71.94 93.2322 71.7007 93.2322Z" fill="var(--fill-0, #FF6900)"/>
<path id="Vector_6" d="M105.657 75.3378C105.657 75.3378 105.638 75.3378 105.63 75.3378C104.817 75.323 104.169 74.6522 104.184 73.8397C104.243 70.541 102.166 67.3988 100.349 65.0311C99.983 64.5529 99.6082 64.0789 99.2335 63.6049C97.3174 61.178 95.3356 58.6685 94.2961 55.6004C93.555 53.4167 93.3687 51.1632 93.1866 48.9838C93.1252 48.2454 93.0638 47.5048 92.9791 46.7706C92.6001 43.4464 91.7405 41.2311 90.2733 39.7986C89.691 39.2294 89.6804 38.2984 90.2479 37.7165C90.8153 37.1346 91.749 37.124 92.3312 37.6911C94.9312 40.2281 95.6172 43.8971 95.9073 46.4363C95.9941 47.2065 96.0597 47.9851 96.1232 48.7363C96.2969 50.831 96.462 52.8116 97.0866 54.6524C97.9652 57.2402 99.7056 59.445 101.548 61.7789C101.931 62.2655 102.314 62.7501 102.689 63.2368C104.798 65.9853 107.207 69.6798 107.131 73.8905C107.116 74.6945 106.46 75.3357 105.659 75.3357L105.657 75.3378Z" fill="var(--fill-0, #FF6900)"/>
<path id="Vector_7" d="M103.9 78.5519C103.563 78.5519 103.225 78.4376 102.947 78.2027C93.9636 70.5917 87.4552 60.1073 84.6223 48.6834C84.3937 47.7608 84.1862 46.8256 83.9871 45.9221C83.5086 43.7575 83.0556 41.7156 82.3166 39.7499C82.0308 38.9882 82.4161 38.1397 83.1762 37.854C83.9385 37.5684 84.7875 37.9535 85.0733 38.7131C85.8863 40.8735 86.3818 43.1164 86.8624 45.2852C87.0593 46.1718 87.2604 47.088 87.4806 47.9745C90.1653 58.8039 96.335 68.7424 104.851 75.9556C105.471 76.4804 105.547 77.4114 105.022 78.0313C104.73 78.3741 104.315 78.5519 103.898 78.5519H103.9Z" fill="var(--fill-0, #FF6900)"/>
<path id="Vector_8" d="M108.657 71.9883C108.473 71.9883 108.287 71.9544 108.107 71.8803C107.353 71.5756 106.987 70.7187 107.292 69.9633C109.483 64.5359 109.826 58.4399 108.257 52.801C106.688 47.162 103.248 42.1176 98.5687 38.5967C97.9187 38.1079 97.7874 37.1854 98.2765 36.5358C98.7656 35.8862 99.6887 35.755 100.339 36.2438C105.534 40.1519 109.354 45.7507 111.094 52.0117C112.835 58.2728 112.454 65.0395 110.021 71.0657C109.79 71.6391 109.237 71.9883 108.653 71.9883H108.657Z" fill="var(--fill-0, #FF6900)"/>
<path id="Vector_9" d="M115.378 75.1156C114.878 75.1156 114.389 74.8617 114.114 74.4004C113.694 73.7043 113.921 72.7987 114.617 72.3797C117.338 70.7483 120.15 69.0598 122.494 66.9417C125.011 64.6671 126.694 62.0963 127.363 59.5106C127.948 57.2487 127.829 54.773 127.715 52.3799L127.431 46.3982C127.393 45.5856 128.02 44.8959 128.833 44.8578C129.646 44.8197 130.336 45.446 130.374 46.2585L130.658 52.2403C130.776 54.7307 130.91 57.5534 130.215 60.2469C129.404 63.3933 127.416 66.4636 124.469 69.1275C121.911 71.4381 118.975 73.2007 116.133 74.904C115.896 75.0458 115.634 75.1135 115.378 75.1135V75.1156Z" fill="var(--fill-0, #FF6900)"/>
<path id="Vector_10" d="M122.631 78.9539C120.391 78.9539 118.219 78.5519 116.108 78.1647C115.308 78.0165 114.778 77.2485 114.927 76.4486C115.075 75.6488 115.843 75.1198 116.644 75.2679C118.871 75.6784 121.175 76.1016 123.391 75.9895C125.701 75.871 127.694 75.1304 129.004 73.9032C130.346 72.6463 131.24 70.7187 131.814 67.8389C131.96 67.1026 132.085 66.3345 132.205 65.5918C132.5 63.7805 132.805 61.9079 133.467 60.0925C134.856 56.2901 137.742 53.0951 141.388 51.3304C142.121 50.9749 143.001 51.2817 143.357 52.0139C143.713 52.746 143.406 53.6262 142.673 53.9817C139.711 55.4163 137.363 58.0125 136.237 61.1039C135.669 62.657 135.4 64.3138 135.115 66.0679C134.99 66.836 134.86 67.6294 134.704 68.4166C134.263 70.6277 133.402 73.8249 131.02 76.0551C128.689 78.2366 125.667 78.8227 123.544 78.9327C123.239 78.9476 122.936 78.956 122.633 78.956L122.631 78.9539Z" fill="var(--fill-0, #FF6900)"/>
<path id="Vector_11" d="M121.075 83.9919C119.059 83.9919 117.048 83.6661 115.145 82.9869C114.378 82.7139 113.98 81.8718 114.253 81.1058C114.526 80.3398 115.369 79.9399 116.136 80.215C122.104 82.3457 129.343 80.3293 133.349 75.4203C133.467 75.2743 133.584 75.1283 133.7 74.9802C134.206 74.339 134.778 73.6112 135.553 73.0356C136.698 72.185 140.217 71.6412 141.629 72.3162C142.364 72.6675 142.673 73.5456 142.324 74.2798C141.972 75.014 141.094 75.3251 140.359 74.9738C139.864 74.8278 137.795 75.105 137.289 75.4139C136.849 75.7419 136.442 76.2582 136.012 76.802C135.885 76.9628 135.758 77.1236 135.631 77.2823C132.142 81.5628 126.586 83.994 121.073 83.994L121.075 83.9919Z" fill="var(--fill-0, #FF6900)"/>
<path id="Vector_12" d="M26.6795 54.4429C24.81 54.4429 22.8663 53.9245 20.8698 52.8898C13.1333 48.878 6.21625 37.6826 4.3933 31.4787C3.87034 29.695 3.2394 27.0205 3.81529 24.3861C4.43988 21.5254 6.45127 19.2783 8.93904 18.6604C9.51493 18.5165 10.1162 18.4784 10.7154 18.5335C10.4063 15.715 11.1558 12.7823 12.9639 10.5225C15.6973 7.1053 20.4717 5.70667 24.6173 6.93391C25.5425 4.77989 27.2279 2.89883 29.4065 1.62504C32.1039 0.0486664 35.2417 -0.406259 38.0174 0.372404C40.791 1.15318 43.2322 3.17601 44.7142 5.92461C45.8089 7.95591 46.2831 10.2051 46.1032 12.3486C46.6494 12.3909 47.2041 12.52 47.7483 12.7379C49.4569 13.4171 50.8776 14.8454 51.5445 16.5572C52.6222 19.3142 52.0505 22.2575 51.3476 24.7712C48.6439 34.4728 40.6893 50.2386 29.8617 53.9182C28.8285 54.2694 27.7678 54.4451 26.6816 54.4451L26.6795 54.4429ZM7.22195 30.6472C8.93692 36.4829 15.475 46.7727 22.229 50.2746C24.6448 51.5272 26.8933 51.815 28.9132 51.1273C38.5912 47.8391 46.0693 32.7292 48.5105 23.9777C49.0821 21.9295 49.5628 19.5745 48.8005 17.6236C48.4343 16.6884 47.5937 15.842 46.6579 15.4696C46.209 15.2918 45.54 15.1437 44.89 15.4484C44.3607 15.6981 43.7318 15.6113 43.2915 15.2241C42.8511 14.839 42.6796 14.2275 42.8595 13.6689C43.4947 11.6821 43.2258 9.36723 42.1206 7.31689C41.0175 5.26656 39.2306 3.76848 37.2213 3.20352C35.212 2.63857 32.9063 2.98981 30.8949 4.16204C28.8836 5.33638 27.4481 7.17301 26.9526 9.19796C26.8468 9.62961 26.5525 9.99143 26.1502 10.1819C25.7479 10.3723 25.2821 10.3702 24.8798 10.1755C21.6955 8.63935 17.4737 9.59575 15.2654 12.357C13.5822 14.4603 13.1799 17.4755 14.0564 20.0125C14.9351 20.8229 15.4644 21.8597 15.5682 22.9917C15.6274 23.6392 15.2527 24.2486 14.6493 24.4919C14.0459 24.7331 13.3535 24.5512 12.9491 24.0412C12.4092 23.362 11.9646 22.6235 11.6131 21.8449C11.0076 21.4852 10.2729 21.3561 9.65044 21.5127C8.04979 21.9105 7.01446 23.5546 6.69475 25.0082C6.36234 26.5317 6.52325 28.271 7.22195 30.6429V30.6472Z" fill="var(--fill-0, #FF6900)"/>
<path id="Vector_13" d="M22.4619 52.765C22.3836 52.765 22.3053 52.7587 22.2248 52.746C21.4224 52.6169 20.8761 51.8615 21.0053 51.0574C22.2417 43.4062 18.744 36.0978 15.3607 29.0285C14.3994 27.0205 13.4064 24.9447 12.5638 22.9325C12.2504 22.1813 12.604 21.3201 13.3535 21.007C14.1051 20.6938 14.9669 21.0472 15.2802 21.7962C16.0953 23.7408 17.0291 25.6916 18.0178 27.7589C21.596 35.2366 25.2948 42.9682 23.9122 51.5272C23.7958 52.2508 23.1691 52.765 22.4598 52.765H22.4619Z" fill="var(--fill-0, #FF6900)"/>
<path id="Vector_14" d="M31.6275 52.7692C30.8695 52.7692 30.2238 52.1874 30.1603 51.4193C28.8814 35.992 26.87 21.9084 24.1811 9.55978C24.0075 8.76631 24.5114 7.9813 25.3075 7.80779C26.1036 7.63428 26.887 8.13788 27.0606 8.93347C29.777 21.4069 31.8075 35.6196 33.0969 51.1759C33.1646 51.9863 32.5612 52.6973 31.7503 52.765C31.708 52.7692 31.6677 52.7692 31.6275 52.7692Z" fill="var(--fill-0, #FF6900)"/>
<path id="Vector_15" d="M40.5136 45.1286C39.9928 45.1286 39.4868 44.8514 39.22 44.3605C33.8887 34.5976 35.3179 21.4196 42.6203 13.0257C43.1538 12.4121 44.0833 12.3465 44.6994 12.8797C45.3134 13.4129 45.3791 14.3439 44.8455 14.9575C38.3223 22.4564 37.0456 34.2294 41.8094 42.9513C42.1989 43.6644 41.9364 44.5594 41.2229 44.9488C40.9985 45.0715 40.7571 45.1286 40.5179 45.1286H40.5136Z" fill="var(--fill-0, #FF6900)"/>
<path id="Vector_16" d="M30.7234 79.2776C30.6239 79.2776 30.5202 79.2671 30.4186 79.2459C22.5551 77.5912 15.8879 71.5799 13.4361 63.9329C13.1884 63.1585 13.6139 62.329 14.3888 62.0815C15.1638 61.8339 15.9937 62.2592 16.2414 63.0336C18.3439 69.5888 24.2849 74.9463 31.0262 76.364C31.8223 76.5312 32.3326 77.3119 32.1653 78.1075C32.0192 78.8016 31.4073 79.2776 30.7256 79.2776H30.7234Z" fill="var(--fill-0, #FF6900)"/>
<path id="Vector_17" d="M14.2745 64.9189C13.4932 64.9189 12.9004 64.3836 12.3669 63.9012L12.2885 63.8292C10.6646 62.3671 9.45988 60.5114 8.7993 58.4632C7.88465 55.6236 8.06038 52.4328 9.2778 49.7096C9.55728 49.0854 10.2263 48.7363 10.8975 48.8632C11.5687 48.9902 12.0641 49.5636 12.0937 50.2449C12.1255 50.9601 12.5468 51.7684 13.345 52.6465C13.652 52.9829 13.9866 53.3088 14.3401 53.6537C14.9139 54.2102 15.5046 54.7857 16.034 55.4692C17.2069 56.9842 17.6875 58.6494 17.389 60.1623C17.2429 60.905 16.9401 61.5482 16.6734 62.1174C16.5082 62.4708 16.3515 62.8051 16.252 63.1183C16.1271 63.5139 15.7947 64.5677 14.7551 64.8512C14.5858 64.8978 14.4248 64.9168 14.2724 64.9168L14.2745 64.9189ZM11.1664 54.6291C11.1558 55.6236 11.3019 56.6181 11.6047 57.5618C12.045 58.9329 12.8115 60.1919 13.8362 61.2351C13.8934 61.1102 13.9506 60.9896 14.0056 60.869C14.2195 60.4141 14.4206 59.9825 14.4968 59.5931C14.626 58.9372 14.3359 58.0908 13.7029 57.2719C13.3006 56.7535 12.8073 56.2732 12.2843 55.7654C11.9138 55.4057 11.5327 55.0333 11.1643 54.6291H11.1664Z" fill="var(--fill-0, #FF6900)"/>
<path id="Vector_18" d="M42.9866 83.793C40.7592 83.793 39.0612 81.2455 38.028 79.1041C37.0074 76.9903 36.9439 74.6712 37.8586 72.9023C38.3604 71.9332 39.0993 71.2011 39.7514 70.5536C40.0203 70.287 40.2744 70.0352 40.5009 69.7813C41.4748 68.6874 42.1291 67.2866 42.3429 65.8393C42.4615 65.0459 43.1919 64.4936 43.988 64.5952C44.7841 64.6989 45.3515 65.4183 45.2647 66.216C45.0932 67.7818 45.5379 69.4005 46.4864 70.6573C46.7172 70.962 46.9861 71.2625 47.2719 71.5799C47.7356 72.0962 48.2141 72.6273 48.6185 73.2811C49.9142 75.3737 49.9714 78.1096 48.7645 80.2552C47.6043 82.3161 45.2393 83.7698 43.012 83.7888H42.9866V83.793ZM43.2703 71.0403C43.0903 71.2815 42.9019 71.5143 42.7029 71.7386C42.4149 72.0623 42.1164 72.3585 41.8263 72.6463C41.2801 73.188 40.7635 73.7 40.4755 74.2565C39.9843 75.2066 40.0605 76.5417 40.6809 77.8261C41.6802 79.8976 42.6774 80.818 42.9908 80.8498C44.1511 80.8392 45.5611 79.9463 46.1963 78.8164C46.8738 77.6103 46.84 76.0106 46.1116 74.8363C45.8449 74.4046 45.4722 73.9899 45.0784 73.5519C44.7629 73.2007 44.439 72.8389 44.132 72.4326C43.8038 71.9967 43.5159 71.5291 43.2703 71.0424V71.0403Z" fill="var(--fill-0, #FF6900)"/>
<g id="Group">
<g id="Group_2">
<path id="Vector_19" d="M217.556 417.478C217.109 417.478 216.667 417.275 216.379 416.889C205.2 402.046 193.642 386.697 181.135 372.567C173.166 363.564 164.644 354.863 155.802 346.708C152.967 344.093 150.031 341.469 147.189 338.932C136.535 329.415 125.519 319.573 117.067 307.731C113.762 303.101 110.84 298.148 108.014 293.357C105.945 289.851 103.807 286.226 101.548 282.782C95.1006 272.951 88.7806 266.54 81.6539 262.604C72.7318 257.678 62.5203 257.209 55.002 261.379C54.2906 261.775 53.395 261.517 52.9991 260.806C52.6052 260.095 52.8614 259.197 53.5728 258.804C61.9698 254.147 73.276 254.614 83.0789 260.027C90.6417 264.202 97.292 270.92 104.012 281.167C106.309 284.671 108.467 288.325 110.552 291.861C113.347 296.599 116.237 301.495 119.466 306.021C127.727 317.597 138.621 327.326 149.154 336.738C152.004 339.283 154.949 341.916 157.801 344.546C166.715 352.768 175.306 361.539 183.341 370.618C195.924 384.835 207.52 400.233 218.733 415.123C219.222 415.772 219.091 416.695 218.441 417.184C218.176 417.382 217.865 417.48 217.556 417.48V417.478Z" fill="var(--fill-0, #CCCCCC)"/>
<path id="Vector_20" d="M228.765 479.045C225.43 479.045 221.697 478.463 217.575 477.299C180.106 466.715 152.319 434.816 129.993 409.183C126.626 405.317 122.568 401.858 118.642 398.515C113.093 393.786 107.357 388.898 103.284 382.666C89.9536 362.273 79.6786 348.331 59.1581 340.665C58.3959 340.379 58.0085 339.533 58.2943 338.771C58.5801 338.01 59.4292 337.622 60.1892 337.908C81.5057 345.87 92.5176 360.813 105.75 381.056C109.591 386.932 115.164 391.68 120.554 396.274C124.562 399.689 128.706 403.221 132.216 407.251C154.286 432.59 181.753 464.121 218.378 474.468C227.655 477.09 234.619 476.563 239.074 472.907C246.027 467.198 244.854 456.015 243.054 446.91C235.062 406.456 226.211 365.597 216.747 325.464C214.289 315.045 211.74 304.459 209.276 294.225L200.927 259.561C200.705 258.639 200.713 257.737 200.745 257.054C200.832 255.175 198.977 253.154 197 252.977C195.253 252.818 193.75 251.929 192.875 250.539L189.632 245.378C189.477 245.131 189.248 245.055 189.126 245.029C189.003 245.004 188.761 244.989 188.524 245.156L187.178 246.104C186.534 246.557 185.649 246.424 185.166 245.804C177.407 235.819 163.367 232.234 152.51 237.465C151.777 237.818 151.333 238.502 151.318 239.293C151.303 240.086 151.727 240.787 152.449 241.168C153.778 241.868 155.491 242.333 157.267 242.482C160.96 242.786 164.326 243.15 168.123 244.532C171 245.579 173.403 248.135 174.104 250.892C174.635 252.979 174.152 255.004 172.744 256.597C170.703 258.905 167.286 259.591 164.242 258.307C160.268 256.629 158.197 253.421 156.196 250.319C155.313 248.952 154.481 247.661 153.494 246.502C151.811 244.521 149.313 243.169 147.28 243.135C146.042 243.125 144.987 243.571 144.153 244.49C143.296 245.433 142.862 246.819 142.961 248.294C143.183 251.597 145.269 254.185 147.475 256.923L147.697 257.198C175.844 292.176 191.692 336.158 192.316 381.041C192.327 381.854 191.677 382.522 190.864 382.533C190.038 382.542 189.382 381.894 189.371 381.082C188.755 336.852 173.14 293.512 145.402 259.043L145.182 258.77C142.898 255.935 140.308 252.721 140.022 248.491C139.868 246.189 140.56 244.064 141.972 242.509C143.38 240.958 145.229 240.148 147.329 240.19C147.704 240.196 148.083 240.23 148.464 240.287C148.398 239.947 148.366 239.595 148.373 239.24C148.407 237.342 149.501 235.645 151.231 234.811C162.906 229.187 177.858 232.687 186.604 242.907L186.828 242.748C187.661 242.162 188.711 241.942 189.706 242.141C190.703 242.342 191.586 242.949 192.128 243.81L195.372 248.971C195.753 249.578 196.443 249.968 197.269 250.044C200.851 250.37 203.851 253.709 203.69 257.192C203.656 257.928 203.688 258.429 203.794 258.874L212.142 293.537C214.609 303.776 217.158 314.364 219.616 324.789C229.089 364.956 237.947 405.851 245.946 446.339C247.905 456.248 249.105 468.482 240.945 475.181C237.808 477.756 233.734 479.047 228.769 479.047L228.765 479.045ZM156.346 245.34C157.195 246.434 157.941 247.589 158.667 248.715C160.507 251.567 162.247 254.261 165.383 255.586C167.261 256.379 169.329 255.998 170.532 254.64C171.296 253.776 171.536 252.757 171.243 251.612C170.786 249.815 169.048 247.998 167.108 247.293C163.655 246.036 160.496 245.696 157.02 245.41C156.808 245.393 156.583 245.37 156.346 245.342V245.34Z" fill="var(--fill-0, #CCCCCC)"/>
<path id="Vector_21" d="M181.455 459.405C181.37 459.405 181.283 459.396 181.197 459.382L140.965 452.255C129.201 450.171 117.037 448.017 105.6 443.671C100.83 441.86 96.1656 439.653 91.6516 437.518L78.7491 431.415C78.0144 431.068 77.6989 430.19 78.0483 429.454C78.3955 428.72 79.2742 428.406 80.011 428.753L92.9029 434.852C97.3724 436.965 101.984 439.147 106.646 440.918C117.823 445.167 129.849 447.295 141.477 449.356L181.709 456.483C182.509 456.625 183.045 457.388 182.903 458.19C182.776 458.903 182.156 459.407 181.455 459.407V459.405Z" fill="var(--fill-0, #CCCCCC)"/>
<path id="Vector_22" d="M60.8541 433.191C52.4253 433.191 44.2739 430.939 36.3659 428.753C27.8652 426.405 18.2295 423.743 10.9695 417.374C7.77243 414.566 5.69753 411.53 4.80404 408.345C3.83223 404.879 4.406 401.217 6.24589 398.584C4.29802 396.894 2.2951 394.958 1.05863 392.446C-0.359933 389.566 -0.654231 385.197 2.0495 382.415C2.84982 381.591 3.80894 381.039 4.83157 380.762C3.66073 379.393 2.64233 377.878 1.88647 376.183C1.00569 374.205 0.630941 371.951 0.80879 369.668C1.02687 366.848 2.7122 364.507 5.31642 363.403C7.94393 362.288 10.9462 362.734 13.1545 364.562C17.101 367.832 21.7738 370.244 26.6689 371.534C29.9125 372.389 35.718 373.172 38.1656 368.79C39.2814 366.793 39.2835 364.196 38.1719 361.846C36.3172 357.927 32.955 355.705 29.0614 353.132C28.0748 352.48 27.0542 351.805 26.0253 351.082C25.1784 350.485 24.3463 349.924 23.5333 349.378C20.4844 347.328 17.6049 345.39 15.2294 342.375C14.8313 341.869 14.4015 341.401 13.9866 340.949C12.388 339.209 10.5778 337.235 11.9392 333.871C12.2864 333.014 12.7776 332.25 13.398 331.603C16.595 328.266 20.1689 330.388 22.7795 331.937C23.4697 332.347 24.1811 332.768 24.8608 333.096C27.0839 334.169 29.0805 334.937 30.842 335.614C32.5464 336.27 34.02 336.835 35.14 337.483C38.2312 339.266 40.8079 341.01 43.2978 342.694C46.6875 344.988 49.8888 347.153 54.1064 349.249C62.6537 353.496 68.5016 361.268 73.5491 369.033C74.3007 370.191 75.046 371.359 75.7891 372.527C79.8437 378.892 84.0358 385.474 89.7186 390.383C98.4035 397.886 110.796 401.164 122.057 398.938C122.856 398.777 123.631 399.298 123.789 400.097C123.948 400.895 123.429 401.67 122.631 401.828C110.499 404.228 97.1501 400.696 87.794 392.613C81.7852 387.423 77.4745 380.656 73.3056 374.112C72.5646 372.95 71.8257 371.79 71.0783 370.639C66.2594 363.223 60.708 355.819 52.7937 351.888C48.3983 349.704 45.1186 347.485 41.6442 345.136C39.1967 343.479 36.6645 341.767 33.6643 340.037C32.7433 339.506 31.3713 338.977 29.7813 338.367C28.0557 337.705 25.9088 336.88 23.5756 335.752C22.7816 335.369 22.0131 334.912 21.2699 334.472C18.3058 332.711 16.9571 332.144 15.5216 333.642C15.1659 334.015 14.8695 334.476 14.6662 334.98C14.0331 336.541 14.554 337.222 16.1525 338.964C16.5844 339.434 17.0714 339.965 17.5414 340.559C19.6312 343.213 22.1994 344.939 25.1741 346.941C26.0041 347.5 26.8531 348.071 27.7169 348.68C28.7099 349.378 29.7114 350.041 30.679 350.682C34.7632 353.382 38.6229 355.929 40.8291 360.593C42.3472 363.801 42.3112 367.404 40.7317 370.231C38.2355 374.7 32.8322 376.215 25.9088 374.387C20.603 372.986 15.5385 370.375 11.2659 366.835C9.88968 365.694 8.09214 365.428 6.45974 366.12C4.88873 366.786 3.87034 368.198 3.74118 369.901C3.60356 371.672 3.89998 373.481 4.57326 374.992C5.78645 377.713 7.89312 379.971 10.2221 381.907C10.2221 381.907 10.2263 381.909 10.2263 381.911C12.0853 383.362 13.0275 384.044 15.8286 385.971C16.4955 386.431 16.667 387.343 16.2118 388.013C15.7545 388.682 14.8441 388.858 14.1708 388.407C12.3076 387.154 10.2496 385.77 8.3081 384.154C6.97635 383.187 5.28678 383.31 4.15828 384.471C2.44754 386.232 2.72067 389.169 3.69672 391.153C4.89932 393.597 7.11397 395.476 9.25451 397.294C9.56786 397.56 9.7563 397.945 9.77323 398.356C9.79017 398.766 9.6335 399.166 9.34343 399.456C7.45696 401.346 6.78579 404.526 7.63481 407.558C8.37161 410.184 10.1438 412.744 12.9068 415.169C19.6566 421.094 28.9471 423.66 37.1429 425.924C45.5315 428.241 54.208 430.635 62.9671 430.203C66.6214 430.021 70.3902 429.331 74.034 428.667C80.8028 427.429 87.8024 426.151 94.6581 427.945C95.4457 428.15 95.9157 428.957 95.7104 429.742C95.505 430.529 94.6983 430.998 93.9128 430.793C87.6902 429.164 81.3152 430.328 74.5654 431.561C70.8284 432.245 66.9623 432.949 63.1153 433.142C62.3573 433.18 61.5993 433.199 60.8456 433.199L60.8541 433.191Z" fill="var(--fill-0, #CCCCCC)"/>
<path id="Vector_23" d="M242.624 472.17C241.934 472.17 241.318 471.682 241.18 470.979C241.026 470.181 241.547 469.407 242.345 469.252C248.502 468.053 254.032 462.729 256.431 455.687C258.392 449.936 258.569 443.252 256.994 434.651C255.643 427.268 253.547 421.35 250.592 416.559C247.013 410.762 242.006 406.517 236.495 404.609C235.726 404.342 235.32 403.504 235.584 402.736C235.851 401.968 236.69 401.562 237.458 401.826C243.611 403.957 249.165 408.639 253.098 415.013C256.251 420.12 258.472 426.371 259.891 434.122C261.559 443.237 261.345 450.391 259.217 456.637C256.484 464.659 250.079 470.746 242.906 472.143C242.811 472.162 242.715 472.17 242.622 472.17H242.624Z" fill="var(--fill-0, #CCCCCC)"/>
<path id="Vector_24" d="M13.3112 335.894C13.2286 335.894 13.146 335.887 13.0634 335.872C12.261 335.737 11.7211 334.977 11.8566 334.176C13.7198 323.16 16.5781 313.793 20.1181 302.69C25.9194 284.504 31.2591 269.769 42.5885 259.373C45.1292 257.041 47.5133 254.98 49.8189 252.987C60.6699 243.607 67.8368 237.412 68.9398 222.116C68.9991 221.305 69.7021 220.694 70.5151 220.753C71.326 220.812 71.9379 221.517 71.8786 222.327C70.6887 238.84 62.7426 245.708 51.7456 255.213C49.4548 257.194 47.0877 259.24 44.5787 261.542C33.785 271.447 28.5914 285.822 22.9235 303.585C19.4173 314.576 16.5908 323.841 14.7594 334.666C14.6387 335.386 14.0141 335.894 13.309 335.894H13.3112Z" fill="var(--fill-0, #CCCCCC)"/>
<path id="Vector_25" d="M156.787 572C146.374 572 136.254 568.274 127.154 564.924L80.6461 547.804C73.4581 545.157 65.5459 541.727 62.6325 534.468C61.0891 530.623 61.3008 526.514 61.5062 522.54C61.5422 521.859 61.576 521.182 61.6014 520.507C62.4399 498.454 52.709 477.742 43.0797 460.389C40.8439 456.358 38.4874 452.283 36.2114 448.339C31.6593 440.459 26.9505 432.31 22.8981 424.026C22.5403 423.296 22.843 422.414 23.5735 422.057C24.3039 421.701 25.1868 422.002 25.5446 422.732C29.5547 430.924 34.236 439.028 38.7627 446.864C41.0472 450.816 43.4079 454.904 45.6564 458.956C55.4826 476.665 65.4104 497.837 64.5444 520.615C64.519 521.302 64.483 521.994 64.447 522.688C64.2501 526.512 64.0659 530.124 65.3659 533.369C67.8283 539.508 74.7665 542.5 81.6624 545.039L128.17 562.159C138.674 566.027 150.581 570.409 162.336 568.65C173.786 566.937 184.156 558.966 188.753 548.346C192.767 539.07 192.537 528.251 192.333 518.706L191.234 467.261C191.217 466.449 191.863 465.776 192.676 465.757C193.483 465.727 194.163 466.385 194.182 467.198L195.28 518.643C195.49 528.49 195.729 539.65 191.459 549.516C186.468 561.048 175.209 569.702 162.774 571.562C160.771 571.862 158.773 571.998 156.787 571.998V572Z" fill="var(--fill-0, #CCCCCC)"/>
<path id="Vector_26" d="M9.14229 365.642C9.10207 365.642 9.06184 365.642 9.02161 365.637C8.2107 365.572 7.60729 364.861 7.67292 364.05C8.46901 354.277 9.66949 344.687 11.2447 335.549C11.3823 334.747 12.1446 334.207 12.947 334.349C13.7494 334.487 14.2872 335.248 14.1496 336.05C12.5892 345.102 11.3993 354.603 10.6117 364.289C10.5481 365.06 9.9045 365.642 9.14441 365.642H9.14229Z" fill="var(--fill-0, #CCCCCC)"/>
<path id="Vector_27" d="M141.49 249.86C141.432 249.86 141.377 249.856 141.32 249.849C136.84 249.335 133.302 247.016 130.806 242.958C130.38 242.266 130.596 241.358 131.289 240.933C131.981 240.507 132.889 240.723 133.315 241.415C135.343 244.71 138.07 246.512 141.657 246.925C142.466 247.018 143.046 247.748 142.953 248.556C142.866 249.308 142.229 249.86 141.492 249.86H141.49Z" fill="var(--fill-0, #CCCCCC)"/>
<path id="Vector_28" d="M134.204 285.651C133.514 285.651 132.896 285.162 132.76 284.46C131.058 275.691 129.296 266.624 128.909 257.484C128.469 247.143 129.917 238.011 133.209 230.338C133.469 229.729 133.745 229.126 134.02 228.521C134.736 226.949 135.411 225.463 135.851 223.904C136.307 222.289 136.652 219.943 135.716 217.92C134.685 215.692 132.265 214.217 129.804 212.956C119.553 207.7 108.069 204.384 96.5912 203.364C92.4181 202.994 87.5823 202.859 83.3562 204.668C76.9198 207.423 72.374 214.818 71.7727 223.506C71.2117 231.616 73.6571 239.604 76.0199 247.329C76.2571 248.108 75.8209 248.931 75.0418 249.168C74.2647 249.405 73.4411 248.969 73.2019 248.19C70.8729 240.581 68.2348 231.955 68.834 223.303C69.5094 213.523 74.7559 205.146 82.1981 201.959C87.0254 199.892 92.3143 200.025 96.8537 200.43C108.704 201.481 120.565 204.907 131.151 210.334C134.081 211.837 136.988 213.646 138.392 216.682C139.705 219.52 139.277 222.609 138.688 224.699C138.189 226.475 137.433 228.133 136.705 229.737C136.438 230.321 136.173 230.907 135.919 231.498C132.8 238.762 131.435 247.46 131.854 257.357C132.233 266.277 133.973 275.234 135.654 283.897C135.809 284.694 135.288 285.467 134.488 285.623C134.393 285.642 134.299 285.651 134.206 285.651H134.204Z" fill="var(--fill-0, #CCCCCC)"/>
</g>
<path id="Vector_29" d="M90.6798 255.423C90.4956 255.423 90.3072 255.387 90.1251 255.315C89.3713 255.008 89.0093 254.149 89.3163 253.396C93.519 243.066 94.584 231.365 92.3143 220.446C90.0446 209.528 84.4042 199.219 76.4307 191.418C73.9027 188.944 71.0783 186.653 68.3491 184.435C64.8239 181.575 61.1801 178.616 58.0318 175.174C53.5178 170.235 50.1323 164.442 46.859 158.839C43.4333 152.978 39.1713 145.682 38.9871 137.794C38.968 136.981 39.6117 136.306 40.4247 136.287C41.2525 136.26 41.9131 136.911 41.9322 137.724C42.0994 144.853 45.9804 151.494 49.404 157.353C52.5989 162.823 55.9039 168.479 60.2083 173.187C63.2084 176.469 66.7654 179.357 70.2081 182.15C72.9923 184.41 75.8696 186.746 78.495 189.315C86.8814 197.52 92.814 208.364 95.2022 219.847C97.5905 231.331 96.4684 243.639 92.0475 254.504C91.8146 255.076 91.2641 255.423 90.6819 255.423H90.6798Z" fill="var(--fill-0, #FF6900)"/>
<path id="Vector_30" d="M74.667 197.73C72.4841 197.73 70.1954 197.349 67.9087 196.585C63.85 195.231 60.2041 192.876 56.8694 190.533C50.0878 185.77 41.8665 179.101 38.4472 169.725C35.7837 162.423 36.0081 153.822 39.1501 142.658C39.5206 141.342 39.7091 139.726 39.8933 138.162C39.9864 137.368 40.0732 136.617 40.1854 135.894C40.285 135.242 40.8079 134.734 41.4643 134.656C42.1206 134.58 42.7494 134.941 43.0014 135.553C45.5908 141.78 51.4471 146.08 57.1086 150.238C58.2054 151.044 59.3402 151.875 60.4306 152.707C65.5332 156.6 70.2652 161.022 74.4955 165.845C76.7694 168.439 79.6129 171.941 81.4189 176.043C83.9152 181.712 84.292 188.354 82.45 194.268C82.4225 194.355 82.3886 194.439 82.3463 194.52C82.2341 194.85 82.0943 195.195 81.5523 196.007C81.3914 196.251 81.1606 196.439 80.8896 196.551C78.9947 197.338 76.8838 197.73 74.667 197.73ZM42.5271 140.803C42.3916 141.719 42.2244 142.616 41.9872 143.456C39.021 153.995 38.7754 162.021 41.2165 168.716C44.3543 177.319 52.1352 183.606 58.5653 188.123C61.7179 190.337 65.1457 192.556 68.8446 193.792C72.6048 195.047 76.3142 195.114 79.3461 193.995C79.5049 193.735 79.5367 193.644 79.5579 193.58C79.5833 193.508 79.6171 193.409 79.6722 193.288C81.2686 188.07 80.9256 182.222 78.7258 177.228C77.0807 173.494 74.4193 170.22 72.283 167.785C68.1797 163.109 63.5917 158.822 58.6458 155.045C57.5765 154.23 56.4544 153.405 55.3683 152.607C50.6447 149.139 45.7962 145.578 42.5314 140.8L42.5271 140.803Z" fill="var(--fill-0, #FF6900)"/>
<path id="Vector_31" d="M94.9926 222.77C94.7619 222.77 94.529 222.717 94.3109 222.602C93.5889 222.226 93.3115 221.337 93.6884 220.616C96.2397 215.738 97.0273 209.407 95.9644 202.304C95.2171 197.298 93.6757 192.319 92.1852 187.503C91.7723 186.168 91.3594 184.833 90.9614 183.494C85.9011 166.484 83.2165 148.71 80.6228 131.522C79.1111 121.507 78.061 110.928 83.1424 101.345C83.5235 100.627 84.4148 100.352 85.1347 100.733C85.8546 101.114 86.1277 102.005 85.7466 102.724C81.0802 111.522 82.0393 121.16 83.5362 131.084C86.115 148.172 88.7827 165.845 93.7858 182.656C94.1817 183.982 94.5904 185.309 95.0011 186.634C96.5234 191.555 98.0986 196.644 98.8799 201.871C100.034 209.594 99.1424 216.547 96.3011 221.98C96.0386 222.484 95.5262 222.772 94.9948 222.772L94.9926 222.77Z" fill="var(--fill-0, #FF6900)"/>
<path id="Vector_32" d="M84.5334 102.959C77.7349 102.959 70.6993 93.2936 68.5016 88.8099C65.3088 82.2992 64.6863 74.5845 66.7887 67.6442C68.0951 63.332 70.6209 60.6828 73.7164 60.376C76.5027 60.1031 78.7872 61.7366 80.8854 63.4357L99.7713 78.7275C100.904 79.6437 102.314 80.7863 102.962 82.5214C103.747 84.6204 103.265 87.0241 101.488 89.8721C98.4162 94.798 91.171 102.703 84.8108 102.951C84.7197 102.955 84.6266 102.957 84.5334 102.957V102.959ZM74.305 63.2939C74.2055 63.2939 74.1059 63.2981 74.0043 63.3087C71.3027 63.5753 69.9561 67.3501 69.6068 68.4991C67.7161 74.7347 68.2793 81.6644 71.146 87.515C73.2633 91.8315 79.6214 100.223 84.6943 100.012C89.5852 99.8212 96.1148 92.9212 98.9879 88.3169C100.248 86.2962 100.646 84.7389 100.203 83.5539C99.8348 82.57 98.8164 81.7448 97.9166 81.0169L79.0307 65.7251C77.5041 64.4894 75.8887 63.2939 74.3071 63.2939H74.305Z" fill="var(--fill-0, #FF6900)"/>
<path id="Vector_33" d="M129.322 115.526C128.682 115.526 128.058 115.477 127.463 115.386C123.256 114.732 119.722 112.331 116.739 110.13C113.874 108.016 110.929 105.636 108.787 102.549C105.602 97.9571 104.738 94.104 106.218 91.0972C111.008 81.3618 120.8 82.0707 127.95 82.5912C129.591 82.7097 131.136 82.8303 132.523 82.8176C135.517 82.8028 138.913 82.7901 141.958 84.2945C145.042 85.8201 147.733 89.4828 146.647 93.2703C146.076 95.2635 144.625 96.6727 143.344 97.9148C142.468 98.7654 141.64 99.5694 141.121 100.486C140.397 101.762 140.221 103.346 140.037 105.026C139.84 106.814 139.635 108.666 138.756 110.392C136.908 114.036 132.887 115.528 129.324 115.528L129.322 115.526ZM122.352 85.2657C116.982 85.2657 111.791 86.438 108.861 92.3943C107.889 94.3727 108.676 97.225 111.207 100.871C113.104 103.605 115.826 105.797 118.486 107.76C121.187 109.751 124.365 111.924 127.912 112.475C130.895 112.938 134.674 111.912 136.124 109.057C136.76 107.807 136.927 106.296 137.103 104.698C137.312 102.798 137.53 100.833 138.553 99.0299C139.279 97.7476 140.3 96.7574 141.286 95.801C142.402 94.7176 143.454 93.6956 143.81 92.4557C144.426 90.3122 142.648 87.9191 140.647 86.931C138.227 85.7333 135.201 85.7482 132.532 85.7587C131.035 85.7672 129.432 85.6487 127.732 85.526C125.97 85.399 124.149 85.2657 122.35 85.2657H122.352Z" fill="var(--fill-0, #FF6900)"/>
<path id="Vector_34" d="M105.913 127.106C102.666 127.106 99.2356 126.046 96.0513 123.996C92.1174 121.465 89.1088 117.919 86.1192 114.201C83.8389 111.364 81.4105 107.623 82.901 103.846C84.0803 100.854 87.0614 99.5864 89.691 98.4691C90.269 98.2237 90.8132 97.9909 91.3361 97.7455C96.8008 95.1704 100.747 89.3918 101.16 83.3677C101.215 82.5552 101.918 81.9416 102.731 81.9987C103.542 82.0537 104.156 82.7562 104.101 83.5688C103.612 90.7333 99.0959 97.3435 92.5959 100.407C92.0242 100.678 91.4251 100.932 90.8492 101.178C88.5477 102.155 86.3733 103.08 85.6471 104.925C84.7134 107.293 86.6401 110.141 88.4228 112.356C91.2536 115.877 94.0886 119.226 97.6519 121.518C101.482 123.981 105.833 124.774 109.293 123.636C112.826 122.474 116.949 112.955 116.176 109.243C116.011 108.448 116.521 107.667 117.319 107.502C118.117 107.335 118.896 107.847 119.062 108.645C120.137 113.812 115.284 124.766 110.214 126.433C108.848 126.882 107.402 127.104 105.92 127.104L105.913 127.106Z" fill="var(--fill-0, #FF6900)"/>
<path id="Vector_35" d="M111.48 245.981C111.444 245.981 111.406 245.981 111.37 245.977C110.559 245.918 109.949 245.211 110.01 244.401C111.795 220.338 114.016 190.392 101.814 166.054C96.6483 155.752 89.0114 146.693 79.7272 139.859C76.4413 137.438 72.8737 135.244 69.4247 133.12C64.8684 130.314 60.1554 127.415 55.9314 123.913C46.5563 116.144 39.1925 105.211 34.0454 91.421C29.4404 79.0872 27.1347 65.8161 25.3266 53.3151C25.2101 52.5111 25.7691 51.7642 26.5736 51.6478C27.3782 51.5356 28.1256 52.09 28.242 52.8941C30.0269 65.2342 32.2987 78.317 36.8063 90.3926C41.7713 103.695 48.8408 114.212 57.8137 121.649C61.8788 125.018 66.5008 127.864 70.9703 130.614C74.4701 132.768 78.0906 134.996 81.4761 137.489C91.1329 144.599 99.0768 154.021 104.45 164.736C117.016 189.799 114.764 220.194 112.951 244.619C112.894 245.393 112.248 245.981 111.484 245.981H111.48Z" fill="var(--fill-0, #FF6900)"/>
<path id="Vector_36" d="M78.8147 99.8657C78.3277 99.8657 77.8535 99.6244 77.5719 99.1864C77.1336 98.5009 77.3347 97.591 78.0207 97.153C84.1565 93.2343 91.2197 90.6719 98.4416 89.7409C99.2462 89.6372 99.9872 90.2064 100.091 91.0126C100.195 91.8188 99.6252 92.5572 98.8185 92.6609C92.0242 93.5369 85.3803 95.9469 79.6066 99.6329C79.3609 99.7895 79.0857 99.8657 78.8147 99.8657Z" fill="var(--fill-0, #FF6900)"/>
<path id="Vector_37" d="M141.657 98.9791C141.318 98.9791 140.979 98.8627 140.702 98.6278L132.803 91.8907C130.831 90.2085 128.792 88.4693 126.512 87.3182C123.54 85.818 120.095 85.3059 116.815 85.8793C116.013 86.0211 115.25 85.4837 115.111 84.6817C114.971 83.8798 115.507 83.1181 116.309 82.9784C120.211 82.2992 124.306 82.9065 127.842 84.6902C130.438 86 132.614 87.8556 134.719 89.6499L142.618 96.3871C143.236 96.916 143.31 97.8449 142.783 98.4628C142.491 98.8035 142.078 98.9791 141.661 98.9791H141.657Z" fill="var(--fill-0, #FF6900)"/>
<path id="Vector_38" d="M138.168 106.888C137.594 106.888 137.048 106.55 136.81 105.987C136.777 105.907 136.749 105.873 136.743 105.869C136.611 105.763 135.879 105.771 135.487 105.778L135.083 105.782C134.736 105.782 134.374 105.805 133.99 105.828C132.936 105.894 131.74 105.966 130.546 105.574C128.75 104.984 127.276 103.439 126.391 101.22C126.006 100.255 125.763 99.2796 125.526 98.3337C125.356 97.6587 125.195 97.0218 124.992 96.4061C123.203 91.0126 117.368 87.2251 111.708 87.7879C110.9 87.8704 110.178 87.278 110.097 86.4676C110.017 85.6593 110.607 84.9378 111.418 84.8574C118.392 84.1676 125.583 88.8311 127.789 95.4793C128.028 96.1987 128.208 96.9203 128.384 97.6185C128.606 98.5093 128.818 99.3494 129.129 100.13C129.677 101.503 130.529 102.468 131.467 102.777C132.125 102.993 132.944 102.944 133.812 102.889C134.221 102.864 134.645 102.839 135.081 102.839L135.455 102.834C136.732 102.815 138.665 102.794 139.529 104.844C139.845 105.593 139.493 106.457 138.744 106.774C138.557 106.852 138.362 106.891 138.172 106.891L138.168 106.888Z" fill="var(--fill-0, #FF6900)"/>
<path id="Vector_39" d="M132.716 114.999C131.968 114.999 131.329 114.434 131.253 113.674C131.121 112.369 130.698 111.994 130.012 111.787C129.375 111.594 128.684 111.488 127.952 111.376C127.101 111.245 126.222 111.11 125.335 110.826C122.602 109.95 120.19 107.764 118.166 104.332C117.571 103.325 117.04 102.284 116.525 101.277C115.701 99.6646 114.924 98.1433 113.923 96.7701C113.095 95.6338 110.847 92.9847 107.83 92.9254C107.017 92.9085 106.371 92.2377 106.386 91.4231C106.403 90.6106 107.063 89.9589 107.889 89.98C110.942 90.0414 114.01 91.8844 116.305 95.0371C117.442 96.5987 118.31 98.2956 119.148 99.9376C119.665 100.951 120.154 101.908 120.705 102.839C122.35 105.629 124.211 107.373 126.235 108.023C126.9 108.236 127.628 108.348 128.399 108.467C129.199 108.59 130.027 108.717 130.863 108.971C132.83 109.565 133.948 111.048 134.183 113.382C134.266 114.191 133.675 114.914 132.866 114.995C132.815 114.999 132.767 115.001 132.716 115.001V114.999Z" fill="var(--fill-0, #FF6900)"/>
<path id="Vector_40" d="M87.3959 113.702C86.8327 113.702 86.295 113.376 86.0494 112.83C85.717 112.087 86.0515 111.218 86.7946 110.885C90.6713 109.157 94.5544 107.176 95.7337 103.672C96.0851 102.629 96.1804 101.472 96.2799 100.247C96.3201 99.7429 96.3625 99.2393 96.4218 98.7379C97.0019 93.7781 99.2716 89.1061 102.812 85.5831C103.388 85.0097 104.321 85.0118 104.895 85.5873C105.469 86.1629 105.467 87.096 104.891 87.6694C101.821 90.7248 99.8517 94.7768 99.3478 99.0785C99.2928 99.544 99.2547 100.014 99.2165 100.486C99.1064 101.833 98.9921 103.226 98.5263 104.61C96.9659 109.243 92.272 111.666 87.9951 113.573C87.8003 113.659 87.5971 113.702 87.3959 113.702Z" fill="var(--fill-0, #FF6900)"/>
<path id="Vector_41" d="M102.985 126.647C102.774 126.647 102.56 126.603 102.356 126.505C101.622 126.158 101.306 125.28 101.656 124.544C102.721 122.297 102.865 119.427 102.1 115.771C101.842 114.538 101.503 113.279 101.175 112.06C100.652 110.115 100.11 108.103 99.839 106.027C98.9604 99.2965 101.105 92.2293 105.575 87.1193C106.11 86.5078 107.042 86.4443 107.654 86.9796C108.266 87.515 108.329 88.446 107.794 89.0575C103.872 93.5411 101.99 99.7429 102.761 105.646C103.006 107.53 103.5 109.36 104.021 111.296C104.359 112.553 104.709 113.854 104.984 115.168C105.886 119.476 105.668 122.955 104.319 125.805C104.067 126.336 103.538 126.647 102.987 126.647H102.985Z" fill="var(--fill-0, #FF6900)"/>
<path id="Vector_42" d="M113.732 122.929C113.186 122.929 112.661 122.625 112.407 122.1C111.971 121.203 111.539 120.447 111.082 119.645C110.62 118.837 110.144 118.003 109.665 117.017C108.602 114.83 107.281 112.108 107.419 109.169C107.539 106.599 108.727 104.354 109.773 102.371C110.152 101.652 111.044 101.376 111.763 101.757C112.483 102.136 112.758 103.027 112.377 103.746C111.473 105.456 110.451 107.394 110.36 109.307C110.256 111.497 111.348 113.746 112.312 115.731C112.748 116.628 113.18 117.383 113.637 118.185C114.099 118.994 114.575 119.827 115.054 120.813C115.409 121.545 115.104 122.426 114.372 122.781C114.164 122.883 113.946 122.929 113.73 122.929H113.732Z" fill="var(--fill-0, #FF6900)"/>
<path id="Vector_43" d="M37.9666 99.0426C37.4669 99.0426 36.9799 98.7886 36.7026 98.3295C36.2833 97.6333 36.5078 96.7277 37.2044 96.3088C38.9447 95.2614 40.2617 93.1984 40.8206 90.6508C41.3605 88.1921 41.2144 85.5429 41.0747 82.9805C41.0302 82.168 41.6527 81.474 42.4657 81.4295C43.2766 81.3851 43.9732 82.0072 44.0177 82.8176C44.1701 85.5768 44.3268 88.429 43.7001 91.2813C42.9569 94.6647 41.1911 97.3435 38.7267 98.8289C38.4895 98.9727 38.227 99.0404 37.9666 99.0404V99.0426Z" fill="var(--fill-0, #FF6900)"/>
<path id="Vector_44" d="M43.4799 112.997C37.5918 112.997 31.7503 109.912 28.5914 104.899C28.1573 104.212 28.3648 103.302 29.0529 102.868C29.741 102.434 30.6515 102.64 31.0855 103.329C34.1407 108.175 40.2151 110.852 45.8554 109.842C46.6579 109.701 47.4222 110.232 47.5662 111.031C47.7102 111.831 47.1766 112.597 46.3763 112.741C45.4193 112.912 44.4517 112.995 43.4841 112.995L43.4799 112.997Z" fill="var(--fill-0, #FF6900)"/>
<path id="Vector_45" d="M58.0233 125.333C57.7036 125.333 57.3818 125.229 57.1129 125.018C56.4735 124.514 56.3655 123.587 56.8694 122.95C60.8223 117.942 62.605 111.188 61.6396 104.885C61.5168 104.081 62.0694 103.329 62.8718 103.207C63.6764 103.084 64.428 103.636 64.5508 104.438C65.639 111.535 63.6319 119.138 59.1814 124.774C58.8914 125.143 58.4594 125.335 58.0233 125.335V125.333Z" fill="var(--fill-0, #FF6900)"/>
<path id="Vector_46" d="M62.7596 136.287C62.4632 136.287 62.1668 136.279 61.8703 136.26C58.3493 136.038 54.8919 134.487 52.3893 132C51.8113 131.427 51.8092 130.496 52.3829 129.918C52.9567 129.343 53.8883 129.338 54.4663 129.912C56.4713 131.901 59.2365 133.145 62.0567 133.321C64.8747 133.498 67.7775 132.612 70.0154 130.889C70.659 130.394 71.5843 130.513 72.0818 131.158C72.5773 131.804 72.4587 132.726 71.813 133.223C69.2532 135.193 65.9969 136.289 62.7617 136.289L62.7596 136.287Z" fill="var(--fill-0, #FF6900)"/>
<path id="Vector_47" d="M29.4933 105.583C29.47 105.583 29.4467 105.583 29.4213 105.583C27.0479 105.534 24.7337 104.402 23.2326 102.555C21.6362 100.591 21.0349 97.8471 21.6637 95.3968C21.8987 94.4806 22.2756 93.666 22.6398 92.8767C23.0251 92.0431 23.3893 91.2538 23.5142 90.4751C23.6391 89.7113 24.3293 89.1717 25.1043 89.2458C25.8749 89.3177 26.4593 89.9737 26.4402 90.7481C26.4127 91.8315 27.1961 92.8619 27.664 93.3803C28.151 93.9178 28.7184 94.4087 29.3197 94.9271C29.7432 95.291 30.1814 95.6698 30.6028 96.076C32.0404 97.4598 32.8682 98.8437 33.135 100.302C33.3954 101.728 32.9953 103.319 32.1145 104.354C31.4348 105.151 30.5075 105.587 29.4912 105.587L29.4933 105.583ZM25.0069 94.7874C24.8057 95.2423 24.6321 95.6846 24.5199 96.1247C24.1197 97.6905 24.503 99.4425 25.5214 100.697C26.4699 101.863 27.9858 102.608 29.4806 102.638C29.5886 102.646 29.7135 102.627 29.8723 102.441C30.1772 102.083 30.3381 101.374 30.2386 100.826C30.0861 99.9947 29.5378 99.1335 28.5596 98.192C28.1954 97.8407 27.808 97.5064 27.3972 97.153C26.7536 96.5987 26.0888 96.0252 25.479 95.3524C25.3117 95.1662 25.153 94.9779 25.0047 94.7874H25.0069Z" fill="var(--fill-0, #FF6900)"/>
<path id="Vector_48" d="M62.6156 106.059C61.305 106.059 60.1702 105.306 59.5181 104.872C56.8249 103.084 55.1438 99.9482 55.2349 96.8843C55.3111 94.2881 56.4586 91.9902 57.4686 89.961L60.6889 83.4989C60.8054 83.1963 60.9536 82.9086 61.1293 82.6377C61.5549 81.9839 62.4166 81.7744 63.0962 82.1617C63.7737 82.5489 64.0321 83.3974 63.6848 84.0956L63.3905 84.6838C63.111 85.5366 63.3905 86.5818 63.7674 87.297C64.2882 88.2873 65.1076 89.1548 65.9757 90.0731C66.1641 90.272 66.3526 90.4709 66.5368 90.6719C67.6885 91.9182 68.9229 93.4523 69.34 95.3862C69.755 97.3181 69.2955 99.4827 68.0442 101.48C67.371 102.555 66.0096 104.508 64.4703 105.496C63.8373 105.902 63.2084 106.057 62.6177 106.057L62.6156 106.059ZM58.1778 96.9732C58.1164 99.0447 59.2831 101.182 61.1462 102.42C62.3615 103.226 62.6304 103.177 62.8739 103.021C63.634 102.534 64.6312 101.374 65.5417 99.9207C66.0286 99.142 66.7972 97.5974 66.4542 96.0062C66.1874 94.7684 65.2495 93.6258 64.3687 92.6715C64.1908 92.4789 64.0109 92.2885 63.8288 92.0981C62.9184 91.1353 61.9804 90.143 61.2817 88.9051L60.1003 91.275C59.2238 93.0312 58.2329 95.0223 58.1736 96.9732H58.1778Z" fill="var(--fill-0, #FF6900)"/>
<path id="Vector_49" d="M52.1352 132.65C51.2354 132.65 50.1556 132.495 48.8746 132.191C46.8124 131.698 45.1758 130.578 44.2654 129.038C43.6493 127.995 43.4206 126.854 43.2216 125.847C43.1623 125.553 43.1051 125.261 43.0374 124.971C42.7156 123.609 42.127 122.275 41.3351 121.12C40.9519 120.559 41.0006 119.808 41.4558 119.303C41.911 118.797 42.6542 118.67 43.2512 118.994C44.9281 119.901 46.6621 120.841 48.4639 121.158C48.7878 121.215 49.116 121.254 49.4442 121.294C50.1768 121.38 50.9326 121.471 51.7139 121.73C53.6194 122.358 55.2031 123.93 55.8446 125.83C56.3358 127.284 56.5179 130.176 54.9109 131.751C54.2969 132.352 53.3907 132.65 52.1352 132.65ZM45.6712 123.422C45.7581 123.71 45.8364 124.002 45.9063 124.296C45.9825 124.618 46.0481 124.946 46.1138 125.274C46.2831 126.126 46.444 126.931 46.8061 127.542C47.2994 128.376 48.303 129.027 49.5628 129.328C51.968 129.903 52.7492 129.669 52.8805 129.618C53.2764 129.165 53.3717 127.709 53.0541 126.774C52.7026 125.733 51.8346 124.872 50.7908 124.527C50.2911 124.362 49.711 124.292 49.097 124.22C48.7159 124.173 48.3326 124.127 47.9558 124.061C47.166 123.922 46.4059 123.697 45.6734 123.424L45.6712 123.422Z" fill="var(--fill-0, #FF6900)"/>
<path id="Vector_50" d="M109.936 183.773C109.559 183.773 109.182 183.629 108.897 183.343C108.321 182.77 108.319 181.837 108.894 181.261C122.142 167.988 129.095 148.911 127.492 130.231C127.423 129.421 128.024 128.708 128.835 128.638C129.644 128.573 130.359 129.169 130.429 129.98C132.106 149.512 124.835 169.461 110.98 183.339C110.692 183.627 110.315 183.771 109.936 183.771V183.773Z" fill="var(--fill-0, #FF6900)"/>
<path id="Vector_51" d="M114.457 175.491C113.993 175.491 113.536 175.271 113.248 174.863C108.12 167.537 107.023 157.468 110.455 149.209C114.042 140.576 121.973 134.421 128.346 129.474C128.987 128.975 129.915 129.091 130.412 129.734C130.912 130.375 130.795 131.302 130.152 131.799C123.734 136.78 116.464 142.423 113.173 150.337C110.118 157.688 111.094 166.651 115.661 173.172C116.127 173.839 115.966 174.757 115.299 175.222C115.043 175.402 114.747 175.489 114.457 175.489V175.491Z" fill="var(--fill-0, #FF6900)"/>
<path id="Vector_52" d="M115.157 176.494C114.38 176.494 113.73 175.885 113.688 175.1C113.644 174.287 114.268 173.595 115.081 173.551C124.249 173.062 132.904 166.355 135.661 157.603C138.417 148.852 135.17 138.399 127.937 132.749C127.296 132.248 127.183 131.323 127.683 130.682C128.185 130.041 129.11 129.929 129.752 130.428C137.918 136.808 141.585 148.608 138.47 158.488C135.358 168.367 125.587 175.938 115.238 176.49C115.21 176.49 115.185 176.49 115.157 176.49V176.494Z" fill="var(--fill-0, #FF6900)"/>
<path id="Vector_53" d="M106.187 244.369C106.072 244.369 105.954 244.356 105.837 244.327C105.047 244.134 104.563 243.339 104.755 242.547C113.394 207.088 137.63 175.375 169.588 157.717C170.299 157.324 171.197 157.582 171.591 158.293C171.984 159.004 171.726 159.901 171.015 160.295C139.764 177.563 116.066 208.572 107.618 243.245C107.455 243.918 106.851 244.369 106.189 244.369H106.187Z" fill="var(--fill-0, #FF6900)"/>
<path id="Vector_54" d="M133.63 205.798C130.277 205.798 127.156 205.459 125.225 204.547C123.931 203.936 123.148 203.077 122.902 201.993C122.394 199.772 125.013 197.397 141.873 189.202C143.215 188.551 144.276 188.034 144.706 187.8C151.144 184.281 159.778 182.73 166.189 183.94C166.634 184.025 167.015 184.306 167.223 184.706C167.432 185.106 167.445 185.58 167.259 185.993C163.609 194.065 156.791 200.559 148.551 203.819C146.762 204.651 139.802 205.798 133.632 205.798H133.63ZM125.934 201.547C126.044 201.644 126.218 201.763 126.483 201.887C130.742 203.898 145.038 202.285 147.299 201.155C147.337 201.136 147.378 201.117 147.418 201.102C154.354 198.371 160.191 193.136 163.691 186.574C158.21 186.1 151.278 187.569 146.118 190.387C145.625 190.656 144.591 191.16 143.16 191.856C132.953 196.818 127.166 200.074 125.934 201.549V201.547Z" fill="var(--fill-0, #FF6900)"/>
<path id="Vector_55" d="M128.801 196.257C128.447 196.257 128.092 196.13 127.81 195.874C127.209 195.326 127.164 194.395 127.713 193.794C129.631 191.687 129.555 188.293 129.226 185.25L129.167 184.704C128.803 181.38 128.39 177.611 130.177 174.391C130.558 173.705 131.407 173.439 132.112 173.782C132.817 174.124 133.129 174.96 132.822 175.68C132.368 176.744 133.243 178.187 133.639 178.758C133.88 179.107 134.147 179.45 134.429 179.814C135.191 180.798 135.978 181.814 136.436 183.111C137.562 186.312 135.887 190.172 132.779 191.538C132.517 191.653 132.239 191.687 131.977 191.648C131.625 193.149 130.986 194.573 129.891 195.775C129.601 196.094 129.201 196.257 128.801 196.257ZM131.816 181.251C131.865 182.283 131.979 183.339 132.093 184.382L132.153 184.932C132.269 186.018 132.358 187.188 132.341 188.379C133.556 187.389 134.168 185.552 133.652 184.086C133.353 183.238 132.743 182.451 132.095 181.617C132.002 181.496 131.907 181.373 131.812 181.251H131.816Z" fill="var(--fill-0, #FF6900)"/>
<path id="Vector_56" d="M150.884 173.439C149.91 173.439 148.04 173.018 146.942 170.077C145.504 166.23 146.128 161.689 148.538 158.511C149.491 157.252 150.645 156.24 151.758 155.263C152.686 154.45 153.56 153.682 154.288 152.811C155.597 151.245 156.418 149.268 156.668 147.231C156.221 145.866 156.054 144.427 156.56 142.938C156.774 142.311 157.377 141.901 158.038 141.941C158.699 141.979 159.253 142.451 159.395 143.096C159.662 144.319 159.747 145.587 159.66 146.841C159.948 147.567 160.339 148.323 160.74 149.093C161.906 151.342 163.23 153.894 162.296 156.615C161.714 158.308 160.426 159.444 159.289 160.445C158.527 161.118 157.805 161.752 157.356 162.478C156.734 163.485 156.554 164.795 156.363 166.179C156.281 166.786 156.194 167.415 156.067 168.041C155.48 170.936 153.365 173.253 151.146 173.428C151.07 173.435 150.983 173.439 150.888 173.439H150.884ZM158.582 151.344C158.07 152.554 157.388 153.691 156.55 154.696C155.675 155.743 154.672 156.623 153.702 157.474C152.652 158.397 151.659 159.266 150.886 160.286C149.071 162.681 148.608 166.12 149.7 169.044C149.832 169.395 150.302 170.54 150.909 170.491C151.593 170.436 152.817 169.228 153.175 167.457C153.283 166.922 153.359 166.367 153.439 165.779C153.662 164.15 153.892 162.468 154.845 160.927C155.525 159.829 156.446 159.017 157.335 158.234C158.324 157.364 159.175 156.611 159.505 155.656C159.948 154.372 159.361 152.904 158.58 151.342L158.582 151.344Z" fill="var(--fill-0, #FF6900)"/>
<path id="Vector_57" d="M148.045 178.47C147.589 178.47 147.153 178.432 146.753 178.335C145.426 178.011 145 177.26 144.879 176.685C144.572 175.246 145.91 174.211 147.09 173.297L147.257 173.168C148.449 172.239 149.874 171.471 151.491 170.885C153.863 170.024 156.334 169.636 158.724 169.262C159.209 169.186 159.694 169.11 160.179 169.031C166.971 167.912 173.629 165.978 179.964 163.289C180.46 163.079 181.029 163.153 181.451 163.488C181.874 163.82 182.082 164.355 181.993 164.886C181.23 169.482 177.589 173.667 172.49 175.809C167.881 177.745 162.87 177.92 158.533 177.935C157.89 177.935 157.246 177.935 156.603 177.935C155.332 177.931 154.017 177.927 152.734 177.956C152.256 177.967 151.585 178.071 150.875 178.181C149.92 178.327 148.942 178.477 148.045 178.477V178.47ZM178.135 167.199C172.488 169.361 166.623 170.95 160.657 171.934C160.166 172.015 159.673 172.093 159.179 172.169C156.825 172.537 154.6 172.884 152.497 173.65C151.195 174.124 150.058 174.729 149.12 175.449C149.558 175.396 150.014 175.326 150.429 175.263C151.235 175.138 151.995 175.021 152.664 175.007C153.988 174.975 155.322 174.979 156.611 174.983C157.248 174.985 157.886 174.985 158.523 174.983C162.573 174.971 167.24 174.812 171.349 173.087C173.858 172.034 176.647 170.024 178.135 167.197V167.199Z" fill="var(--fill-0, #FF6900)"/>
<path id="Vector_58" d="M175.12 162.042C173.25 162.042 171.432 161.348 170.032 160.434C168.929 159.715 168.199 158.547 167.917 157.057C167.538 155.053 168.029 152.654 169.143 151.088C171.089 148.35 174.974 147.294 177.983 148.684C179.431 149.353 180.619 150.508 181.326 151.937C182.804 154.918 181.781 158.904 179.048 160.819C177.803 161.691 176.45 162.042 175.12 162.042ZM175.12 151.014C173.752 151.014 172.346 151.666 171.544 152.796C170.993 153.568 170.551 155.134 170.811 156.511C170.902 156.987 171.121 157.628 171.644 157.971C173.157 158.959 175.56 159.668 177.356 158.411C178.92 157.315 179.53 154.95 178.685 153.246C178.281 152.43 177.574 151.742 176.748 151.361C176.242 151.128 175.685 151.016 175.122 151.016L175.12 151.014Z" fill="var(--fill-0, #FF6900)"/>
<path id="Vector_59" d="M122.906 233.108C122.445 233.108 121.99 232.89 121.702 232.484C117.431 226.439 117.124 217.647 120.876 208.967C123.048 203.944 126.214 199.441 129.275 195.089C130.618 193.18 132.004 191.208 133.275 189.234C140.965 177.296 145.606 163.568 150.096 150.293L163.352 111.095C163.613 110.325 164.449 109.912 165.22 110.172C165.99 110.433 166.403 111.268 166.143 112.039L152.887 151.236C148.341 164.681 143.639 178.585 135.752 190.827C134.448 192.852 133.044 194.85 131.685 196.782C128.708 201.014 125.631 205.389 123.58 210.135C120.237 217.867 120.436 225.588 124.107 230.787C124.577 231.451 124.418 232.37 123.753 232.839C123.495 233.021 123.199 233.108 122.904 233.108H122.906Z" fill="var(--fill-0, #FF6900)"/>
<path id="Vector_60" d="M163.799 115.479C163.208 115.479 162.652 115.122 162.425 114.54C162.131 113.782 162.508 112.929 163.266 112.635C166.41 111.417 168.9 109.641 170.464 107.498C172.241 105.069 172.833 102.026 172.012 99.561C171.15 96.9732 168.559 95.109 166.107 95.3143C163.418 95.5407 161.011 98.3105 160.85 101.362C160.697 104.241 162.215 107.31 164.909 109.567C165.531 110.09 165.614 111.019 165.091 111.641C164.568 112.263 163.638 112.345 163.016 111.823C159.618 108.973 157.708 105.003 157.909 101.205C158.148 96.6875 161.716 92.7265 165.861 92.3774C169.67 92.06 173.515 94.7451 174.809 98.6278C175.925 101.982 175.173 106.044 172.844 109.231C170.947 111.829 168.002 113.954 164.331 115.375C164.155 115.443 163.975 115.475 163.799 115.475V115.479Z" fill="var(--fill-0, #FF6900)"/>
<path id="Vector_61" d="M163.799 137.491C161.872 137.491 160.073 136.922 158.688 135.411C157.098 133.676 156.531 131.977 156.998 130.36C157.983 126.967 163.196 125.549 167 124.514C167.871 124.277 168.624 124.072 169.092 123.901C171.207 123.124 173.028 121.687 174.955 120.166C175.747 119.542 176.564 118.894 177.409 118.295C181.385 115.469 185.342 114.582 188.552 115.801C188.971 115.959 189.295 116.3 189.431 116.728C189.568 117.155 189.503 117.62 189.255 117.993C185.823 123.147 181.91 128.452 176.553 132.328C175.613 133.008 169.211 137.491 163.799 137.491ZM185.539 118.204C183.051 118.204 180.557 119.669 179.115 120.693C178.332 121.251 177.542 121.873 176.78 122.474C174.756 124.072 172.664 125.724 170.108 126.664C169.52 126.88 168.711 127.1 167.773 127.356C165.364 128.012 160.35 129.374 159.827 131.179C159.624 131.878 160.278 132.785 160.86 133.422C163.517 136.325 170.835 132.828 174.824 129.942C179.181 126.789 182.575 122.523 185.552 118.204H185.539Z" fill="var(--fill-0, #FF6900)"/>
<path id="Vector_62" d="M151.288 152.222C150.941 152.222 150.59 152.1 150.31 151.85C146.167 148.166 146.012 142.172 146.289 138.926C146.442 137.136 146.749 135.363 147.043 133.647C147.469 131.181 147.869 128.854 147.852 126.493C147.829 123.204 146.586 118.778 143.162 117.121C142.43 116.768 142.123 115.885 142.478 115.153C142.832 114.421 143.715 114.116 144.445 114.47C149.082 116.713 150.767 122.14 150.797 126.471C150.816 129.095 150.374 131.664 149.944 134.146C149.658 135.801 149.364 137.51 149.222 139.175C148.991 141.873 149.082 146.82 152.266 149.649C152.874 150.189 152.929 151.12 152.387 151.727C152.097 152.055 151.693 152.22 151.286 152.22L151.288 152.222Z" fill="var(--fill-0, #FF6900)"/>
<path id="Vector_63" d="M147.272 145.032C147.2 145.032 147.128 145.026 147.054 145.015C143.958 144.558 141.244 142.059 140.139 138.651C139.336 136.175 139.307 133.34 140.052 129.728C140.264 128.699 140.518 127.675 140.765 126.685C141.185 124.997 141.583 123.401 141.79 121.766C142.085 119.451 141.985 117.121 141.494 114.84C141.322 114.045 141.83 113.262 142.624 113.092C143.421 112.923 144.204 113.429 144.373 114.222C144.932 116.829 145.047 119.491 144.712 122.136C144.483 123.943 144.047 125.697 143.624 127.394C143.385 128.355 143.137 129.349 142.938 130.318C142.301 133.41 142.303 135.767 142.942 137.739C143.569 139.666 145.216 141.763 147.486 142.098C148.29 142.216 148.847 142.965 148.728 143.769C148.621 144.501 147.992 145.026 147.274 145.026L147.272 145.032Z" fill="var(--fill-0, #FF6900)"/>
<path id="Vector_64" d="M148.125 145.083C147.543 145.083 146.952 144.99 146.366 144.789C145.597 144.525 145.188 143.687 145.453 142.916C145.718 142.148 146.556 141.74 147.327 142.004C149.042 142.597 151.089 141.084 151.854 139.36C152.8 137.222 152.592 134.58 152.408 132.25C152.158 129.08 151.9 125.803 150.689 122.915C149.427 119.904 147.181 117.777 144.682 117.223C143.888 117.047 143.387 116.26 143.562 115.466C143.738 114.673 144.526 114.174 145.32 114.347C148.75 115.109 151.773 117.885 153.405 121.776C154.799 125.098 155.089 128.776 155.345 132.017C155.546 134.563 155.796 137.732 154.547 140.551C153.469 142.984 150.894 145.083 148.127 145.083H148.125Z" fill="var(--fill-0, #FF6900)"/>
<path id="Vector_65" d="M109.227 224.634C106.714 224.634 104.198 224.503 101.689 224.236C91.3467 223.138 81.4189 219.807 71.8193 216.587C71.0486 216.329 70.6336 215.493 70.8919 214.723C71.1503 213.952 71.9845 213.536 72.7573 213.796C82.2087 216.966 91.9798 220.245 102.001 221.31C113.817 222.564 125.818 220.717 136.709 215.967C137.454 215.641 138.322 215.982 138.648 216.726C138.974 217.471 138.633 218.339 137.888 218.665C128.841 222.609 119.059 224.636 109.227 224.636V224.634Z" fill="var(--fill-0, #CCCCCC)"/>
</g>
</g>
<defs>
<clipPath id="clip0_0_56">
<rect width="261" height="572" fill="white"/>
</clipPath>
</defs>
</svg>
