<svg preserveAspectRatio="xMidYMid meet" width="449" height="483" overflow="visible" style="display: block;" viewBox="0 0 449 483" fill="none" xmlns="http://www.w3.org/2000/svg">
<g id="Layer_1" clip-path="url(#clip0_0_24)">
<g id="Group">
<path id="Vector" d="M189.049 257.993C187.018 260.143 191.08 282.428 206.09 295.21C221.1 307.993 231.482 309.465 229.677 314.442C227.872 319.418 198.265 324.133 191.495 328.658C184.723 333.184 173.363 365.462 173.363 361.841C173.363 358.22 187.358 327.3 186.455 323.981C185.553 320.663 178.029 318.249 181.641 317.798C185.254 317.344 191.272 324.133 198.044 322.323C204.816 320.514 225.58 311.614 227.988 312.068C230.396 312.521 239.423 341.028 243.186 340.274C246.947 339.521 276.29 324.889 280.654 325.342C285.018 325.796 298.296 349.512 297.28 355.282C296.265 361.052 252.935 373.949 252.761 380.057C252.59 386.165 267.148 494.425 274.257 480.51C281.366 466.596 264.853 415.54 269.367 412.824C273.882 410.11 282.909 411.768 279.45 406.036C275.989 400.303 263.349 394.724 266.059 392.462C268.767 390.199 283.062 367.274 288.027 375.72C292.992 384.166 314.661 456.265 314.359 444.349C314.057 432.433 298.711 366.823 294.498 365.162C290.285 363.504 251.012 383.564 246.346 379.039C241.68 374.513 235.361 351.437 237.467 348.872C239.574 346.307 273.279 334.844 273.58 331.677C273.882 328.509 267.412 309.656 266.509 290.199C265.607 270.741 270.121 237.107 266.509 233.939C262.897 230.772 258.797 241.935 255.75 250.419C252.703 258.903 245.705 252.228 247.399 255.058C249.091 257.885 258.008 261.279 255.524 247.251C253.04 233.224 244.013 237.296 245.705 238.541C247.397 239.785 266.695 226.662 270.081 228.698C273.467 230.734 269.518 248.607 269.855 255.509C270.194 262.41 274.483 251.437 277.303 244.197C280.124 236.958 287.459 234.809 286.896 227.907C286.333 221.005 283.736 212.41 287.798 205.509C291.861 198.607 306.531 186.88 306.081 184.166C305.629 181.452 286.069 163.35 283.812 163.804C281.554 164.257 273.128 175.758 262.294 180.848C251.459 185.937 222.118 193.971 225.429 198.043C228.739 202.115 246.645 221.421 246.344 218.103C246.042 214.784 230.544 204.98 236.261 197.891C241.98 190.803 280.35 191.405 281.102 185.673C281.853 179.94 273.276 176.622 279.448 172.852C285.616 169.083 306.682 188.387 311.197 189.143C315.711 189.896 333.016 174.059 334.218 169.234C335.422 164.408 302.77 131.828 297.052 132.13C291.333 132.432 274.933 146.006 274.933 151.437C274.933 156.867 279.448 161.543 280.652 160.488C281.856 159.432 367.925 45.1016 365.218 57.3201C362.511 69.5385 313.532 121.121 317.255 128.587C320.98 136.053 355.173 124.853 350.434 132.321C345.693 139.788 330.797 145.896 332.152 151.666C333.507 157.436 337.908 161.508 341.292 160.49C344.678 159.472 422.547 72.5925 448.615 64.1084" stroke="var(--stroke-0, #CCCCCC)" stroke-width="3" stroke-miterlimit="10"/>
<path id="Vector_2" d="M171.33 219.871C172.984 216.402 169.748 214.555 159.14 213.65C148.532 212.745 128.331 209.465 117.723 203.808C107.115 198.151 107.115 200.187 107.115 206.184C107.115 212.181 108.92 242.61 105.986 246.795C103.053 250.981 83.0756 250.189 79.9158 247.927C76.756 245.664 77.5453 189.102 80.9314 187.18C84.3174 185.257 105.76 195.777 103.39 198.153C101.019 200.53 21.9831 167.271 20.0273 167.873C18.0716 168.475 51.4748 184.164 52.3798 189.594C53.2822 195.024 46.3618 197.287 49.6724 200.454C52.9831 203.621 67.2765 198.191 64.8708 204.375C62.4626 210.558 53.8855 210.861 55.8413 214.63C57.797 218.4 75.1019 235.897 72.392 236.502C69.6847 237.104 -4.94965 220.514 1.66915 226.849C8.29047 233.183 77.0551 240.876 101.431 240.123C125.807 239.37 140.503 254.576 143.112 253.095C147.627 250.53 169.633 222.25 171.438 222.928" stroke="var(--stroke-0, #CCCCCC)" stroke-width="3" stroke-miterlimit="10"/>
<path id="Vector_3" d="M77.7464 468.526C83.8398 465.132 116.68 390.131 119.729 390.131C122.778 390.131 163.63 410.607 164.985 412.869C166.34 415.132 139.48 485.041 138.578 475.992C137.675 466.941 151.745 437.304 149.487 430.518C147.23 423.73 110.064 430.971 115.33 425.088C120.596 419.207 153.248 427.048 150.239 420.562C147.23 414.076 120.596 400.2 125.712 399.446C130.828 398.693 163.63 416.641 167.843 414.379C172.056 412.116 188.909 379.538 188.308 377.275C187.707 375.012 145.573 351.331 136.996 350.578C128.419 349.824 113.296 384.93 116.909 386.512C120.521 388.097 147.041 346.355 155.618 328.028C164.196 309.702 163.482 307.59 176.873 303.972C190.263 300.351 199.856 296.014 198.617 294.772C197.377 293.53 166.453 305.406 156.521 306.65C146.589 307.895 145.686 307.215 143.429 309.591C141.172 311.967 131.016 322.827 129.209 322.374C127.404 321.92 107.992 300.202 103.251 299.184C98.5103 298.166 72.2161 311.176 73.571 312.307C74.9259 313.439 111.265 332.443 107.653 346.697C104.041 360.952 32.267 405.862 36.103 400.205C39.939 394.548 71.5399 374.412 74.4734 367.4C77.407 360.387 63.1891 360.16 66.3489 355.635C69.5087 351.109 82.3743 347.264 75.6021 343.417C68.83 339.571 10.8244 365.815 13.3055 359.027C15.7891 352.238 72.9727 321.822 77.5579 319.66C82.143 317.498 110.061 343.943 113.07 350.58C116.079 357.217 111.265 360.082 113.07 358.424C114.875 356.766 132.932 333.085 131.727 330.218C130.523 327.353 104.641 307.442 105.094 303.974C105.546 300.505 118.937 296.433 131.426 279.842C143.914 263.252 144.367 255.559 155.05 245.001C165.734 234.443 167.463 232.896 169.045 231.314C170.626 229.729 175.138 232.559 171.415 241.494C167.69 250.431 157.421 260.838 159.002 257.784C160.583 254.73 173.109 249.073 173.954 249.242" stroke="var(--stroke-0, #CCCCCC)" stroke-width="3" stroke-miterlimit="10"/>
</g>
<path id="Vector_4" d="M171.443 222.925C173.248 223.603 177.086 232.314 177.762 246.455C178.439 260.596 176.973 259.465 185.211 267.158C193.448 274.851 191.078 255.846 189.047 257.996" stroke="var(--stroke-0, #CCCCCC)" stroke-width="4" stroke-miterlimit="10"/>
<path id="Vector_5" d="M175.11 247.982C175.958 248.151 174.716 255.204 174.565 260.18C174.414 265.157 181.186 262.594 183.142 256.26C185.098 249.925 183.142 231.067 187.355 229.636C191.568 228.204 220.308 271.116 226.178 269.42C232.045 267.725 208.574 235.711 209.25 234.466C209.926 233.221 238.48 267.047 242.993 261.841C247.507 256.638 213.312 227.564 217.714 225.869C222.116 224.173 243.106 254.037 248.297 250.643C253.488 247.249 224.071 221.721 226.027 219.609C227.983 217.498 245.466 236.502 248.913 232.279C252.359 228.056 220.761 196.458 204.962 187.633C189.162 178.809 181.714 165.008 177.652 160.709C173.59 156.411 151.694 173.379 144.699 172.474C137.703 171.57 100.911 137.406 102.266 131.976C103.621 126.546 140.184 109.578 139.96 101.658C139.734 93.7385 79.9208 -3.32108 80.3733 1.43124C80.8258 6.18355 97.3011 49.1686 96.8512 58.4464C96.3987 67.7217 83.7594 71.3427 87.5979 72.9251C91.434 74.51 113.103 71.5669 107.912 77.2239C102.721 82.8808 88.4551 82.2004 91.6376 88.0841C94.82 93.9653 114.005 103.47 111.522 109.351C109.038 115.232 52.3848 57.0883 48.775 52.7895C45.1627 48.4907 97.9799 125.642 101.59 124.737C105.202 123.832 140.863 97.813 145.377 96.0038C149.892 94.1946 179.384 145.702 177.881 150.378C176.375 155.055 173.818 156.411 172.313 155.355C170.807 154.299 145.83 111.012 145.83 118.1C145.83 125.188 166.895 150.529 165.691 154.299C164.487 158.069 163.886 161.841 158.62 160.634C153.354 159.427 129.427 117.044 129.427 123.681C129.427 130.318 153.653 159.729 152.75 162.745C151.848 165.762 154.256 168.176 147.786 166.969C141.315 165.762 113.779 127.451 114.983 132.579C116.187 137.706 149.14 171.945 157.567 181.75C165.993 191.554 169.681 223.341 171.335 219.871" stroke="var(--stroke-0, #FF6900)" stroke-width="3" stroke-miterlimit="10"/>
</g>
<defs>
<clipPath id="clip0_0_24">
<rect width="449" height="483" fill="white"/>
</clipPath>
</defs>
</svg>
