<svg width="444" height="286" viewBox="0 0 444 286" fill="none" xmlns="http://www.w3.org/2000/svg">
<path d="M0.603515 243.312C0.603515 243.312 49.8458 205.905 96.7435 245.404C143.641 284.904 179.856 288.042 175.818 283.335C171.78 278.626 111.334 260.184 120.843 251.944C130.353 243.705 245.383 197.534 239.911 195.835C234.44 194.135 241.866 216.892 257.498 227.486C273.131 238.08 273.739 240.609 263.491 247.149C253.243 253.689 178.163 282.681 180.117 280.065C182.071 277.449 242.256 255.214 235.873 251.682C229.49 248.151 186.761 233.371 195.489 232.063C204.217 230.755 252.418 248.674 250.724 242.658C249.031 236.641 227.854 214.392 230.17 215.496C232.486 216.601 251.014 231.657 254.256 231.947C257.498 232.237 266.965 226.222 266.27 224.216C265.575 222.211 239 198.668 242.3 198.406C245.6 198.145 263.925 221.948 269.947 224.622C275.968 227.297 277.039 222.385 276.214 221.512C275.389 220.64 269.744 215.583 269.657 216.542C269.57 217.501 274.607 223.605 280.253 222.602C285.897 221.6 285.897 218.112 285.594 217.109C285.29 216.107 281.425 212.357 281.295 212.575C281.165 212.792 283.249 219.376 289.632 218.329C296.015 217.283 297.579 213.534 297.492 212.662C297.406 211.79 295.191 206.165 294.322 206.951C293.453 207.736 295.755 214.1 299.88 213.665C304.006 213.23 306.741 204.989 301.748 199.365C296.754 193.741 281.035 179.659 280.687 180.443C280.339 181.228 284.248 183.059 296.002 176.142C307.755 169.225 314.008 158.122 318.524 152.6C323.04 147.078 329.669 144.563 329.236 144.04C328.801 143.516 325.414 149.14 327.889 148.356C330.365 147.571 337.573 139.375 347.387 133.707C357.2 128.04 362.585 133.417 362.411 135.568C362.238 137.718 354.363 143.357 355.464 142.253C356.564 141.148 359.641 138.009 362.416 139.986C365.191 141.962 365.248 146.206 364.554 149.112C363.859 152.018 357.606 155.971 358.996 154.75C360.385 153.53 362.18 149.518 365.364 151.611C368.549 153.704 368.606 157.831 366.638 160.854C364.669 163.877 358.822 168.237 359.922 167.016C361.022 165.795 364.611 159.169 367.101 162.598C369.591 166.028 367.449 170.911 362.643 174.224C357.837 177.538 345.157 189.164 334.678 191.838C324.199 194.512 323.504 194.396 316.382 198.232C309.261 202.069 306.944 202.243 305.728 201.313C304.512 200.384 286.332 179.137 282.033 175.737C277.735 172.336 264.1 170.113 259.713 167.322C255.328 164.532 253.417 163.529 259.366 161.306C265.315 159.083 275.433 155.463 272.957 157.077C270.482 158.69 261.363 162.527 252.418 165.317C243.473 168.107 224.843 173.121 224.786 174.749C224.728 176.376 238.565 194.223 239.434 192.827C240.303 191.432 226.146 173.6 222.977 173.077C219.807 172.554 216.029 173.731 212.469 171.464C208.908 169.197 208.749 166.261 209.327 166.261C209.906 166.261 218.446 164.663 218.012 165.389C217.578 166.116 209.849 168.674 204.783 164.169C199.717 159.663 205.796 155.246 207.764 156.496C209.733 157.746 202.67 159.635 198.79 154.171C194.911 148.707 202.062 144.376 202.293 145.625C202.524 146.874 196.271 150.305 193.117 145.044C189.961 139.783 195.838 134.202 202.641 133.098C209.444 131.994 230.23 127.562 227.971 129.175C225.713 130.787 220.097 112.724 214.944 109.934C209.791 107.143 189.237 120.804 179.163 128.651C169.088 136.498 174.646 140.946 174.777 138.897C174.907 136.847 104.431 52.4859 111.205 51.5706C117.979 50.6554 140.429 89.2387 139.387 81.5658C138.344 73.8928 122.017 54.7971 129.226 53.3149C136.434 51.8327 159.796 71.0156 166.657 66.8303C173.518 62.6451 163.618 28.0591 167.091 30.3105C170.565 32.562 213.729 110.427 216.073 106.242C218.418 102.057 197.633 109.875 189.816 117.374C182 124.872 185.011 125.163 188.658 129.232C192.305 133.301 193.449 135.321 194.839 135.06C196.228 134.798 197.31 129.978 210.862 129.566C224.414 129.155 224.801 124.727 231.011 124.945C237.221 125.163 256.515 129.639 258.368 130.453C260.221 131.266 253.418 117.794 253.157 118.798C252.896 119.801 260.843 136.498 265.099 143.43C269.354 150.362 275.39 156.117 278.43 156.335C281.47 156.553 282.686 155.333 282.729 154.417C282.772 153.501 278.907 146.613 278.69 147.223C278.474 147.833 280.818 156.117 288.027 156.291C295.236 156.465 292.803 150.1 292.673 149.664C292.543 149.227 290.155 145.391 289.851 146.524C289.547 147.658 291.588 154.459 299.231 153.369C306.873 152.279 305.657 148.094 305.745 147.222C305.831 146.35 303.574 142.949 303.312 143.428C303.052 143.908 304.789 151.494 309.695 150.927C314.602 150.36 316.209 143.08 313.517 137.805C310.825 132.529 297.624 116.848 297.971 115.977C298.318 115.105 320.812 108.246 319.162 108.071C317.512 107.896 310.825 109.989 318.033 125.771C325.241 141.554 331.233 142.6 328.107 140.595C324.98 138.589 319.943 143.472 316.122 138.066C312.3 132.66 303.008 113.477 297.623 109.029C292.239 104.582 290.806 102.402 295.539 100.31C300.272 98.2171 310.086 95.1649 308.609 96.2551C307.133 97.3454 295.105 103.928 282.512 107.416C269.919 110.904 259.454 115.786 252.593 113.214C245.732 110.641 246.731 107.764 247.339 107.59C247.947 107.416 258.064 106.108 257.37 106.936C256.675 107.764 243.952 109.813 242.172 104.102C240.391 98.3913 250.639 95.9059 249.076 97.7809C247.513 99.6558 235.571 99.5687 234.79 93.7262C234.008 87.8838 238.828 85.3993 238.958 87.3613C239.088 89.3233 228.753 90.7619 229.405 84.2654C230.056 77.769 237.352 76.4618 245.254 73.5837C253.158 70.7065 269.528 68.1776 265.099 69.9654C260.669 71.7532 262.667 63.0335 259.454 62.6843C256.24 62.3351 210.342 73.1475 210.863 78.9028C211.384 84.6573 179.207 27.8935 183.376 24.2316C187.545 20.5697 204.61 36.1333 212.297 33.9101C219.983 31.6868 208.128 11.021 220.374 13.1145C232.619 15.2071 238.091 34.6956 242.65 28.5483C247.21 22.4011 241.739 1.86669 241.739 8.9292C241.739 15.9917 263.364 56.4073 261.54 58.6306C259.716 60.8538 231.215 66.3906 231.215 67.2051C231.215 68.0196 232.431 75.9248 234.11 75.6917C235.789 75.4587 257.269 65.8681 266.649 65.4608C276.029 65.0536 287.84 70.0533 293.861 68.3671C299.883 66.6817 312.446 61.74 310.246 62.0892C308.047 62.4384 307.004 66.6817 308.973 73.308C310.941 79.935 309.378 89.6426 314.763 99.6993C320.147 109.756 320.727 102.897 322.116 115.045C323.506 127.195 332.306 144.111 330.917 142.832C329.527 141.553 348.287 130.043 352.686 129.578C357.086 129.113 357.261 130.334 356.797 129.986C356.334 129.637 348.822 111.21 351.297 101.008C353.772 90.8063 359.982 82.2616 356.855 76.245C353.728 70.2284 350.776 78.3666 352.165 77.4369C353.555 76.5071 352.107 51.627 346.491 45.3491C340.876 39.0712 336.301 40.9897 336.359 46.6861C336.417 52.3826 339.023 58.6613 338.212 55.4639C337.402 52.2664 335.839 44.3032 328.428 48.6626C321.017 53.022 327.559 63.428 326.69 60.2886C325.822 57.1492 324.317 49.9996 319.221 53.4874C314.127 56.9751 317.079 72.8444 317.832 70.6937C318.584 68.543 316.964 58.254 313.779 60.5208C310.594 62.7876 309.668 68.9494 311.521 73.658C313.374 78.3666 315.226 79.3545 314.069 83.7728C312.911 88.1903 312.506 89.6443 314.417 88.2492C316.328 86.8541 314.765 79.8206 320.902 81.9133C327.039 84.0059 334.681 84.122 341.746 78.1344C348.809 72.1468 368.205 70.8098 370 69.0664C371.795 67.3221 351.531 39.7687 348.983 41.0477C346.435 42.3267 347.999 44.8266 353.267 37.7922C358.536 30.7588 410.007 -1.62016 413.308 1.17C416.608 3.96017 403.06 17.7368 410.007 18.086C416.955 18.4352 429.462 8.84297 428.419 14.7725C427.376 20.702 417.303 42.3258 420.082 49.1271C422.861 55.9283 439.71 45.9877 439.536 50.348C439.363 54.7074 384.475 86.2727 381.522 84.1801C378.57 82.0874 368.582 61.4224 370.145 61.7708C371.708 62.12 380.741 72.9314 376.224 80.3431C371.708 87.7549 353.731 93.5094 356.423 90.4579C359.115 87.4065 368.669 81.8253 387.08 87.5807C405.492 93.3352 404.102 71.6243 409.66 74.937C415.219 78.2505 421.732 89.6733 423.73 86.0977C425.728 82.5229 434.412 57.9339 437.625 62.9908C440.839 68.0478 440.926 123.853 442.575 118.447C444.225 113.041 371.968 149.663 369.102 146.175C366.236 142.687 367.105 139.2 367.973 140.508C368.841 141.816 370.492 165.184 372.75 171.985C375.007 178.786 412.786 257.959 411.484 252.204C410.181 246.449 357.812 268.16 351.038 261.883C344.263 255.605 325.244 191.777 330.976 195.963C336.708 200.148 344.525 237.294 352.08 239.909C359.636 242.525 391.682 228.138 388.035 234.677C384.388 241.217 345.827 250.111 353.383 252.726C360.939 255.342 422.687 232.584 435.975 243.308" stroke="#FF6900" stroke-width="2" stroke-miterlimit="10"/>
</svg>
