<?xml version="1.0" encoding="UTF-8"?>
<svg id="Layer_1" xmlns="http://www.w3.org/2000/svg" version="1.1" viewBox="0 0 541.05 257.02">
  <!-- Generator: Adobe Illustrator 30.5.1, SVG Export Plug-In . SVG Version: 2.1.4 Build 3)  -->
  <defs>
    <style>
      .st0 {
        fill: #ff6900;
      }
    </style>
  </defs>
  <path class="st0" d="M33.91,63.44h0l.07-.08s-.07.04-.1.06c0,0,0,0,0,0-.06.03-.11.06-.16.1,0,0,0,0,0,0,.06-.03.11-.07.16-.1-.23-.16-.45-.31-.67-.47-.71-.47-1.59-.84-2.09.01-.78,1.31.83.65,1.08,1.1.38.69,2.34,1.3.08,2.26-.97.41-.78,1.82-.39,2.53.49.88.95.17,1.31-.46.21-.37.4.17.59.29.44.27.67,1.07,1.4.59.75-.5.52-1.26.39-1.96-.11-.55-.31-1.09-.46-1.63h0s0,0,0,0c.05-.05.1-.09.15-.14l-.15.13c-.4-.75-.8-1.5-1.2-2.24,0,0,0,0,0,0ZM32.56,67.14c-.24.19-.32.85.05.93.16.03.33.06.49.09-.17-.03-.33-.05-.5-.09-.36-.08-.29-.73-.05-.93,1.69-1.34.81-2.58-.38-3.88,0,0,0,0,0,0,1.19,1.3,2.07,2.54.38,3.88ZM34.47,68.37s0,0,0,0c-.15-.03-.29-.05-.44-.07.15.02.3.04.45.07Z"/>
  <path class="st0" d="M143.64,36.69s-.01.08-.02.12h0s.06-.05.08-.08c-.02-.01-.04-.03-.06-.04Z"/>
  <path class="st0" d="M320.12,239.01c-5.71-4.32-12.04-7.8-15.54-14.62-2.58-5.03-5.28-10.03-8.92-14.51-4.18-5.15-7.64-10.88-11.8-16.04-3.94-4.9-8.18-9.56-11.75-14.75h.01s.04.04.05.04c-.01-.01-.03-.03-.04-.04h0s0,0,0,0c-3.8-3.98-7.65-7.9-12.38-10.86-3.61-2.26-7.09-4.57-11.67-4.3-2.22.13-4.43.1-6.72-.28-6.6-1.1-12.78.41-18.27,4.38-.45.33-.8.99-1.43.65-.51-.27-.73-.93-.66-1.49.23-1.84.17-3.84.94-5.44.67-1.39-1.1-3.84,1.76-4.24.09-.01.23-.25.2-.35-.69-2.36.6-4.45,1.03-6.61.39-1.95-.37-4.1.79-5.83,2.16-3.19,3.49-6.69,4.28-10.41.2-.95.6-1.49,1.5-1.49,3.45-.04,6.14-2.11,9.14-3.34.53-.22,1.39-.69,1.06-1.11-1.44-1.84.64-1.65,1.22-2.26,1.15-1.22,3.32-1.83,2.35-4.22-1.11-1.99.39-3.62.85-5.35.73-2.73,1.89-5.35,2.73-8.05.9-2.88.44-3.37-2.56-3.91-1.93-.35-3.86-.42-5.92-.41.05-1.34.76-2.45,1.09-3.62.56-2,.23-3.82-.33-5.67-.14-.46-.13-1.39-.95-1.11-.74.24-.67.95-.38,1.64.92,2.18.49,4.33-.25,6.46-.54,1.56-1.32,2.62-3.26,2.35-1.42-.2-2.88-.15-4.08.86-.84,2.63-2.17,5.11-2.39,7.93-.07.93-.66,1.33-1.46,1.58-.88.27-1.79.49-2.62.86-2.28,1.01-3.09,2.64-2.74,5.14.1.69.26,1.06,1.03,1.01.88-.07.89-.55.66-1.18-.75-2.07.41-2.97,2.14-3.66,2.87-1.14,5.71-2.37,8.9-2.13.36.03.73,0,1.07.09.18.04.33.26.57.48-2.51,2.46-5.77,3.39-8.9,4.51-1.07.38-2.06.74-1.81,1.93.26,1.17,1.49.92,2.38.86,1.72-.11,2.96-1.35,4.41-2.08,2.44-1.23,4.85-2.6,7.86-1.3-1.77,1.29-3.79,1.86-5.6,2.8-2.22,1.16-4.44,2.3-6.65,3.47-.55.29-1.29.63-.99,1.41.3.77,1.06.95,1.83.76,2.02-.5,3.97-1.19,5.81-2.18,2.39-1.27,5.04-1.46,7.63-2.04-1.26,1.76-3.23,2.45-4.9,3.56-.71.47-2.73.33-1.53,2.27.15.24-.53.62-.95.75-1.7.54-3.37,1.26-5.12,1.52-1.33.19-1.91.69-2.17,1.91-.97,4.59-2.89,8.71-5.7,12.52-3,4.07-6.89,4.2-9.66-.01-1.52-2.31-3.22-4.48-3.36-7.48-.13-2.69,1.55-4.03,3.36-5.34,2.39-1.72,5.08-2.92,7.43-4.75,1.72-1.34,2.23-3.23,3.23-4.91.51-.84.12-1.62-.8-1.33-3.4,1.05-6.42-.67-9.61-1.09-.56-.08-1.1-.3-1.59-.43,2.14-7.7,4.9-15.14,9.27-21.93,1.49-2.31,3.56-4.25,4.46-6.96.24-.74,2.62-.57,3.05.21.41.74.66,1.57,1.01,2.34.46.99.94,1.98,2.31,1.84,0,0,0,0,0,0,.15.09.29.17.44.25,0,0,0,0,0,0,1.3.7,2.72.98,4.19,1.04,1.39.06,1.86-.67,1.36-1.91-.48-1.18-1.07-2.32-1.63-3.47-.99-2.05-2.45-3.95-1.67-6.48.23-.74-.08-1.47-.69-2.02,0,0,0,0,0,0,0,0-.04-.03-.06-.06-1.51-5.27-3.29-10.45-5.14-15.61-.09-.25-.07-.54-.1-.81-.59-1.89-1.35-3.76-1.72-5.7-.32-1.7-1.25-2.09-2.57-1.53-1.33.57-3.57.51-2.79,3.12.72,2.38,1.27,4.81,1.97,7.2.15.52.28.77-.4.79-1.98.08-3.64,1.31-5.57,1.61-4.54.72-7.84,3.35-10.34,7.03-1.61,2.36-3.59,3.92-6.51,4.41-2.81.47-5.57,1.23-8.34,1.94-5.05,1.29-10.09,2.65-15.14,3.93-.73.19-1.55.5-2.22-.24-2.22-2.39-5.56-2.42-8.23-3.86-.39-.21-1.02-.42-1.24.31-.17.58.15,1,.67,1.18,1.48.52,2.99.95,4.46,1.5,1.04.39,2.28.55,2.97,1.99-2.64.21-5.07.37-7.5.61-2.23.23-2.94-.4-2.18-2.55.83-2.33.47-4.85,1.42-7.14.11-.26-.38-.62.37-.77,3.3-.65,5.75-2.81,7.39-5.44,3.87-6.24,4.82-13.2,3.81-20.41-.55-3.95-2.82-7.63-1.88-11.82.06-.25-.11-.56-.15-.84-.54-3.31-2.55-5.84-4.5-8.38-6.39-8.29-15.16-9.2-23.67-3.57-1.37.9-2.43,2.27-3.78,3.2-5.59,3.84-9.01,9.23-10.91,15.56-1.12,3.73-.14,7.87-1.83,11.57-.51,1.11-.68,2.32-.81,3.54-.33,3.06-1.29,5.7-4.7,6.61-1.27.34-2.12,1.4-2.48,2.44-.28.82-.72,1.35-1.25,1.88-5.28,5.23-6.88,11.5-5.62,18.73.77,4.43-.3,8.39-5.38,10.43-.86.35-1.69.78-2.51,1.22-1.56.84-1.96,2.16-.99,3.58,1.47,2.19,2.82,4.61,5.57,5.48.99.32.47.83.44,1.3-.12,2.35.55,2.98,2.98,3.11,2.44.13,4.54-1.14,7.01-1.6-.37,3.88-1.52,7.44-3.08,10.9-.99,2.2-1.96,4.4-2.63,6.75-1.54,5.47-2.95,11-5.13,16.26-1.54,3.71-1.32,4.79,2.41,5.8.91.24.95.41.63,1.25-.98,2.58-2.04,5.08-1.44,8.06.43,2.15-.06,4.47.12,6.7.4,5.21,1.9,9.99,6.24,13.37,3.16,2.47,6.48,4.74,9.64,7.21,4.21,3.29,8.87,5.59,13.93,7.33,6.04,2.08,12.43,3.4,17.74,7.33.98.72,1.67,1.94,2.92,2.14,1.37.22,1.31,1.05,1.23,2.02-.15,2.16-.78,4.21-1.3,6.29-1.56,6.24-2.69,12.58-3.78,18.91-1.04,6.07-3.02,11.88-4.46,17.84-.1.41-1.12,1.17.14,1.48.86.21,1.37-.28,1.55-1.09,1.4-6.18,3.24-12.26,4.42-18.5.89-4.69,1.55-9.41,2.83-14.05,1.37-4.95,2.34-10.06,1.95-15.27-.03-.44.22-1.14-.6-1.11-.49.01-.74.44-.73.92.06,1.7-.66,1.49-1.57.62-4.06-3.88-9.22-5.56-14.4-7.17-6.15-1.91-12.24-3.98-17.49-7.8-3.3-2.4-6.35-5.14-9.79-7.37-3.5-2.27-5.42-5.55-6.41-9.54-.88-3.55-.56-7.15-.79-10.73-.14-2.1.91-2.1,2.31-1.76,2.32.56,4.66.8,7.05.8,3.54,0,7.15-.62,10.56-.28,5.58.55,11.07,2.14,16.54,3.54,6.99,1.79,13.91,2.89,20.79-.33.51-.24.89-.34,1.35.05,1.51,1.27,3.45,1.64,5.2,2.39,4.22,1.79,8.37,3.73,12.64,5.43,6.18,2.46,11.65,5.78,14.45,12.48,3.81,9.12,7.82,18.16,11.35,27.39,2.61,6.84,4.44,13.94,7.38,20.67,2.63,6,4.4,12.32,6.47,18.53.18.54.47,1.03.7,1.56.24.54.67.82,1.21.61.5-.2.35-.77.24-1.15-.43-1.5-.86-3.01-1.41-4.48-3.12-8.47-6.32-16.91-9.4-25.39-1.92-5.28-3.4-10.74-5.59-15.9-2-4.7-3.59-9.54-5.89-14.25,1.89-.23,3.54-.02,5.15-.51.88-.27,1.71.12,2.57.72,2.87,2.02,5.96,3.65,9.41,4.53.64.16,1.33.65,1.61-.26.28-.89-.57-.91-1.16-1.16-2.76-1.16-5.55-2.25-8.14-3.78-3.12-1.83-4.52-4.27-4.6-8.05-.15-6.52,1.88-12.45,3.8-18.56,1.99,2.21,3.03,2.34,5.51.19,4.35-3.77,9.63-3.63,14.87-3.92-3.85,1.24-6.38,4.03-8.51,7.17-1.92,2.84-1.56,6.31-2.06,9.53-.23,1.5.01,2.98,1.57,3.84-.85,1.37-1.7,2.92-1.07,4.43.68,1.63.56,3.21.61,4.84.03.93.14,1.88.39,2.76,1.72,6,4.02,11.76,4.9,18.09,1.1,7.93,2.03,15.91,3.5,23.8.98,5.28,1.96,10.57,2.34,15.94.04.56,0,1.7,1.06,1.56,1.13-.15.62-1.2.54-1.75-1.02-7.3-2.21-14.58-3.16-21.89-.76-5.89-1.76-11.74-2.89-17.57-.7-3.63-.43-7.46-2.11-10.89-1.45-2.98-2.33-6.15-2.92-9.36-.99-5.37,1.39-13.82,8.53-14.85.35-.05.7-.17,1.04-.27,5.08-1.47,9.99-1.08,13.92,2.58,4.2,3.9,6.1,9.22,7.61,14.64.89,3.2.58,6.56,1.34,9.78,0,0,0,0,0,0-.04,7.03-.08,14.05-.12,21.07.3-.16.33-.41.32-.67,0,.26-.02.52-.32.68.12.04.26.14.35.11,0,0,0,0,0,0-.09.04-.23-.07-.36-.11-.39.41-.34.93-.34,1.43-.09,5.04-.46,10.07-.82,15.11-.24,3.52.12,7.07-.47,10.58-.08.45-.39,1.24.52,1.39.95.15.99-.63,1.16-1.23.06-.2.05-.43.04-.65-.29-8.66.84-17.25,1.29-25.88.36-6.9.93-13.81.05-20.87.49.24.92.36,1.23.62,4.32,3.79,8.54,7.69,12.94,11.38,4.1,3.43,7.65,7.41,11.37,11.19,1.84,1.87,3.96,3.65,4.78,6.48,1.1,3.8,3.62,6.54,7.28,8.31,2.5,1.2,4.87,2.63,7.1,4.38,4.14,3.25,8.74,5.55,14.3,4.74.43-.63,1.54-1.11.46-2.07-4.56,1.35-8.52-.05-12.1-2.76-2.85-2.16-5.78-4.18-9.03-5.68-3.7-1.7-5.8-4.73-7.04-8.41-.54-1.59-1.3-2.77-2.6-3.92-2.35-2.08-4.3-4.6-6.53-6.82-4.19-4.15-8.53-8.14-13.05-11.96-2.84-2.4-5.59-4.92-8.49-7.28-1.39-1.13-.79-3.07-.99-4.6-.93-7.07-3.04-13.68-7.71-19.14-2.29-2.68-5.49-4.33-9.23-4.48-5.14-.22-10.02.48-14.23,3.76-.11.09-.25.15-.38.21-.86.38-.92,2.19-2.24,1.54-1.32-.65-.44-2.09-.63-3.15-.37-2.14.12-4.36,1.1-6.05,1.31-2.24,2.34-4.82,4.76-6.35,2.5-1.57,5.26-1.99,8.08-2.58,8.05-1.69,13.33,3.37,18.85,7.53,4.59,3.45,7.95,8.18,11.51,12.69,2.84,3.6,5.68,7.2,8.79,10.6,2.47,2.68,3.95,6.16,6.39,8.92,2.86,3.23,4.57,7.24,7.25,10.57,3.27,4.06,5.23,8.86,7.95,13.22,2.01,3.22,5.29,4.98,8.13,7.22,2.48,1.95,5.25,3.55,7.74,5.5,3.69,2.88,4.89,6.86,4.57,11.39.14.78.2,1.54-.42,2.17.26.42.47.97,1.11.73.51-.19.66-.64.73-1.19.53-4.35-.71-8.32-2.43-12.23-.98-2.22-3.28-2.5-4.9-3.73ZM240.53,121.98h0c-.42.47-.92.53-1.52.3.17-.55.67-.54,1.07-.71,1.25-.83,3.11-1.05,3.11-3.12-1.28-1.76-3.24-1.15-5.18-1.43,1.13-.63,1.51-1.62,1.1-2.59-.42-1-1.54-1.21-2.57-1.24-1.65-.04-3.31-.01-5.11-.01.21-2.28,1.22-4.33,1.78-6.48.25-.95,1.16-1.18,2.09-1.18,4.17-.04,8.35-.15,12.49,1.03-.88,4.11-3.24,7.74-3.94,11.9-.12.47-.34.94-.35,1.42-.08,2.03-1.35,2.3-2.98,2.1ZM217.81,123.38h0c1.24.36,2.44.87,4.03.71-1.68,3.97-5.29,4.98-8.92,6.94.9-2.61,1.6-4.71,2.35-6.79.47-1.31,1.58-1.13,2.54-.85ZM237.21,94.6c.22.59.3,1.04.21,1.37.08-.33,0-.78-.21-1.37h0ZM236.85,95.93c-1.32-.31-2.28-.54-3.23-.76-.08.43-.31.68-.61.85,0,0,0,0,0,0,0,0,0,0,0,0-.29-.04-.59-.06-.88-.06,0,0,0,0,0,0,.3,0,.59.02.89.06.3-.17.53-.42.61-.85-.03,0-.07-.01-.1-.02,0,0,0,0-.01,0-2.11-.43-2.62-2.14-3.21-3.81,1.1-.54,2.84.53,3.24-1.44-.58-.94-.44-2.43-2.05-2.61,0,0,0,0,0,0,1.61.19,1.47,1.67,2.05,2.61.08.15.17.3.25.45,0,0,0,0,0,0,.95,1.73,1.92,3.49,3.07,5.58ZM233.47,88.19c.2.51.22,1.11.36,1.67-.15-.55-.16-1.16-.36-1.67ZM233.53,85.01c-.05-.32-.33-.54-.64-.72.31.18.59.4.64.72ZM231.51,80.69c-1.68-1.26-4.24-1.48-4.79-3.96,4.82-2.44,3.57,2.18,4.79,3.96ZM223.29,63.16h0c-.49-1.19.1-1.55.98-1.87,1.01-.37,1.31.09,1.55,1.06.69,2.76,1.54,5.47,2.37,8.33-1.71.33-2.65-.14-3.05-1.87-.44-1.93-1.1-3.82-1.85-5.65ZM174.89,91.82c2.88-.34,5.64-1.24,8.39-2.05,3.72-1.1,7.51-1.77,11.29-2.56,3.41-.71,6.75-1.84,10.05-2.98,2.53-.87,3.55-3.43,5.15-5.29,2.23-2.6,4.86-4.4,8.23-5.09,3.09-.63,6.14-1.55,9.35-1.31.65.05,1.34-.06,1.72.61.2.36.44.81.38,1.17-.1.55-.69.37-1.09.38-2.45.07-4.94-.22-7.33.48-1.24.37-3.11.54-3.06,2.16.05,1.42,1.78,1.66,3.04,1.89.91.17,1.91.01,2.79.29,3.04.94,6.12,1.83,8.62,3.93.18.16.21.5.3.76,0,0,0,0,0,0,.01.03.03.06.05.09h0c.18.35.5.75.4,1-.17.44-.8.31-1.14.16-1.31-.55-2.69-.89-3.99-1.5-3.09-1.46-6.31-2.63-9.6-3.56-.69-.19-1.79-.49-2.17.34-.53,1.12.79,1.22,1.36,1.46,4.5,1.93,8.98,3.89,13.26,6.29,0,0,0,0,0,0h0c.07.04.14.08.21.11.06.03.14.01.21.01,0,0,0,0,0,0,0,0,0,0,0,.01.45.51,1.34,1.1-.25,1.2-2.33.15-4.57,0-6.73-1.06-3.12-1.54-6.33-2.91-9.24-4.86-.58-.39-1.37-1.01-1.91-.28-.54.72.29,1.29.83,1.75,1.48,1.27,3.27,1.99,5.01,2.82,1.48.7,2.95,1.42,4.19,2.84-1.62.41-2.83-.34-3.97-.87-1.9-.88-3.91-1.38-5.91-1.89-1.02-.26-2.3-.43-3.21-.04-3.82,1.64-7.97,1.66-11.89,2.67-3.4.87-6.55,2.76-9.78,4.28-4.46,2.09-8.72,4.55-13.09,6.8-8.18,4.22-16.41,8.45-25.69,9.91-4.51.71-8.89.99-12.29-3.01-.51-.6-.92-.88-.42-1.69,2.6-4.17,5.46-8.09,9.6-10.93,1.02-.7,2.2-.51,3.23-.64,4.21-.53,8.22-1.99,12.46-2.34,4.23-.35,8.44-.95,12.65-1.45ZM225.09,77.69c-1.65-.06-3.29.31-4.92-.48,2.76-1.29,4.17-1.16,4.92.48ZM230.91,88.3s0,.01,0,.02c0,0,0-.01,0-.02,0,0,0,0,0,0ZM229.31,85.09c-2.66-1.51-5.69-2.1-8.42-3.44,2.73,1.33,5.76,1.92,8.42,3.44ZM162.65,89.91h0c-.08,1.2-.32,1.8-1.56,1.94-2.55.28-5.09.68-7.57,1.43-.69.21-1.48.18-1.35-.96.02-.16-.17-.4-.34-.52-4.04-2.8-5.4-7.73-8.85-10.99-.63-.6-.58-.93.03-1.49,1.85-1.72,3.48-3.62,4.33-6.05.25-.71.49-.83,1.21-.33,3.09,2.16,6.12,4.41,9.54,6.1,1.89.94,3.72,1.82,6.04,1.73-1.06,3.01-1.27,6.08-1.48,9.13ZM135.17,45.65h0c.14,1.25,0,2.31.47,3.31.33.68.41,1.87,1.24,1.65.8-.21.62-1.25.29-2.06-.55-1.37-.59-2.8-.1-4.22.23-2.13.66-4.13,3.18-4.72.36-.08.84-.24.55-.67-1.55-2.2.74-2.5,1.72-3.14,1.8-1.18,3.83-1.82,6.08-1.19.7.19,1.67-.25,1.72-.94.06-.96-.95-.55-1.51-.6-.77-.07-1.56-.02-2.53-.02.83-1.6,2.15-2.33,3.48-2.91,7.11-3.07,14.73-2.63,19.77,5.08,1.04,1.59,2.6,2.84,3.15,4.75.56.55.65,1.25.77,2.1-1.15-.26-.66-1.25-1.11-1.69-2.07-2.27-4.29-4.35-7.02-5.87-1.74-.97-3.52-.89-4.79.3-.85.79-1.35.6-2.08.37-1.84-.57-3.67-1.12-4.96-2.73-.69-.86-1.76-.49-2.33-.05-.74.59-.23,1.56.35,2.05,1.14.96,2.42,1.76,3.65,2.63.5.35,1.13.57.91,1.45-.11.43-.9,1.06.05,1.42.76.29,1.35-.11,1.87-.71.38-.44.28-.94.39-1.42-.26-.34-.52-.68-.76-1.02-.03-.04,0-.14.03-.3,1.4.06,3.06,1.5,4.13-.76.15-.32,1.51-.16,2.29-.07,2.12.25,5.97,4.02,6.45,6.2.25,1.16,1.2,1.94,1.7,2.95,4.56,9.22,5.24,18.57.76,28.02-1.41,2.99-3.91,4.89-6.88,6.18-1.01.44-2.12.55-3.18.16-6.26-2.27-11.95-5.43-16.32-10.59-.8-.94-1.32-.74-1.64.19-.67,1.91-1.7,1.9-2.96.66-3.26-3.2-5.44-6.11-4.19-9.35.81-2.08,1.91-2.46,3.38-.82.65.72,1.33,1.46,1.51,2.52.09.5.56.89,1.17.64.62-.25.23-.71.14-1.09-.33-1.35-.91-2.63-1.99-3.47-2.48-1.95-4.32-1.31-5.8,1.84-3.02-1.77-3.32-2.99-1.3-5.71.28-.38.58-.77.24-1.13-.72-.75-1.26.19-2.07.42.28-2.71.34-5.31,2.12-7.7ZM115.79,117.57c-.78.07-1.71,0-1.76-1.1-.06-1.23.71-1.31,1.71-1.14.46.08.98-.2,1.47-.26.57-.08.7-.41.65-.9-.06-.51-.45-.48-.81-.47-.72.03-1.29.2-.99-1.02.2-.82-.69-.78-1.17-.32-1.94,1.82-3.34.37-4.51-.89-3.47-3.75-3.36-4.04,1.18-6.15,3.97-1.85,5.8-5.14,5.55-9.53-.23-4.04-1.26-8.09.28-12.14,1.41-3.71,3.96-6.56,6.53-9.44.92-1.03,1.75-2.12,3.09-2.7,2.7-1.17,3.48-3.62,3.87-6.22.33-2.16.76-4.28,1.58-6.57,1.47,2.01,3.48,3.02,4.04,5.82.59,3,3.13,5.37,5.79,7.2.76.52,1.46.48,2.19-.06.49-.37.8-1.1,1.78-.81-.31,4.06-2.95,6.29-5.9,8.32-.51.35-.77.16-1.24-.24-3.52-3.07-9.17-1.75-12.51.06-4.1,2.22-5.5,5.95-6.67,10.18-2.01,7.27-1.2,14.54-.76,21.83.11,1.82,1.28,3.14,2.77,4.36-1.92,1.32-3.97,1.99-6.16,2.21h0ZM120.94,111.16h0c-.71-8.25-1.16-16.49,1.3-24.58.83-2.76,2.3-4.88,5.14-5.84,1.71-1.18,3.6-1.94,5.67-2.13,1.36-.13,2.62.07,3.87.87,1.1.71,2.13,1.64,3.8,1.47.75-.08,1.86,1.09,2.52,2.1,2.43,3.68,4.23,7.84,8.35,10.3-1.18.71-1.84.72-2.78.06-2.91-2.04-6.39-3.17-9.02-5.69-2.46-2.36-5.21-4.44-7.14-7.32-.71-1.06-1.2-.7-1.48.34,3.66,5.04,8.06,9.24,13.65,12.14,2.18,1.13,2.21,1.18.28,2.55-5.12,3.64-8.73,8.44-10.76,14.33-.75,2.2-.94,4.6-1.23,6.93-.14,1.11-.33,1.47-1.57,1.16-3.17-.79-6.03-2.2-8.77-3.91-1.03-.64-1.72-1.58-1.82-2.78ZM116.51,162.59c-1.4-.3-1.63-1.11-.97-2.14.58-.91-.01-2.99,2.43-2.22,4.41,1.39,8.38,3.84,12.85,5.12-4.81.25-9.59.25-14.31-.76ZM184.14,171.18h0c-2.79-1.24-5.54-2.57-8.36-3.72-1.4-.57-1.81-1.06-1.52-2.8.76-4.66,1-9.41,1.49-14.11.07-.68-.64-2.22,1.25-1.46.42.17.38-.28.4-.53.17-1.5.32-3,.48-4.49v-8.88c.38,1.17.58,1.78.78,2.39,1.23,5.12,2.73,10.18,3.62,15.35,1.19,6.84,4.85,12.83,6.33,19.73-1.66-.2-3.07-.85-4.48-1.48ZM215.64,193.7h-.02c-.47.11-.84.19-1.21.3-2.75.8-4.57.12-5.65-2.49-1.39-3.37-3.14-6.55-4.84-9.77-.99-1.48-2.51-2.35-3.98-3.2-2.77-1.59-5.24-3.77-8.42-4.59-.92-.23-1.05-.89-1.3-1.53-4.59-12.07-7.67-24.58-10.41-37.15-.32-1.46-1.65-2.28-1.49-3.73.18-1.57.34-3.14.65-4.68,1-4.93,1.3-9.95,1.9-14.94.06-.47.36-1.28-.59-1.32-.7-.03-.67.57-.74,1.08-.7,5.04-1.44,10.07-2.13,15.12-.31,2.27-.53,4.55-.79,6.83.58,2.74.59,5.48,0,8.22v.45c.52.75.6,1.47-.09,2.17-.45.46-.4,1.05-.43,1.63-.01.23-.19.67-.2.67-2.68-.71-1.41,1.45-1.47,2.25-.35,4.94-1.31,9.82-1.45,14.79-.05,1.83-1.49,2.66-3.2,3.22-5.4,1.76-10.77,1.1-16.15-.02-7.41-1.54-14.88-2.93-22.08-5.27-4.88-1.58-9.6-3.63-14.38-5.48-.47-.18-.93-.4-1.41-.52-3.42-.83-3.35-.79-2.3-4.1,1.84-5.83,3.32-11.78,5.43-17.5,1.69-4.6,3.72-9.06,4.83-13.87.26-1.13.02-2.27.37-3.46,2.54,1.24,5.23,1.9,7.9,2.67,2.02.58,2.63-.44,2.74-1.92.16-2.15.76-4.23.94-6.36.1-1.15.64-1.31,1.32-.62,4.82,4.89,10.57,3.2,16.07,2.08,5.73-1.17,11.22-3.09,16.35-6.09,3.43-2,7.32-3.18,10.76-5.55,1.55,2.87,2.06,6.03,3.18,8.97,1.59,4.17,3.07,8.39,4.69,12.55.63,1.62.24,2.45-1.4,3.05-1.83.67-3.69,1.13-5.58,1.52-.65.13-1.17.36-.93,1.1.19.59.66.47,1.23.38,2.06-.32,4.11-.75,5.98-1.64,1.09-.52,1.46-.52,1.85.69,2.41,7.36,5.55,14.51,6.69,22.23.54,3.69,2.73,6.83,3.07,10.61.35,3.83,1.87,7.43,2.96,11.11.91,3.07,1.67,6.18,2.49,9.28.14.27.23.51.16.67,1.07,3.67,4.7,4.14,7.63,5.3,1.48.58,2.38,1.02,2.15,2.75-.19,1.48.41,2.8,1.29,4.1ZM215.09,177.1h0c-.74,2.83-.68,5.68-.82,8.68-2.5-.36-4.46-1.62-6.58-2.41-1.06-.39-1.28-1.61-1.58-2.67-1.42-5.07-2.93-10.12-4.3-15.21-2.38-8.85-4.61-17.73-7.04-26.57-.77-2.79-1.87-5.52-3.03-8.18-1.97-4.53-1.85-9.63-4.06-14.08-2.52-5.09-3.82-10.66-6.1-15.84-.38-.86.35-.64.54-.75,3.65-2.13,7.68-3.5,11.36-5.51,4.42-2.41,9.42-2.31,13.93-3.94,4.12-1.49,7.62-.58,11.3.95,1.37.57,2.83.95,4.3,1.44-1.55,3.32-3.88,6.16-5.73,9.29-2.55,4.31-3.88,9.01-5.51,13.63-.47,1.34-.78,2.76-1.38,4.03-.63,1.35-.26,1.74,1.11,1.99,2.78.51,2.9.64,1.93,3.2-1.3,3.41-2.49,6.86-4.52,9.99-1.28,1.98-.99,4.48.09,6.61.9,1.77,2.06,3.42,3.16,5.08,2.3,3.47,5.21,4.38,9.05,2.79.59-.24,1.08-.35,1.56.04.62.5.29,1.19.24,1.79-.25,2.96-2.18,5.37-2.74,8.26-1.16,5.94-3.64,11.51-5.17,17.35Z"/>
  <path class="st0" d="M272.17,179.12s0-.02.01-.04c-.02,0-.04,0-.06,0,.01.01.03.03.04.04h0Z"/>
  <path class="st0" d="M540.36,160.5h-.05c-.94-7-2.67-13.87-4.22-20.76-1.37-6.1-1.89-12.44-4.95-18.08-.23-.42-.39-.96-.14-1.22,1.54-1.65.81-3.42.37-5.19-.41-1.66-1.28-3.23-1.64-4.84-1.88-8.44-4.76-16.52-7.88-24.56-2.93-7.56-7.6-13.35-15.45-15.83-5.71-1.81-11.58-3.1-17.53-4.11-7.31-1.24-13.92-4.05-16.81-11.84-.18-.48-.27-1.56-1.12-1.22-.91.36-.39,1.16-.13,1.84,1.49,3.94,3.67,7.26,7.77,9,.76.32,1.67.79,1.24,2.12-.92,2.81-2.29,5.39-4.08,7.69-3.5,4.5-7.48,8.6-11.64,12.5-1.89,1.77-3.94,3.36-6.2,4.62-4.96,2.78-11.09.4-13-4.87-1.71-4.73-1.38-9.62-1.37-14.5,0-.71.3-1.44.94-1.56.68-.13,1.08.7,1.39,1.18,2.4,3.86,5.4,7.38,6.85,11.79.15.45.39,1.3,1.13,1.01.78-.31.6-.98.28-1.65-.98-2.06-1.8-4.19-3.05-6.12-1.57-2.39-3.17-4.76-5.05-7,2.22-1.13,4.11-2.44,5.77-4.06.34-.33.55-.77.33-1.16-.25-.44-.85-.4-1.15-.13-2,1.83-4.25,3.04-6.78,4.17-2.52,1.13-5.21,1.45-7.67,2.58-.81.37-1.81-.04-2.69-.47-2.33-1.13-2.38-3.55-3.46-5.64,4.7-.07,7.79-2.4,10-6.19.95-1.64,1.35-4.68.32-5.48-1.51-1.17-2.85.04-4.14.7-2.79,1.42-5.67,2.64-8.3,4.36-.34.22-.84.87-1.21.31-.58-.88-1.11-1.89-1.27-2.9-.07-.45,1.04-.52,1.63-.75.53-.21,1.52-.33,1.26-1.18-.27-.88-.99-.43-1.59-.18-.59.24-1.23.41-1.86.53-2.25.4-3.22-.69-2.59-2.9.21-.75.56-1.47.71-2.23.33-1.65.9-3.64-.02-4.91-.96-1.33-1.55-2.66-1.93-4.14-.33-1.31-.49-2.67-.7-4.01-.32-2.03-.65-4.06,2.27-4.48.26-.04.5-.28.74-.43,4.07-2.52,5.72-7.1,8.85-10.42.28-.3.26-.86-.12-1.18-.61-.51-.94.11-1.21.44-1.26,1.57-2.5,3.15-3.69,4.77-1.29,1.74-2.54,3.5-4.28,4.84-.39.3-.88.45-1.33.66-.61-3.18-1.49.37-2.31-.06.51-1.22.97-2.39,1.49-3.53.26-.56.54-1.13-.12-1.5-.7-.39-1.14.06-1.51.68-.56.93-1.11,1.83-1.23,2.95-.06.57-.64,1.5-.86,1.34-2.16-1.62-2.5,1.03-3.73,1.5-.12-.08-.26-.15-.34-.26-1.64-2.07-.78-4.01.33-5.93.69-1.18,1.6-2.29-.45-3.18-.72-.31-.7-1.3-.39-1.96,1.23-2.56,2.26-5.28,4.85-6.91.54-.34,1.22-.78.83-1.5-.54-1-1.32-.3-1.81.08-2.68,2.09-4.26,4.95-5.29,8.09-.29.89-.43,2.13.41,2.87,1.11.98.71,1.78.08,2.73-1.17,1.76-1.27,3.63-.34,5.51.44.89,1.2,1.65,1.51,2.58.5,1.45,1.34,1.21,2.35.75.81-.37,1.4-1.01,1.98-1.65.42-.47.87-1.23,1.48-1.02.73.24.36,1.14.33,1.72-.18,3.13.27,6.3,1.2,9.12.94,2.84,2,5.3.81,8.3-.9,2.26.24,4.14,2.44,4.65.28.07.71-.18.48.51-.37,1.11.58,1.87,1.09,2.65,1.68,2.56,3.35,5.11,4.32,8.05.73,2.24,1.49,4.49,4.56,5.42-2.85,1.07-5.35,1.46-7.58,2.6-7.66,3.88-14.64,8.78-21.14,14.32-1.41,1.2-1.95.58-2.52-.36-3.32-5.38-9.54-4.18-14.27-6.36-1.81,1.3-3.44-.39-5.15-.32-1.48.07-2.3-.85-2.99-1.81-1.22-1.68-3.69-2.84-2.55-5.63.16-.39-.07-.9-.64-.91-.58,0-.65.47-.69.91-.16,1.65-.28,3.29-.46,4.93-.1.96,0,2.45-.78,2.68-3.53,1.05-3.88,4.04-4.3,6.8-.38,2.5-1.02,4.37-3.77,5.05-1.21.3-2.35,1.02-3.44,1.68-3.07,1.9-6.72,2.94-9.05,5.97-1.15,1.49-2.59,2.66-4.07,3.8-3.3,2.54-5.83,5.82-7.92,9.28-.93,1.54-1.63,2.37-3.34,2.77-5.23,1.24-10.57,1.03-15.85,1.54-.18.32-.33.29-.47.05.14.23.29.26.47-.05-.1.1-.19.14-.27.13.09,0,.17-.04.27-.13h0c1.23-.73.42-1.96.59-2.9.84-4.85,2.13-9.58,3.34-14.33,1.16-4.55,3.1-8.81,7.48-11.01,3.98-2,8.29-3.35,12.48-4.94,1-.39,1.41-.21,1.07,1.09-.9,3.37-1.86,6.74-2.24,10.22-.09.78-.44,1.63.27,2.24.84.73,1.65.06,2.36-.34,1.15-.63,2.37-.96,3.63-1.18,2.47-.43,4.94-.79,7.41-1.21,1.3-.22,1.37-.47.38-1.56-1.54-1.71-2.96-3.57-3.82-5.81-1.15-2.98-1.74-6.09-2.52-9.17-.27-.6-.73-1.04-1.3-1.35-1.37,1.28-3.03,2.35-3.21,4.5-.03.32-.33.61-.74.7-4.29.89-8.16,2.96-12.24,4.45-4.64,1.7-7.96,4.88-9.47,9.59-2.05,6.38-3.4,12.95-4.6,19.55-.14.78.27,1.02.61,1.43,0,0,0,0,0,0-3.11.34-6.15-.3-9.23-.55-3.91-.33-7.83-.48-11.74.08,0,.01.02.03.02.04h0s0,.01,0,.02c.51.74,1.2,1.01,2.14.96,5.65-.29,11.22.86,16.83,1.1,4.37.18,8.8-.18,13.15-.87,13.66-2.15,27.01-5.81,40.64-8.08,1.61-.27,3.21-.77,4.72-1.4,1.01-.42,1.62-.2,2.29.48,3.26,3.34,6.53,6.67,9.95,10.16-1.57.46-3.18.88-4.75,1.4-5.07,1.68-10.14,3.38-15.19,5.12-4.8,1.65-9.78,2.29-14.82,2.43-4.84.13-9.58,1.04-14.37,1.51-5.87.57-11.69,1.66-17.61.31-2.58-.59-4.95.32-7.11,1.73-1.4.92-2.81,1.33-4.58,1.28-3.82-.09-7.65.21-11.47.41-1.44.08-2.74.75-4.05,1.31-1.28.55-2.55,1.12-4.22,1.87,1.34-2.33,3.21-3.19,5.09-4.08.7-.33,1.67-.65,1.31-1.64-.35-.96-1.18-.32-1.85-.24-3.21.39-6.04,2.04-9.25,2.92.68-2.02,2.22-3.43,4.66-4.47,1.11-.47,2.24-.93,3.32-1.47.43-.22.86-.62.63-1.23-.2-.52-.71-.38-1.12-.41-4.09-.34-7.29,1.73-10.48,3.84-.41.27-.78.61-1.19.87-.15.09-.38.06-.8.1.76-2.47,2.73-3.58,4.59-4.63,3.23-1.82,7.06-1.53,10.5-2.7,2.22-.76,4.45-1.49,6.66-2.29.29-.1.7-.47.7-.71,0-.57-.6-.54-.99-.54-.5,0-1.02.06-1.49.2-3,.92-5.99,1.88-9,2.78-.54.16-1.17.25-1.72.15-.91-.16-2.39.49-2.54-.86-.13-1.15.91-2.03,2.1-2.43,2.7-.9,5.38-1.87,8.2-2.39.39-.07.74-.31,1.11-.49,0,0,0,0,0,0,0,0,0-.01,0-.02,0,0,0,0-.01,0,0-.01,0-.02,0-.03,0,0,.01,0,.01.01,0-.01-.01-.03-.02-.04h0s0,0,0,0h.03c-.41-.93-.79-1.08-2.32-.64-4.39,1.26-8.82,2.25-13.32,3.04-2.29.4-4.82.76-6.2,2.99-.62,1.01-1.66,2.23-.67,3.53.94,1.24,2.31.86,3.57.5,1.09-.31,2.17-.67,3.77-1.18-1.6,1.43-2.85,2.42-3.94,3.56-.9.95-1.27,2.34-.53,3.37.78,1.07,2.07.61,3.15.02,1.14-.63,2.09-1.62,3.78-2.05-1.78,1.71-2.87,3.2-1.53,5.43.63,1.04.54,2.38.36,3.6-.24,1.55-.61,3.08-.93,4.65-1.8-.56-3.8-.69-5.54-1.3-5.64-2.01-11.05-.63-16.54.44-4.03.78-6.27,4.11-9.39,6.18-1.76,1.17-1.07,2.4-.86,3.58.23,1.29,1.4,1.96,2.72,2.11,1.16.13,2.02-.62,2.93-1.18,1.65-1.01,3.08-2.45,5.2-2.61-2.04,2.33-4.56,4.09-6.13,6.72-.44.74-.74,1.65-.03,2.4.69.72,1.57.9,2.55.48.46-.2.87-.72,1.53-.17,1.15.94,2.33.56,3.28-.35.56-.54.71-.64,1.25.06,1.34,1.72,2.64,1.74,4,.07,1.33-1.62,2.73-3.14,4.43-4.39,3.04-2.23,7.91-.49,9.59,2.78,1.89,3.7,1.63,7.73,2.85,11.5-.78-.98-1.36-2.05-2.04-3.04-.81-1.17-1.47-2.48-2.76-3.26-.48-.29-.87-.47-1.31.08-.4.49-.06.9.21,1.11,2.53,1.97,3.73,4.85,5.16,7.54,1.86,3.52.88,5.08-3.07,5.21-3.84.12-7.65-.26-11.46-.64-1.12-.11-1.38.3-1.63,1.08,5.92,1.12,11.83,1.68,17.8-.01,1.26,3.07,1.61,6.52,1.45,10.09-.08,1.84-.31,3.56-1.32,5.12-.26.39-.49,1.28-1.2.34-.41-.54-.86-.46-1.24.03-.53.68.02,1.07.46,1.41,1.15.93,2.72.31,3.65-1.45,1.07-2.02,1.2-4.26,1.29-6.47.22-5.49-1.65-10.72-2.21-16.13-.42-3.99-1.61-7.9-2.57-12.33,3.07,2.03,6,3.3,8.94,4.55,2.85,1.22,4.79,1.38,6.8-.88,5-5.64,6.16-12.27,5.35-19.45-.13-1.11.03-2.35-.76-3.32-.3-.36-.63-.93-1.21-.66-.61.28-.3.77-.18,1.28,1.6,7.21,1.03,14.07-3.55,20.18-1.13,1.51-2.45,2.92-4.72,1.87-3.94-1.81-7.93-3.51-11.55-5.98-2.82-1.93-5.62-4.01-9.49-2.93-2.73.76-4.13,3-6.02,4.72-.6.54-.87,1.55-2.07,1.32.09-1,.6-1.74,1.25-2.39,1.38-1.38,2.82-2.71,4.15-4.13.39-.4,1.2-.81.69-1.59-.61-.93-1.26-.2-1.86.09-.24.12-.41.42-.8.19-.03-.45.58-1.33-.15-1.36-1.35-.07-2.18-1.19-3.62-1.23-3.88-.1-7.21,1.09-10.14,3.47-.93.77-1.97.97-2.65.26-.74-.77-.11-1.74.65-2.42,1.01-.9,2.12-1.42,2.89-2.91.79-1.53,3.12-2.49,5.19-3.07,6.1-1.72,12.21-1.73,18.25,0,3.82,1.1,7.5,2.66,11.23,4.02,1.01.37,2.05.68,3.13.58.36-.03.96-.19.99-.68.04-.6-.49-.84-1.01-.86-2.95-.08-5.42-1.62-8.08-2.59-1.06-.39-1.26-.96-1.03-1.98.5-2.31,1-4.64.59-7.02-.06-.35-.17-.86.31-.86,1.26,0,2.25-1.13,3.67-.86-.31.39-.56.65-.75.95-.55.89-.98,1.93-.22,2.77.78.86,1.87.47,2.81.04.26-.12.49-.3.74-.43,3.14-1.64,6.35-2.71,10.03-2.69,3.83.02,7.78.83,11.58-.9.13,3.84.12,7.55,1.04,11.19.95,3.72,2.77,5.36,6.59,4.97,4.11-.42,7.87-1.75,9.7-6.01.42-.97.97-1.9,1.52-2.81,1.6-2.64,2.22-5.76,4.5-8.1,1.05-1.08,1.88-1.84,3.41-1.73.63.05,1.27-.17,1.91-.24,3.93-.47,7.85-1.11,11.79-1.38,4.96-.34,9.84-.89,14.57-2.52,5.67-1.95,11.36-3.83,17.07-5.66,2.64-.85,5.12-.86,6.86,1.88.53.83,1.4,1.45,2.11,2.17.69.71,1.57.88,2.37.41,2.09-1.21,4.51-1.25,6.72-2.03,4.22-1.6,8.45-3.19,12.76-4.82.02.91-.51,1.29-.95,1.49-2.76,1.25-5.28,3.31-8.58,2.9-1.61-.2-2.24.98-3.16,1.82.14.9.28,1.87,1.33.57.64-.78,1.35-1.21,2.4-1.07,2.56.35,4.86-.67,6.97-1.81,1.62-.88,3.68-1.58,3.75-4.24.03-1.18,1.85-1.4,2.98-1.7,1.16-.32,1.05.9,1.31,1.53,2.59,6.39,4.53,13.02,6.81,19.52,2.55,7.24,4.2,14.8,6.65,22.09,1.43,4.26,2.38,8.43,1.7,12.91-.33,2.12-.38,4.29-.76,6.4-.37,2.04.07,3.65,1.65,5,1.13.97,2.57,1.61,3.38,3.02-9.99,7.88-20.36,15.25-31.28,22.26.95-5.77,2.01-11.29,1.76-16.91-.25-5.49-2.48-10.04-7.06-13.3-.34-.24-.99-.43-1.01-.7-.36-3.16-2.3-5.8-2.88-8.9-1.06-5.62-.69-11.31-1.13-16.96-.08-1.03,0-2.07,0-3.32.89.56,1.48.94,2.08,1.32,4.5,2.83,6.94,1.96,7.89-3.3,1.07-5.91.72-11.87-.69-17.74-.22-.9-.37-1.85-.8-2.64-.24-.46-.91-1.04-1.63-.53-.74.53-.19.94.2,1.39.23.25.38.61.46.95,1.59,6.19,2.13,12.47.98,18.78-.56,3.08-2.56,3.79-5.18,2.03-1.99-1.33-4.04-2.66-5.66-4.37-2.52-2.66-4.7-5.63-7.03-8.47-2.91-3.56-4.75-7.79-7.3-11.57-.34-.51-.71-1.4-1.42-.96-.61.37-.24,1.09.15,1.7,1.54,2.48,2.96,5.03,4.49,7.5,1.62,2.61,3.35,5.11,5.39,7.45,3.53,4.03,8.08,7.71,6.66,14.12-.12.55-.07,1.16,0,1.73.49,4.36-.02,8.82,1.02,13.1.71,2.92,2.02,5.69,3.06,8.52-5.54-.02-10.54.86-13.38,6.29-.22.41-.32.92-1.02.92-4.16,0-7.04,2.06-8.97,5.62-.56,1.03-1.14.88-1.69.02-2.41-3.79-6.05-6.48-8.88-9.91-.49-.59-.94-1.01-.79-1.79.6-3.15.37-6.33.29-9.49-.11-4.68-.77-9.34-.54-14.02.29-5.84.23-11.6-2.11-17.13-.83-1.98-1.28-4.11-.45-6.28.18-.46.04-1.03.89-.72,1.33.49,1.1-.37.89-1.15-.16-.59-.7-.83-1.15-.86-.81-.06-1.25.56-1.58,1.24-1.2,2.48-1.27,5.18-.24,7.53,2.49,5.71,2.26,11.63,2.08,17.59-.19,6.28,1.13,12.49.87,18.77-.06,1.29.29,2.72-1.31,3.54-.86.44-.15,1.18.16,1.65,1.01,1.58,2.31,2.91,3.72,4.16,2.87,2.54,5.02,5.72,7.58,8.53,1.12,1.23,2.12,1.33,3.11-.21.7-1.09,1.55-2.07,2.36-3.07,1.34-1.66,3.08-2.36,5.22-2.24-1.9,7.1-3.77,14.03-5.62,20.97-.19.71-.53,1.16-1.3,1.2-.1.79-.47,1.11-1.09,1.2.59-.1.95-.42,1.04-1.2,0,0,0,0,0,0,0,0,0,0,0,0,0,0,0,0,0,0,0,0,0,0,0,0-1.59.14-3.23-.44-4.77.34,0,0,0,0,0,0-.72.02-1.44.05-2.15.07.72.21,1.45.32,2.15-.06,0,0,0,0-.01,0-.7.38-1.42.27-2.14.06.22.16.44.27.67.34,0,0,0,0,0,0-.22-.07-.44-.18-.67-.34h-.89c-.65.17-1.31.29-1.96.37,0,0-.01,0-.02,0,.65-.08,1.3-.2,1.94-.36.01,0,.03,0,.04,0,0,0-.01,0-.02,0,0,0,.01,0,.02,0-.01,0-.02,0-.03,0-2.02.02-4.06-.47-6.02.4,0,0-.01,0-.02,0,0,0,0,0,0,0,0,0,0,0,0,0,0,0-.01,0-.02,0-4.4.77-8.71.24-13.01-.84-.97-.24-1.2-.6-1.39-1.52-1.5-7.44-1.79-15.11-4.61-22.3.77-.1,1,.45,1.34.77,2.4,2.28,4.8,4.57,7.19,6.86.71.68,1.53,1.42,2.27.19,2.07-3.47,4.54-6.64,7.27-9.61.42-.47.94-1.21.23-1.66-.69-.43-1.06.41-1.5.88-2.66,2.8-5.3,5.61-6.92,9.16-3.87-3.24-7.11-6.83-10.68-10.05-4.45-4.01-9.37-7.21-15.73-6.98-1.56.06-3.09.56-4.65.76-.7.09-1.71.38-1.53-1.03.06-.46.17-1.1-.65-1.06-.55.03-.65.46-.73.91-.11.64-.3,1.26-.36,1.9-.05.48-.2,1.13.29,1.4.48.26,1.02.25,1.57-.23.64-.56.73-.46,2.01-.23-1.57,1.36-3.26,2.5-4.46,4.29-2.36,3.54-2.54,7.55-2.9,11.54-.49,5.38,1.25,10.51,1.85,15.77.37,3.27,1.16,6.26,2.95,9.01.19.29.28.64.41.97,1.53,3.89,2.18,7.97,2.79,12.07,1.17,7.78,3.41,15.32,5,23.01.17.82.34,1.52,1.29,1.25.96-.28.35-1,.22-1.58-1.37-6.04-2.76-12.08-4.05-18.13-.55-2.58-.83-5.22-1.35-7.81-.53-2.65-.79-5.44-2.04-7.83-1.08-2.08-.41-4.86-2.68-6.42-.08-.05-.03-.28-.04-.42-.09-2.68-1.13-5.15-1.65-7.74-1.18-5.91-1.76-11.83-.47-17.74,1.67-7.62,7.38-11.78,15.58-9.61,5.39,1.42,7.75,5.81,9.55,10.51,1.1,2.87,1.53,5.94,2.01,8.98,1.05,6.65,2.3,13.27,3.19,19.93.83,6.25,2.07,12.43,2.93,18.67.81,5.82,2.37,11.51,2.79,17.39.06.8-.22,2.05,1.16,1.79,1.11-.21.54-1.3.43-1.97-.79-5.01-1.66-10.01-2.46-15.02-1-6.29-2.1-12.57-2.88-18.89-.36-2.96-1.47-5.81-1.37-8.89,5.42,1.53,10.74,2.55,16.15.49-.44.09-.64-.02-.63-.21,0,.18.19.28.63.2-.05-.11-.11-.22-.14-.35,0-.03.07-.12.11-.12.01,0,.02,0,.03,0-.04,0-.11.09-.11.12.03.12.1.23.14.35h12.02c-.32,1.43-.59,2.76-.9,4.07-1.54,6.52-2.05,13.16-2.66,19.8-.59,6.49-1.53,12.94-3.15,19.27-.11.42-.44.85.04,1.12.53.31.97,0,1.23-.5.23-.44.51-.89.61-1.37,1.33-5.94,2.11-11.97,2.66-18.03.42-4.57,1-9.12,1.58-13.68.69-5.38,2.19-10.58,3.65-15.78,1.61-5.75,2.77-11.63,4.72-17.29.35-1.04.57-2.03,2.03-2.08.65-.02,1.67-.69.6-1.37-.91-.58-.54-.68-.14-1.25.73-1.03,1.67-1.79,2.65-2.52,2.16-1.61,8.21-2.43,9.9-1.11,3.51,2.74,5.99,6.14,6.29,10.8.38,5.86-.52,11.62-1.41,17.37-.21,1.38-.53,2.76-1.9,3.67-6.38,4.26-11.9,9.39-15.94,15.99-2.2,3.6-3.21,7.5-2.88,11.67.41,5.11,2.34,9.81,4.31,14.48.44,1.05,1.07,1.33,2.23.83-1.93-3.13-2.74-6.57-3.84-9.84-1.62-4.8-1.67-9.68.65-14.58,2.44-5.15,6.42-8.89,10.32-12.74,1.36-1.34,2.83-2.72,4.64-3.58,1.18-1.37,2.54-2.39,4.04-3.13.29-.35.63-.67,1.06-.95,10.64-6.86,20.96-14.17,30.82-22.16,1.57,2.96,3.54,5.6,7.28,5.85,5.03.33,10.03-.06,14.96-1.15,0,0,0,0,0,0,0,0,0,0,0,0,0,0,0,0,0,0,4.48-.04,8.96-.08,13.44-.13,7.36.64,14.74.57,22.11.85.59-.48,1.23-.49,1.93-.25-.23.43-.61.28-.93.31-2.63,1.32-5.03,2.94-6.92,5.24-4.3,5.21-6.42,11.4-7.84,17.83-.38,1.74-1.16,1.68-2.34,1.54-8.76-1.01-17.37-.45-25.77,2.34-.52.17-1.33.24-1.16,1.01.2.91.91.63,1.57.41,3.76-1.23,7.65-1.85,11.54-2.44,4.05,0,8.11.02,12.16.03,1.06.19,2.49.05,3.07.68.49.55.05,1.97-.04,3.01-.1,1.22-.31,2.43-.39,3.65-.6,9.17.65,18.31.43,27.47-.01.42-.08.9.56.97.74.08.7-.46.84-.96.42-1.49.35-3.01.23-4.52-.59-7.62-.99-15.2-.43-22.87.5-6.85,1.87-13.41,4.43-19.74,2.39-5.94,5.96-10.83,12.53-12.56,4.29-1.13,8.58-1.03,12.33,1.77,4.54,3.39,6.39,8.29,7.31,13.61.84,4.9,1.12,9.85,1.37,14.81.47,9.21,1.73,18.36,1.7,27.6,0,.65.03,1.3.02,1.95-.02.63.27.89.9.94.73.06.84-.36.83-.93-.01-.65.02-1.3-.01-1.95-.42-7.11-.93-14.22-1.27-21.34-.36-7.54-.69-15.08-2.23-22.49-1.11-5.36-3.18-10.24-7.85-13.63-2.91-2.11-6.21-2.47-9.67-2.46.68-.33,1.34-.57,2.02-.69,2.79-.47,4.32-2.29,5.29-4.77.33-.83.46-1.74-.43-2.04-1.06-.35-.87.74-1.08,1.37-.51,1.51-1.29,3-2.86,3.47-3.14.93-6.28,1.95-9.64,1.98-5.56.06-11.1,0-16.64-.38-.02,0-.03,0-.05,0-3.59-.04-7.17-.08-10.75-.13,0,0,0,0,0-.01-3.24-.83-6.46-.1-9.65.3-3.72.46-7.45,1.05-11.18.98-2.6-.05-5.44-.22-6.88-3.08-1.31-2.61-3.13-4.75-5.57-6.41-1.31-.89-1.95-2.01-1.62-3.82.51-2.79.38-5.64,1.35-8.43.64-1.83-.14-3.99-.63-5.92-1.91-7.51-4.71-14.76-6.56-22.31-1.91-7.82-5.44-15.12-7.72-22.82-.46-1.55-.96-3.15-1.41-4.65-.55-1.85-2.51-3.41-3.56-5.32-.14-.25-.54-.34-.72-.04-.17.28-.34.73-.24.99.38.92.81,1.83,1.36,2.66.64.95.54,1.45-.59,1.88-1.93.74-3.79,1.67-5.72,2.42-5.24,2.05-10.65,3.63-15.94,5.51-2.23.79-3.33.39-4.41-1.47-.6-1.02-1.37-2.04-2.31-2.75-4.27-3.23-8.03-7.01-11.9-10.68-.51-.48-.83-1.15-1.29-1.7-.85-1.02-.65-1.56.6-2.13,7.3-3.29,14.2-7.22,19.57-13.33.74-.84,1.1-.38,1.62.14.39.39.88.55,1.37.2.37-.26.31-.65,0-.92-1.23-1.06-.36-1.66.43-2.39,5.15-4.7,11.17-8.21,16.88-12.13,5.43-3.72,12.06-4.34,17.96-6.86,1.23-.53,1.51.24,1.54,1.43.08,3.59-.29,7.18.38,10.78,1.81,9.76,10.42,13.13,18.5,7.32,2.96-2.13,5.5-4.66,8.02-7.23,4.85-4.94,9.89-9.78,12.04-16.66.27-.87.51-.91,1.32-.56,2.24.96,4.64,1.52,7.05,1.77,6.14.64,12.02,2.25,17.76,4.41,6.26,2.35,10.19,7.05,12.6,13.09.4,1.02,1.76,2.37-.18,3.43-.34.18.03.63.16.96.54,1.34,1.19,2.58,2.21,3.66,1.19,1.27,2.18,2.75,2.69,4.43,1.93,6.4,3.04,13.03,5.53,19.27.2.51.58,1.28-.52,1.48-1.69.31-3.34,1.03-5.07.77-1.89-.29-3.51.21-4.99,1.29-1.41,1.04-2.99,1.77-4.66,2.15-4.67,1.05-9.28,2.28-13.76,3.97-1.6.61-2.15.42-2.2-1.51-.13-5.25-.46-10.5-.87-15.74-.16-2.05-.71-4.07-1.12-6.1-.12-.6-.45-1.14-1.19-.78-.58.28-.9.8-.39,1.4.91,1.06.79,2.4.98,3.62.93,6.21.77,12.49,1.21,18.74.15,2.08,1.02,2.47,2.72,2.19.63-.1,1.3-.23,1.85-.54,1.37-.75,1.68-.31,1.69,1.11.06,6.27,1.69,12.36,2.17,18.59.04.55.25,1.18,1.01,1.19.93.01.76-.71.72-1.24-.05-.86-.12-1.72-.29-2.56-.97-4.78-1.76-9.59-2.05-14.46-.17-2.94.66-3.93,3.58-4.7,4.6-1.21,9.53-1.64,13.05-5.43.36-.39.83-.25,1.21-.1,1.49.6,2.96.42,4.45.06.43-.1,1.04-.45,1.28.26.99,3.03,2.96,5.73,3.44,8.91,1.9,12.66,5.69,24.95,6.99,37.73.66,6.56-3.85,11.13-9.07,10.6-.72-.08-1.42.03-2.14.25-.66.2-1.3.25-2.02-.24-3.46-2.39-7.47-3.65-11.33-5.2-6.44-2.6-12.93-5.05-19.52-7.61.85-1.09,1.61-1.96,2.23-2.91.3-.47.44-1.23-.12-1.56-.64-.38-.84.32-1.24.74-3.87,4.16-7.96,8.09-13.55,9.87-1.9.6-3.63,1.48-5.38,2.36.35.77.91,1.08,1.72.69,4.38-2.12,9.49-2.86,12.92-6.81,1.16-1.33,2.62-1.27,4.19-.59,2.94,1.28,5.83,2.67,8.88,3.7,5.82,1.97,11.64,4.08,16.96,7.09,2.45,1.38,4.6,2.3,7.32,1.96,1.43-.18,2.88-.26,4.3-.45,2.91-.39,6.94-4.34,7.17-7.2.31-3.82-.07-7.65-.58-11.42ZM414.38,32.28c.79-1.04,1.12-1.68,2.19-1.82-.54.79-.94,1.35-2.19,1.82ZM429.89,62.65h0c-.43-.65-.69-1.44-1.2-2.02-.78-.9-.31-1.53.4-1.91,3-1.62,6.05-3.16,9.09-4.72,1.05-.54,1.47-.15,1.34.85-.05,2.72-3.09,6.44-5.8,7.23-1.07.32-2.3.16-3.22.91-.62.5-.53-.2-.62-.34ZM352.6,80.42c.44,1.63.93,3.24,1.33,4.88.66,2.72,1.56,5.34,3.18,7.66.84,1.21.84,1.92-.96,2.13-2.76.32-5.54.69-8.5,2.21,1.09-6.06,2.12-11.67,4.96-16.89ZM286.15,124.73c-1.17.31-2.3.8-3.47,1.09-.53.13-1.25.83-1.7-.08-.34-.69.23-1.19.62-1.72,1.44-1.95,3.76-1.84,5.75-2.48.65-.21,1.36-.22,2.01-.31.47,2.74-1.44,3.02-3.21,3.49ZM271.58,154.13c-2.17,2.15-3.85,4.9-6.96,5.93,1.68-2.74,4.17-4.51,6.96-5.93ZM261.09,159.89c1.68-3.12,4.22-5.39,7.12-7.32-1.95,2.85-4.3,5.31-7.12,7.32ZM334.7,141.95h0c-1.28,4.08-4.05,6.47-8.28,7.44-2.9.66-4.96-.14-5.93-2.96-1.19-3.44-1.53-7.02-1.24-10.6.08-1.05.34-2.55,1.8-2.96,1.26-.36,2.24-.82,2.63,1.41.9,5.08,3.53,7.07,7.81,6.74,1.83-.14,3.15-1.49,4.97-2.14-.52,1.23-1.41,1.97-1.75,3.08ZM337.67,135.66c-1.42,1.07-2.88,2.1-4.34,3.11-2.11,1.47-5.71.92-6.8-1.26-.54-1.08-1.05-2.16-1.49-3.28-.48-1.2-.1-1.63,1.08-1.45,2.79.42,5.59.41,8.39.46,1.79.03,3.48-.87,5.34-.37-.41,1.19-1.22,2.07-2.18,2.8ZM373.57,211.78c-.73,0-1.46-.02-2.2-.1,0,0,0,0,0,0,.73.07,1.46.11,2.2.1,0,0,0,0,0,0ZM375.19,211.66s-.08,0-.11,0c.04,0,.08,0,.12,0h0ZM384.71,211.13c-.51.2-1.05.29-1.62.33.57-.04,1.11-.12,1.62-.33ZM471.25,194.11h0s.02,0,.03,0c-.01,0-.02,0-.03,0ZM482.49,193.77s0,0,0,0c.05.02.1.05.16.11.61-.7,1.44-.34,2.17-.44h0c-.74.1-1.56-.25-2.17.44-.05-.06-.1-.09-.16-.11,0,0,0,0,0,0ZM482.18,193.85s.02.02.04.03c0,0,0,0,0,0h0s-.02-.02-.03-.03c0,0,0,0,0,0ZM482.16,193.8s0,0,0,0c.09-.52-.26-.54-.62-.54.36,0,.72.02.63.54ZM481.18,193.25c.05,0,.11,0,.17,0-.06,0-.12,0-.17,0h0ZM471.41,193.89c3.58-.03,7.15-.02,10.72-.01,0,0,0,0,0,0h0s-.02.1-.04.15c-.03,0-.07,0-.1,0,.03,0,.06,0,.09,0,.02-.06.03-.1.04-.15-3.59,0-7.18-.02-10.76.02-.45,0-.96-.12-1.41-.03.46-.11.98.02,1.45.02ZM377.4,78.38c1.12.88,1.55,1.73,2.05,2.57-2.73,1.07-1.91-.93-2.05-2.57ZM372.89,86.27h-.01c.76-2.34,2.29-3.63,4.97-3.38,1.93.18,3.9,0,5.85.06,2.78.09,3.83,1.44,3.28,4.09-.19.92-.85,1.84.01,2.72.04,0,.08.01.12.02,0,0,.03.04.04.05,1.07.05.76-1.18,1.36-1.57.45.83.85,1.71,1.38,2.51.34.53.5,1.67,1.46,1.14,1.03-.57.07-1.2-.26-1.74-1.16-1.91-1.7-4-2.03-6.7,2.29,2.33,2.92,4.89,3.55,7.4.34,1.37.67,2.79.48,4.25-.12.9-.45,1.03-1.05.34-1.63-1.87-3.25-3.76-4.88-5.64h-.09s-.05-.05-.07-.07c-1.87-.31-3.23-1.86-5.14-2.08-.2-.02-.39-.16-.59-.21-.96-.24-2.07-.75-2.85.02-.76.76.02,1.73.37,2.75-2.39-.06-4.53.78-7.02,1.03.38-1.76.6-3.43,1.11-5.01ZM381.5,105.19h0c-1.4.72-1.91,2.16-3.08,2.88-1.43.88-3.11,1.38-4.79,1.71-5.54,1.09-11.08,2.2-16.63,3.27-4.32.84-8.64,1.63-13.36,2.52,2.18-3.37,4.22-6.39,7.05-8.73,2.17-1.8,4.27-3.63,5.94-5.92,1.06-1.46,2.86-1.88,4.3-2.68,4.4-2.45,8.87-4.85,13.88-5.97,1.09-.24,2.14-.22,3.22-.18.19,0,.48.31.54.26,2.9-2.35,2.72,1.73,4.4,1.93-1.06-.14-2.03-.1-3.05-.7-1.18-.7-2.71.08-4.03.52-3.74,1.24-7.21,3.08-10.65,4.98-1.27.7-2.43,1.58-2.93,3.03-.23.67-.21,1.39.58,1.62.79.23.57-.56.74-.97,1.2-2.68,3.92-2.85,6.22-3.25,2.58-.45,5.24-.75,7.86-.95,1.27-.1,2.74,1.08,3.97,1.9,3.75,2.53,3.78,2.71-.16,4.74ZM375.78,97.01c-1.33.94-2.76.63-4.16.52,1.31-.64,2.54-1.81,4.16-.52ZM401.97,91.22h0c-4.12,4.62-9.18,8-14.49,11.07-.8.46-1.08.33-1.73-.43-1.35-1.57-3.13-2.75-4.98-3.74-1.24-.66-2.43-1.35-3.65-2.39,3.05-.86,5.34.45,7.63,1.71.57.31,1.05.79,1.64,1.03.46.19.97.68,1.56.07.64-.68,0-1.09-.3-1.47-1.98-2.68-4.54-4.81-6.86-7.17-.19-.2-.47-.31-.59-.67,2.47-.1,4.49.93,6.21,2.46,1.65,1.46,3.23,3.04,4.58,4.77.9,1.15,1.6.61,2.58.41,1.18-.24,1.11-.96,1.02-1.75-.19-1.85-.31-3.72-.7-5.53-.4-1.8-1.12-3.53-2.16-5.45,4.18.78,8.09,1.44,10.27,5.45.3.56.58.96-.02,1.63Z"/>
  <path class="st0" d="M477.41,173.52s-.04.05-.04.05h0s.04-.01.06-.02c0,0-.01-.01-.01-.02Z"/>
  <path class="st0" d="M237.85,85.83c1.96-.39,3.92-.78,5.88-1.13.82-.15,1.29.01,1.68,1.02,1.56,3.97,3.41,4.84,7.53,3.9,1.23-.28,2.24-.31,2.48,1.4.18,1.23.73,2.41,1.12,3.61h0s0,0,0,0c0,0,0,0,0,.01,0,0,0,0,0,0,1.44,1.34,2.91,1.08,4.23-.1,1.68-1.5,2.65-1.26,3.6.84,1.18,2.61,3.3,3.03,5.55,1.31,1.01-.78,1.64-.52,2.62.15,3.02,2.07,5.55,2.17,7.35-1.58.5-1.03,1.67-2.18,1.65-2.88-.1-2.98.96-4.83,3.81-5.72.41-.13.44-.71.4-1.16-.04-.37-.34-.42-.63-.45-1.2-.1-4.7,2.24-4.6,3.35.19,2.17-.92,3.77-1.75,5.57-1.48,3.2-2.68,3.62-5.51,1.46-1.34-1.02-2.59-1.04-3.97-.21-2.17,1.3-2.75,1.13-3.92-1.08-1.38-2.6-2.52-2.91-5.03-1.32-2.24,1.42-2.89,1.3-3.21-1.25-.42-3.32-1.44-4.26-5.65-2.95-1.58.49-2.48-.03-3.32-1.07-.74-.92-1.15-2.04-1.45-3.18,5.01-1.04,9.38-2.59,8.53-9.56,2.11,3.56,4.82,5.24,8.05,5.92,5.71,1.2,8.48-3.37,11.88-6.61,1.5,2.31,2.84,4.41,4.79,6.03,2.91,2.43,6.48,3.42,10.05,4.04,7.62,1.33,11.89,5.98,13.95,13.07,1.47,5.04,2.39,10.17,2.61,15.42.03.7-.16,1.73.76,1.73,1.01,0,1.03-1.06.93-1.84-.69-5.44-1.01-10.91-2.9-16.2-2.57-7.18-6.65-12.19-14.66-13.56-3.78-.65-7.59-1.65-10.63-4.57-3.3-3.15-3.87-5.1-1.73-8.98.9-1.63,1.76-3.28,2.61-4.93.32-.62.51-1.09,1.43-.71,1.94.79,2.94-.18,3.83-1.92,1.66-3.23,1.85-6.84,2.99-10.19,1.38-4.04.16-7.89-.63-11.81-.3-1.5-1.34-2.86-.92-4.5.92-3.62,0-4.88-4.13-5.56-2.7-.44-3.15-.71-3.43-3.33-.09-.88-.05-1.89-1.43-.82-.76.6-1.03-.13-1.27-.83-.78-2.27.99-5.22,3.75-6.42,1.06-.46,1.37-.45,1.09.77-.11.47.24.91.66.99.26.05.66-.26.89-.5,2.37-2.43,7.79-3.22,10.68-1.55.66.38,1.24.91,1.17,1.68-.08.95-1.19-.04-1.51.62.18.8,1.16,1.11,1.16,2.01,0,1.18.24,1.85,1.38.61.55-.6,1.07-.16,1.45.31.57.67-.24.81-.5,1.14-.32.39-.71.72-.98,1.14-.59.94-.74,2.07.22,2.69.83.54,1.96.39,2.79-.41.48-.47.79-1.02.86-1.7.06-.54-.13-1.21.81-1.21.7,0,1.34.08,1.69.73.49.91.73,1.83.3,2.89-.6,1.47-1.23,2.9-2.4,4.02-.58.55-1.31,1.12-.52,1.98.81.88.98-.42,1.53-.53.98-.19,2.21-1.57,2.83.09.46,1.21.27,2.73-.68,3.88-.64.78-2.57,1.2-1.37,2.52,1.24,1.38,1.7-.92,2.77-1.12.19.24.42.5.62.78,1.08,1.53.03,2.68-.68,3.91-.8,1.39-1.45.22-2.22-.04-.84-.28-1.77-.17-2.44.47-.53.52-.66,1.19-.33,1.96.4.94,1.07,1.29,2.03,1.23.33-.02.69-.28.95.12-.27,1.58-.79,2.74-2.8,2.28-.73-.16-1.61.4-1.36,1.26.77,2.68-1.3,2.28-2.7,2.62-1.93.46-3.28-.62-4.65-1.72-.47-.38-1.1-.83-1.65,0-.34.5,0,.82.33,1.09,2.48,1.95,5.13,3.35,8.28,1.64,2.88-1.56,5.48-3.52,5.96-7.06.13-.98.49-1.57,1.17-2.13,2.31-1.91,2.73-5.15.88-7.38-.45-.55-.52-.86-.36-1.61.72-3.23-.09-4.55-2.87-5.12.35-.79.76-1.54,1.03-2.35.97-2.88,0-5.43-2.47-5.95-2.75-.57-4.57-1.82-5.22-4.71-.32-1.42-1.63-2.1-3.01-2.49-4.1-1.17-8.22-.22-12.17.46-4.4.75-5.76,3.29-6.21,8.79-3.44-3.63-6.77-4.92-11.59-3.46-3.07.93-6.28,1.85-8.92,3.9-1.57,1.22-2.75,2.75-3.43,4.61-.37.99-.78,2.44.31,2.9,1.37.57.89,1.05.29,1.58-2.88,2.54-4.66,5.76-6.13,9.23-.86,2.03-.63,3.73,1.15,4.06,2.36.43,2.05,1.9,1.94,3.42-.46,6.27.57,12.29,3.1,18.02.92,2.07,1.65,4.09,1.26,6.37.97,1.55.61,2.93-.31,4.16.91-1.23,1.26-2.6.29-4.14.2,3.76-1.72,5.97-5.48,6.51h0c-3.54.5-7.06,1.12-10.58,1.76-.56.1-1.47.28-1.24,1.14.22.84,1,.55,1.64.42ZM302.61,46.05h0c-.27,0-.69-.03-.76-.19-.1-.23.08-.6.43-.58.23.01.46.21.58.27.23.51-.11.5-.25.5ZM286.47,33.69c-.79-.86-1.35-1.49-2.2-2.42,1.41.41,2.48.56,2.2,2.42ZM278.07,27.03c.45-.02.64.18.66.6.05.41-.08.69-.55.68-.44,0-.97-.09-.99-.58-.02-.42.39-.68.87-.7ZM248.1,46.91h0c-1.34-.37-.73-1.5-.51-2.11.66-1.87,1.29-3.78,2.7-5.48.31.53.1,1.53,1,1.52,1.15-.01.47-.96.66-1.47.69-1.78,1.14-3.66,2.91-4.82,1.17-.77,1.69-1.98,1.69-3.81-1.38,1.97-2.18-.59-3.45.05,1.53-2.85,3.69-4.85,6.74-5.82.48-.15.93-.16.95.44.03,1.16.77,1.51,1.67,1.39.97-.13,1.97-.81,1.85-1.81-.27-2.33,1.26-1.8,2.54-1.9,3.72-.28,6.31,1.32,8.18,4.63-.68,0-1.16-.01-1.64,0-1.23.05-2.52-.22-2.63,1.8-.05.94-1.04,1.82-1.62,2.73-.35.54-.73.57-1.21.1-1.01-.99-1.3-.81-2.33.3-1.29,1.38-1.03,3.61-3.16,4.95.58-1.45,1.01-2.49,1.41-3.54.21-.55,0-1-.49-1.3-.49-.31-.8.11-1.1.39-.88.79-1.59,1.81-1.74,2.91-.36,2.61-2.18,4.07-3.99,5.85-.11-1.89-.75-2.5-2.41-1.54-1.72.99-2.4,2.58-2.77,4.34-.31,1.49-1.82,2.61-3.24,2.2ZM251.54,63.04h0c-1.23-4.68-1.14-9.41-1-14.14.05-1.8,2.05-2.43,3.28-3.05,2.6-1.3,4.63-3.08,6.31-5.35.51-.69.83-1.12,1.98-1.05,1.74.1,2.52-1.65,3.39-2.92.51-.75.79-1.67,1.28-2.75,1.85,1.73,2.84.68,3.76-.9,1.96-3.38,2.39-3.51,5.66-1.17,3.74,2.67,5.67,6.54,6.83,10.86.33,1.25.59,2.51.85,3.77.1.49.03,1.07.77,1.05.8-.02.63-.66.62-1.12-.08-4.05-1.49-7.67-3.7-11.02-1.34-2.05-2.98-3.84-4.85-5.48,3.32.24,6.22,1.56,7.92,4.35,2.57,4.22,3.45,9.02,3.64,13.93.02.43.05.88-.04,1.29-.1.46-.34.89-.52,1.34-2.55-2.02-4.49-2.03-6.13.02-.37.47-.99,1.05-.26,1.67.64.54,1.01,0,1.37-.49.61-.81,1.46-1.24,2.46-1.02,1.15.25,1.64,1.3,1.74,2.25.34,3.3-1.39,6.06-2.67,8.91-.31.68-1.18.31-1.53,0-1.58-1.39-2.21-.32-2.82.96-1.32,2.77-2.8,5.44-4.53,8-2.29,3.39-4.99,6.26-8.68,8.16-.86.44-1.77.48-2.51.23-3.6-1.2-6.82-2.93-8.49-6.66-1.44-3.2-3.21-6.22-4.12-9.68ZM237.93,84.94c1.66.08,3.27-.28,4.87-.62,1.54-.32,2.65,0,3.36,1.53.51,1.1,1.18,2.14,2.18,2.91.83.63,1.65,1,2.78.74,2.9-.66,4.51-.17,5.14,1.7-.63-1.86-2.25-2.34-5.14-1.68-1.14.26-1.96-.11-2.78-.74-1-.77-1.67-1.81-2.18-2.91-.71-1.53-1.82-1.86-3.36-1.53-1.63.34-3.26.72-4.95.62.03,0,.05-.01.08-.01Z"/>
  <path class="st0" d="M132.95,255.14c-.63-3.74-1.53-7.44-1.97-11.19-1.37-11.81-4.03-23.38-6.2-35.05-1.59-8.54-3.95-16.8-10.07-23.47-3.45-3.77-6.86-7.48-12.64-6.74-1.84.23-2.29-.57-2.51-2.2-.59-4.32-1.51-8.6-2.01-12.93-.34-2.92-1.39-5.75-1.05-8.76.08-.74.08-1.31.98-1.67,2.17-.86,4.34-1.77,6.39-2.89,1.62-.88,3.33-2.1,3.47-4.06.31-4.36.67-8.77-.79-13.04-.19-.56-.17-1.45-1.17-1.08-.72.26-.62.83-.36,1.43.83,2,.99,4.16,1.38,6.27.7,3.81-.77,7.48-3.36,9.3-2.72,1.92-6.08,2.24-8.96,3.91-2.24,1.31-5.09,2.57-7.97.98-2.11.66-4.2,1.48-6.46,1.33-1.37-.08-2.72.1-4.17.33.02.03,0,.03-.02,0-.34.06-.69.11-1.04.17,2.15-2.23,4.88-2.59,7.36-3.48.53-.19,1.53.24,1.32-.85-.19-.96-1.08-.45-1.64-.46-4.12-.11-7.99,1.43-12.05,1.79-.8.07-1.58.17-2.8-.33,4.7-2.46,9.61-3.16,14.29-4.56.02-1.49-1.2-.96-1.69-.79-2.23.82-4.43,1-6.72.4-1.34-.35-2.62.74-4.13.31,1.71-.89,3.33-1.65,5.17-.95.61.23,1.26,0,1.27-.37.07-2.29,1.76-1.43,2.91-1.57.57-.07,1.16,0,1.74-.02.57-.02,1.05-.22.97-.86-.08-.61-.65-.41-1.04-.44-2.25-.18-4.46.12-6.55.9-1.32.49-2.57.35-4.24.4,2.68-2.14,5.64-1.96,8.36-2.59,1.71-.4,3.37-.35,5.11-.05,1.85.32,2.51,1.13,2.1,2.92-.24,1.03-.39,2.08-.58,3.12.54.29.82,1.41,1.71.53.14-.55.49-.9,1.07-.86,2.72.18,4.5-1.57,5.79-3.41,1.55-2.21,3.56-3.41,5.89-4.37.93-.39,1.85-.79,2.54-1.57.26-.29.47-.6.21-.96-.21-.3-.57-.54-.91-.23-2.3,2.17-6.07,2.2-7.8,4.94-1.11,1.76-2.88,2.45-4.19,3.78-.62.64-1.37.61-2,.41-.82-.25-.23-1.02-.16-1.48.29-2.31-.89-3.48-2.92-4.1-.9-.28-1.82-.35-2.77-.45-2.36-.24-4.47.88-6.79,1.02-2.13.13-4.39.83-6.12,2.29-1.57,1.32-.44,4.05-2.57,5.24-.25.14.23.89.73,1.13h2.59c-.7.3-1.23.53-1.74.75-.61.72-1.33,1.48-.77,2.49.51.92,1.5.91,2.46,1.03,1.86.22,3.64-.85,5.64-.33-.52.93-2.27,1.33-1.57,2.52.6,1.03,1.99.32,3.02.39.42.02.85-.13,1.28-.17,3.56-.38,7.15-1.19,10.68-.99,2.47.14,4.6-.41,6.84-.97.37-.09.71-.58,1.29-.09.5,7.64,1.74,15.26,3.28,22.85.1.5.36,1.09-.59,1.55-2.82,1.34-5.54,2.89-8.26,4.41-.55.31-1.29.59-.89,1.64.7,1.82-.55,3.55-.49,5.35.08,2.43-1.96,3.05-3.42,4.17-.45.35-.99.59-1.45.93-5.99,4.3-12.68,5.07-19.73,3.79-2.16-.4-4.09-1.28-4.51-3.83-.08-.46-.43-.5-.82-.51-.6-.02-.71.36-.72.84-.06,1.73.94,2.76,2.33,3.55,4.91,2.84,10.22,1.9,15.39,1.4,4.71-.45,8.27-3.61,12.3-6.09,0,2.52-.18,4.89.06,7.22.19,1.91.07,4.22,1.95,5.36.73.44.92.72,1.11,1.42,1.86,7.06,3.06,14.24,4.25,21.43,1.43,8.6,3.26,17.12,5.19,25.61.19.85.51,1.18,1.24,1.03,1.04-.23.29-.87.19-1.33-2.26-10.77-4.34-21.56-6.26-32.4-1.09-6.16-2.26-12.34-4.23-18.32-.22-.65-.2-1.7-.85-1.82-1.39-.26-1.23-1.2-1.26-2.1-.21-4.56.51-9.04,1.37-13.47.19-.97.21-2.59.87-2.91,2.38-1.17,4.48-2.79,6.85-3.95.26-.13.46-.17.62-.16.36-.08.75-.13,1.17-.13.27,0,.53.02.77.06-.01-.04-.03-.08-.04-.12,3.66-.9,6.72.08,9.33,2.35,6.12,5.33,9.89,12.08,12.03,19.86,2.5,9.11,3.46,18.51,5.52,27.71,1.85,8.29,2.73,16.8,4.05,25.21.11.7.12,1.64,1.15,1.47,1.14-.19.57-1.15.47-1.75h0Z"/>
  <path class="st0" d="M45.46,154.67v.04c3.89-5.82,8.47-11.05,13.11-16.25.67-.75,1.31-1.82,2.15-2.05,1.09-.3,2.97.6,1.28-1.71-.12-.17.56-.14.86-.24,2.98-.97,6.13-1.59,8.89-2.98,4.39-2.19,8.12-5.53,13.25-6.4,1.71-.29,3.89-1.5,3.41-4.25-.06-.34.47-1.02.86-1.16,2.71-.96,2.09-3.29,2.14-5.24.02-.76.38-1.09.79-1.36,2.56-1.65,3.71-4.6,6.08-6.45.91-.71.84-1.61-.74-1.72-1.35-.1-2.67-.6-4.02-.69-3.18-.19-6.53-1.68-9.36,1.18-1.64,1.65-3.61,2.99-4.57,5.23,0,0,0,0,0,0-.61-.35-.82-.98-.82-1.58.01-3.79,0-7.59.22-11.38.04-.77-.1-1.14-.63-1.27-.76-.19-.97.39-.96,1.05,0,4.03,0,8.06,0,12.09,0,1.14.53,1.74,1.74,1.54-.6.7-1.09,1.87-1.8,2.02-3.36.7-6.82.63-10.39,1.6.41-1.15.88-1.56,1.57-1.92,2.08-1.1,4.14-2.27,6.11-3.54,1.11-.72,1.92-1.8,1.5-3.29-.29-1.03-.92-1.86-2.07-1.79-4.81.29-9.55,1.54-12.2,5.67-3.2,5-7.42,8.89-11.44,13.08-3,3.14-6.54,5.64-9.51,8.8-3.01,3.2-6.09,6.33-9.14,9.48-.17-.14-.33-.27-.5-.4.6-2.18,1.24-4.35,1.78-6.55.92-3.78.61-7.7,1.21-11.51.07-.42.07-.7-.36-.82-.5-.15-.97.1-1.09.48-.18.6-.2,1.26-.2,1.9,0,4.84-.69,9.59-2.3,14.14-.98,2.78-.89,6.04-3.41,8.18l2.12-.42c6.68-7.67,14.19-14.5,21.65-21.4,3.3-3.05,6.44-6.27,9.58-9.49.57-.59.83-1.49,1.18-2.28,2.26-5.02,6.86-6.45,11.66-7.57.79-.18,1.47.13,1.78.88.38.9-.61.91-1,1.32-2.1,2.19-5.16,2.94-7.37,4.95-.94.86-2.26,1.94-1.89,3.07.52,1.55,2.12.26,2.99.08,4.66-.96,9.34-.74,14.02-.77,1.52,0,2.96-.43,4.41-.82.68-.18,1.39-.89,2.07-.31-2.31,4.96-7.34,4.54-11.49,5.86-1.28.41-2.64.59-3.97.87-.4.08-.98.06-.77.7.12.38.51.37.91.31,1.7-.26,3.42-.39,5.1-.74,2.09-.43,4.15-.99,6.21-1.58,1.6-.46,3.15-1.13,3.79-2.84.37-.97,1.23-1.06,1.99-1.35-.03,2.33-2.83,5.7-5.15,5.91-3.09.29-5.98,1.29-8.88,2.24-.69.23-1.72.17-1.91,1.13-.2.99,1.16.37,1.43,1.24.28.93,1.46.56,2.6.77-3.81,1.8-6.98,4.11-10.74,5.29-.91.28-1.83.3-2.73.48-3.56.7-5.64,3.13-7.71,5.76-3.81,4.86-8.1,9.3-11.65,14.4-3.79,5.45-7.96,10.63-12.07,15.84-4.01,5.09-8.68,9.13-15.71,9.23-3.7.05-5.85-2.19-7.8-4.84-.16-.21-.34-.69-.28-.73,2.41-1.67,1.24-4.62,2.47-6.76,1.39-2.42,2.94-4.66,4.83-6.7,0,0,0,0,.01,0,.02-.02.04-.04.06-.06-.16-.57-.48-1.03-1-1.34,0,0,0,0,0,0,0,0,0,0,0,0,0,0,0,0,0,0,0,0,0,0,0,0h0s0,0,0-.01c-2.85,3.13-5.3,6.47-6.08,10.77-.25,1.4-1.52,1.71-2.57,2.24.05-.12.1-.25.15-.37h0s0,0,0,0c1.96-5.02,4.24-9.82,8.39-13.43,0,0,.01-.01.02-.02.12-.1.24-.2.35-.29.12-.15.28-.28.46-.4h0s.04-.02.07-.04c.02-.04.05-.08.07-.12,0,0,0,0,0,0,1.1-1.83,2.74-3.02,4.72-3.82-1.53,1.42-2.42,3.56-4.75,4.07-.28.47-.56.95-.84,1.42.52.31.84.77,1,1.34,3.09-3.06,6.94-5.34,9.47-8.98.1-.62.26-1.18.67-1.5-.41.32-.57.88-.67,1.5l1.73-1.77s-.03,0-.04,0c.01,0,.03,0,.04,0,.36-.22.67-.47.91-.8,0,0,0,0,.01,0,.11-.16.2-.34.26-.54l-2.12.42s0,0,0,0c-.97.9-1.94,1.8-3.04,2.81.18-4.01-1.58-5.31-5.1-4.03-.33.12-.67.25-.98.44-5.52,3.38-10.53,7.31-14.13,12.8-.44-.73,0-1.38.14-2.04,0,0,0,0,0,0,0,0,0,0,0,0h0s0,0,0-.01c0,0,0,0,0,.01,0,0,0,0,0,0,0,0,0,0,0,0,0,0,0,0,0,0,0-.2-.03-.35-.1-.47.06.12.1.27.1.48,1.3-8.08,3.12-16.05,4.99-24.01,1.24-5.26,2.74-10.47,3.01-15.92.12-2.53,2.31-3.79,3.6-5.62,4.15-5.93,9.26-10.99,14.17-16.25,3.39-3.63,7.15-7.11,8.34-12.27-.02-.57-.13-1.16-.06-1.72.17-1.46-.62-1.5-1.66-1.25-.16,2.76.02,5.63-2.25,7.79-.61.79-1.16,1.65-1.84,2.38-5.5,5.95-11.39,11.57-16.27,18.05-2.13,2.83-5.03,5.12-6.05,8.79-.5,1.8.19,3.48-.1,5.22-1.04,6.2-3.01,12.17-4.31,18.31-1.09,5.18-2.06,10.37-2.79,15.6,0,0,0,0,0,0,0,0,0,0,0-.01-.14.32-.33.62-.4.95-.57,2.71-1.09,5.43-1.69,8.14-.18.84-1.2,1.88.25,2.29,1.34.37.75-1.27,1.34-1.78.08-.07.07-.27.09-.41.2-1.62.03-3.37,2.63-3.27,1.08.04,1.58-1.68,3.21-2-1.29,2.23-2.29,4.29-2.58,6.48-.24,1.78-1.39,3.97,1.08,5.28,0,0,0,.01,0,.02,0,0,0,0,0-.01,0,0,0,0,0,0,0,0,0,0,0,0,0,0,0,0,0-.01.49.55,1.1.87,1.57,1.58,2.27,3.41,4.91,6.49,9.73,5.77.83-.13,1.18.15,1.33,1.1.58,3.55.56,7.14.85,10.71.2,2.43.55,4.84.87,7.26.09.7.47,1.33,1.27,1.11.74-.2.54-.95.43-1.48-.33-1.61-.74-3.19-.86-4.85-.29-4.08-.62-8.17-1-12.25-.12-1.22.34-1.76,1.5-2.06,2.02-.52,3.8-1.57,5.57-2.68,4.18-2.64,6.5-7.25,10.69-9.87.32-.2.74-.81.65-1.02-.58-1.25.34-1.88.89-2.75,1.62-2.56,3.74-4.76,5.4-7.23ZM79.16,111.08c.03-.23.23-.31.4-.42,0,0,0,0,0,0-.16.11-.35.19-.39.41,0,0,0,0,0,0ZM79.31,113.06h0c1.9-2.29,3.58-4.67,5.86-6.63,1.57-1.35,3.16-1.56,4.97-1.34,2.1.25,4.19.65,6.71,1.05-2.46,1.8-3.49,4.47-5.67,6.18-.34.27-.64.64-1.11.5-3.58-1.06-7.02,1.33-10.76.24ZM76.76,124.85c3.21-1.9,7.01-1.91,10.52-3.07-2.81,3.2-6.86,2.49-10.52,3.07ZM9.94,160.49c-.31.4-.15,1.18-1.06,1.2.21-.44.08-.95.57-1.22.29-.54.58-1.08,1-1.86.51,1.09-.25,1.39-.5,1.88ZM11.2,158.18c-.04-1.13.89-1.58,1.58-2.21-.03,1.06-.92,1.57-1.58,2.21ZM6.2,158.23c3.66-5.15,11.48-11.87,15.81-11.38-6.73,2.24-10.29,8.1-15.81,11.38ZM6.82,169.84s0,0,0,0c-.08.12-.15.23-.21.35.06-.12.13-.25.21-.37h0Z"/>
  <path class="st0" d="M42.26,80.9c.09.16.17.52.11.55-1.71,1.09-.12,1.88.24,2.77.93.85,1.82,1.75,2.82,2.52,4.2,3.28,8.62,6.06,14.23,6.19.7.01,1.64-.81,2.01,0,.33.69.08,1.69-.05,2.53-.09.61-.42,1.18-.65,1.77,0,0,0,0,0,0-.44,1.76-1.95,2.72-3.08,3.94-2.04,2.21-4.53,2.83-7.58,2.18-3.21-.69-5.31-2.74-7.15-5.08-1.35-1.72-3.35-3.23-3.17-5.85.02-.24-.4-.7-.66-.73-.34-.04-.63.34-.61.74.02.63-.14,1.27.23,1.89,1.98,3.34,3.88,6.74,7.29,8.9,6.29,3.98,12.86,1.17,15.5-4.72-.58.04-.65-.23-.65-.55,0,.31.06.58.63.54,0,0,0,0,0,0,0,0,0,0,0,0,0,0,0,0,.01,0,0,0,0,0,0-.01.97-1.61,1.72-3.47,1.6-5.21-.16-2.27,1.23-2.82,2.65-3.6.44-.24.93-.38,1.35-.64.83-.53,1.27-1.09,1.53-2.26.48-2.16.36-4.82,2.86-6.12-.41-.54-.84-1.06-1.22-1.62-.4-.6.22-.39.43-.5-.04-2.74-.08-5.48-.11-8.21-.67-3.46-.63-6.92-.03-10.38-.12-1.13-.25-2.27-.37-3.4-.05-.48-.3-.9-.76-.91-.83,0-.48.71-.54,1.13-.14.96.27,1.84.49,2.74,0,0,0,0,0,.01,0,.02,0,.04,0,.06-.02,4.42-.04,8.83-.07,13.25,0,.02,0,.04,0,.06,0,0,0,0,0,0h0s0,0,0,0c.06.03.13.08.19.08h0s.07-.01.1-.03c-.03.02-.07.04-.1.04-.07,0-.13-.05-.2-.08-.9-.6-1.88-.99-2.95-1.17-2.31-.38-4.58-.15-6.85.32-2.92.59-5.98.35-8.81,1.66-1.23.57-2.75.53-4.15-.14-2.23-1.05-3.97-2.65-5.49-4.54-1.31-.21-2.48-.61-2.94-2.04h0c-.2-.62-.73-.6-1.24-.57-.77.04-.63.66-.66,1.12-.17,2.52.61,4.79,2.17,6.68,1.66,2,2.34,4.47,3.6,6.65ZM61.1,97.45s0,0,0,0c.01.05.02.1.02.15,0-.05,0-.1-.02-.15ZM57.66,91.28h2.82c-.87.39-1.84.39-2.82,0ZM59.49,88.77c.97-.23,1.93-.37,3.03.01-1.11.34-2.07.24-3.03-.01ZM51.76,76.42h0s0,0,0,0c1.27,1.24,1.72,2.98,2.77,4.37,1.57,2.08,3.49,3.29,6.14,2.77h0c2.65-.51,3.8-2.7,4.88-4.84.2-.4.24-.71.16-.97.09.25.05.57-.16.98-1.08,2.13-2.23,4.33-4.88,4.84-2.65.51-4.56-.69-6.14-2.77-1.05-1.39-1.5-3.14-2.77-4.37.18,1.76,1.21,3.15,2.18,4.5,1.26,1.76,2.7,3.34,5.2,3.32h0c3.16-.03,6.84-2.98,7.41-6.09.16-.87-.02-1.6-1.09-1.73-2.8-.35-5.6-.62-8.42-.42-1.02.07-2.04.84-3.06-.03,0,0,0,0,0-.02.58-.86,1.44-.3,2.16-.4,3.65-.48,7.52.32,10.86-1.9.58-.39,1.23.03,1.17.39-.28,1.68,1.2,2.99.94,4.55-.29,1.73-.41,3.46-2.63,4.41-1.83.79-4.19,1.38-4.93,3.79-.03.1-.23.22-.35.22-2.71.08-5.5,1.32-8.11.3-4.73-1.85-5.24-6.8-1.33-10.92ZM53.88,77.95c3.4-.53,6.52-.69,9.67-.28h0c1.38.18,1.33.63.76,1.5-1.21,1.85-2.36,3.94-5.02,3.71-2.96-.25-4.24-2.47-5.41-4.93Z"/>
  <path class="st0" d="M478.98,167.9c1.04-.29,2.01-.72,2.98-1.17.81-.37.9-.95.58-1.56-.41-.78-.88-.03-1.22.16-1.96,1.09-4.16,1.37-6.33,2.15-.04-.66-.02-1.16-.11-1.64-.18-.96.52-2.7-.98-2.63-1.85.08.17,1.54-.36,2.34-.46.69.86,2.23-.97,2.28-1.36.04-2.73.15-4.08-.31-.71-.24-1.43-.26-1.47-1.23-.03-.95.29-1.7,1.15-2.13.44-.22.93-.37,1.41-.5,4.02-1.06,7.84-2.57,11.23-5.03.49-.35,1.41-.54.88-1.34-.47-.71-1.24-.18-1.7.17-1.25.96-2.61,1.67-4.17,2.2-.08-.83,0-1.59-.24-2.24-.41-1.09-.1-1.35.94-1.96,5.03-2.94,10.4-3.41,16.02-2.78.71.08,1.18.34,1.62.89.62.79,1.23.49,1.31-.34.13-1.34.73-.83,1.56-.7,3.33.5,6.56,1.73,10,1.4,0,0,0,0,0,0h18.22s0,0,0,0c-.13-.13-.28-.22-.42-.28.15.06.3.15.44.29h.46s0,0,0,0c.85.23.86-.31.86-.91,0-1.07-.72-.73-1.3-.69,0,0,0,0,0,0h-.46c-.4.42-.92.36-1.42.36h-18.69c-.57,0-1.17.12-1.61-.41-.41-.14-.81-.32-1.24-.4-3.57-.67-7.19-.73-10.81-.92-4.61-.23-9.02.36-13.3,2.02-1.3.5-2.44,2.79-3.99.25-.15-.24-.96-.1-1.46-.11-4.15-.02-7.94,1.94-12.04,2.19-.42.02-.58.27-.69.67-.37,1.34-.89,2.61-.85,4.09.1,3.89.03,3.89-3.58,2.3-.1-.05-.15-.23-.22-.36.41-.47.93-.62,1.53-.6.53.02,1.05,0,1.01-.75-.05-.79-.69-.6-1.14-.64-1.31-.11-2.48.07-2.82,1.64-.36,1.68.81,2.09,2.04,2.46-1.72,1.54-1.82,2.3-.25,3.72.45.41.48.62.18,1-2.11,2.72.38,4.72,2.91,4.65,1.54-.05,2.27.41,2.59,2.02.42,2.16,1.71,2.82,3.84,2.17,1.86-.56,3.81-.72,5.64-1.23,2.39-.66,4.89-1.29,6.91-2.92v.02l.04-.05h0s-.03.01-.04.03c0-.92.26-1.96-.07-2.75h0c-.8-1.88.23-2.5,1.68-2.9ZM507.02,153.93c3.03-.13,6.07-.19,9.1-.19-3.03,0-6.07.06-9.1.19h0ZM456.07,166.22h0c-.1-.89,1.01-.96,1.87-.89.79-.13,1.35,0,1.24,1.05-.06.59,0,1.31-.85,1-.81-.3-2.16-.22-2.27-1.16ZM458.95,172.16h0c-1-.17-2.31.02-2.44-1.49-.1-1.15.74-1.4,1.9-1.45,1.62-.35,1.15,1.3,1.51,2.11.39.88-.41.93-.97.84ZM461.22,169.37c-.47-3.08-1.17-6.14-.59-9.25.19,0,.39,0,.59,0v9.26ZM472,174c-2.39.35-4.67,1.32-7.15,1.27-.81-.02-1.37-.12-1.61-.94-.36-.14-.5-.41-.55-.72.05.31.2.57.55.71-.14-.15-.35-.23-.35-.5,0,.27.21.35.35.5-.07-5.18-.15-10.36-.22-15.55.02-.61.38-1.34-.46-1.68-.54-.22-.82.23-1.23.55-.77.6-.48-.7-1.07-.73,3.67-.78,7.28-.7,10.89-.22.67.09,1.54.78,1.8-.2.28-1.05-.88-1.01-1.57-1.25h-2.68c1.17-.52,1.93-.4,2.68-.35,1.91-.4,2.52.5,2.58,2.29.12,3.49.18,3.5-3.3,4.62-.95.31-1.92.54-2.87.85-1.89.62-2.45,2.23-2.35,3.91.09,1.54,1.13,2.47,2.84,2.68,1.07.13,2.13.27,3.21.37.73.07,2.18-.72,1.98,1.01-.14,1.21.98,2.99-1.48,3.35ZM474.94,173.68v-4.3c.58,1.24,1.79,2.45,0,4.3Z"/>
  <path class="st0" d="M346.2,58.54c-2.25,2.01-2,2.91.69,4.46.74.43,2.07.5,1.86,1.75-.41,2.38-.71,4.7.82,6.83-1.27,1.5.92,2.02.91,3.17,0,1.6.96,2.6,2.21,3.4.58.32,1.02.75,1.3,1.35h-.01c2.76.05,5.45-.37,8.08-1.23,2.77-.91,5.55-1.79,8.35-2.64.41-.13,1.21.79,1.22-.32,0-.74-.56-1.33-1.47-1.1-.83.2-1.64.45-2.47.69-3.76,1.1-7.38,2.75-11.41,2.82-1.3.02-2.43-.28-3.32-1.24-1.37-1.47-.99-3.16.88-3.74,2.26-.7,3.59-2.52,5.06-4.13.84-.92.95-2.27.61-3.48-.23-.84-.73-1.67-1.89-1.06-1.98,1.03-4.23.6-6.3,1.16-.33.08-.82.32-.77-.25.18-2.33-1.85-2.65-3.21-3.54-.67-.44-1.41-.71-.43-1.48,2.59-2.03,2.69-4.89,2.72-7.8.03-2.91.39-5.75,2.16-8.21h0s.02,0,.04-.01c.07.25.07.63.23.7h0c1.58.71,7.31-1.27,8.15-2.77.18-.33.34-.63.03-.96-.38-.4-.86-.29-1.16-.03-2.1,1.79-4.73,2.29-7.25,3.06,0-.01,0-.02,0-.04l-.04.05c-.08-.79.24-1.29.9-1.78,1.21-.89,2.33-1.9,3.41-2.94.47-.46,1.75-.8.86-1.75-.71-.76-1.23.2-1.74.64-1.7,1.46-3.48,2.81-5.48,3.88-.31-1.06.21-1.76.63-2.51,2.93-5.23,7.56-8.06,13.18-9.81,10.74-3.34,18.75,1.76,22.45,10.57,2.86,6.8,2.94,14.3.53,21.5-1,3.01-3.14,5.25-5.96,6.78-.49.27-1.56-.15-1.33.9.22,1.03,1.22.61,1.81.46.73-.18,1.46-.61,2.07-1.09,2.86-2.23,4.68-5.17,5.67-8.62,1.33-4.66.93-9.36.45-14.1-.81-8.11-6.4-15.61-14.5-18.34-2.16-.72-4.34-1.06-6.57-.66-3.47.61-6.8,1.71-10.05,3.03-4.66,1.89-7.71,5.57-9.48,9.97-.9,2.22-1.31,2.66-3.53.78.62,3.7,3.23,2.23,4.9,2.82-1.36,2.91-1.64,5.99-1.82,9.16-.11,1.97-.16,4.1-1.96,5.71ZM351.06,66.8c1.9-.33,3.8-.59,5.72-.82,1.41-.16,1.19.56.93,1.34-.59,1.73-4.15,4.23-5.88,4.18-.68-.02-1.79-2.05-1.79-3.41-.07-.63-.03-1.1,1.02-1.29Z"/>
  <path class="st0" d="M16.39,155.45c-.18.12-.34.25-.46.41.17-.14.34-.29.52-.43h0s0-.01.01-.02c-.02.01-.04.03-.07.04Z"/>
  <path class="st0" d="M89.67,213.84h0c-.75.21-1.49.52-2.19.87-1.66.84-3.21,1.87-4.93,2.63-3.9,1.74-8.15,2.16-12.22,3.2-2.74.7-5.89.68-8.78-.36-.75-.27-1.16-.61-1.1-1.52.48-7.24-1.84-13.94-4.07-20.68-1.88-5.69-6.24-8.46-11.57-10.11-.91-.28-2.02-.09-3.01.06-.5.07-1.26.39-1.11,1.07.16.73.85.67,1.41.37.63-.33,1.34-.33,1.91-.15,4.87,1.53,8.96,3.9,10.83,9.12,1.66,4.64,2.92,9.36,3.86,14.18,0,0,0,.02,0,.03.03,3.3.07,6.59.1,9.89,0,.01,0,.02,0,.03.16,3.3,1.17,6.48,1.29,9.8.11,2.92.68,5.83,1.09,8.73.69,4.82,1.87,9.56,2.3,14.42.07.74,0,1.6,1.07,1.49,1.19-.13.68-1.1.58-1.7-1.82-10.15-3.4-20.33-4.25-30.62-.23-2.74-.3-2.71,2.35-2.55,8.67.51,16.83-1.2,24.36-5.62.73-.43,1.4-1.02,2.36-.82.64.13,1.25.03,1.14-.79-.1-.74-.67-1.16-1.42-.96ZM58.81,222.41s0,0,0,0c.15-2.88.3-5.77.04-8.64.26,2.88.12,5.76-.04,8.64Z"/>
  <path class="st0" d="M194.75,205.37h0c-.65-.29-1.34-.48-2.04-.64-1.8-.41-2.91-1.27-3.41-3.25-.49-1.98-1.7-3.66-3.29-5.13-2.88-2.65-6.22-4.61-9.36-6.87-4.19-3.02-8.49-5.88-12.69-8.89-.66-.47-1.16-.68-1.61-.01-.48.7.29,1.01.7,1.34.71.57,1.56.97,2.33,1.45,5.02,3.08,9.42,7.03,14.42,10.13,2.64,1.63,5.01,3.62,6.89,6.11.53.71,1.55,1.72.98,2.39-1.02,1.21-.5,1.71.45,2.32.57.37.5.95.64,1.5.38,1.63.23,3.31.51,4.92,1.04,6.08-.25,11.81-2.48,17.4-3.67,9.18-7.43,18.33-11.14,27.49-.17.41-.79.92-.02,1.23.62.25,1.13.13,1.44-.76.76-2.14,1.76-4.19,2.61-6.31,2.22-5.55,4.08-11.27,6.7-16.63,4.28-8.79,5.62-17.84,3.87-27.54,1.47.47,2.73.94,4.03,1.27.42.11,1.03.95,1.39,0,.27-.73-.27-1.26-.9-1.53Z"/>
  <path class="st0" d="M33.5,76.05s0,0,0,0c.36-.02.73-.1,1.08-.05h0c1.51.23,2.19-.93,2.45-1.93.22-.82-.61-1.7-1.58-1.97-1.52-.42-1.49.93-1.9,1.76-.06.12-.18.2-.53.57,0,0,0,0,0,0-2.47-3.41-4.63-6.81-4.77-11.15-.05-1.61.37-2.97,1.78-3.9,1.28-.85,1.94.23,2.79.85.4.29,1.08.4,1.41-.03.52-.68-.25-.9-.63-1.3-1.11-1.19-2.53-1.2-3.98-1.17,0,0,0,0-.01,0-1.76,1.01-2.36,2.86-3.13,4.7-1.88-4.95-1.42-9.84-.7-14.64.72-4.77,4.1-8.22,6.89-11.91.29-.39,1.17-.58.44-1.31-.56-.55-.97-.04-1.27.29-3.31,3.67-6.4,7.47-7.48,12.49-1.55,7.18-.26,14.01,2.06,20.84,1.28,3.76,3.91,5.98,7.1,7.87ZM35.6,75.04s0,0,0,0c-.54.45-1.35.32-1.89.77.53-.46,1.35-.32,1.89-.78h0ZM34.39,73.45c.35-.47.8-.64,1.23-.41-.42-.22-.88-.05-1.22.41-.44.58-.91.93-1.36.99,0,0,0,0,0,0,.46-.06.93-.41,1.36-.99ZM28.85,59.8c1.24-1.49,2.65-1.35,4.43-.06,0,0,.01.01.02.02h0c-1.8-1.3-3.21-1.44-4.45.05-.18.22-.33.44-.46.67.13-.23.28-.46.46-.68Z"/>
  <path class="st0" d="M37.26,188.69h0c-1.61.2-3,.9-4.21,1.96-1.08.94-2.2,1.88-3.15,2.9-1.94,2.07-3.31,4.57-4.21,7.3-2.18,6.67-1.99,13.6-2.09,20.47-.11,7.78.42,15.54,1.26,23.27.41,3.75,1.16,7.47,2.14,11.13.18.66.37,1.35,1.21,1.2.87-.15.56-.86.41-1.37-2.42-8.1-2.64-16.5-3.43-24.83,0,0,0,0,0,0v-18.59s0-.01.01-.02c.32-2.41.74-4.82.93-7.24.18-2.27,1.6-4.03,2.34-6.05,1.55-4.2,4.74-7.24,9.1-8.78.45-.16.87-.25.85-.74-.04-.72-.66-.66-1.15-.6ZM25.18,212.12s0,0,0,0c-.01.32-.02.65-.03.97.01-.32.02-.65.03-.97ZM25.18,230.7c-.04-.98-.06-1.97-.09-2.95.03.98.05,1.97.09,2.95,0,0,0,0,0,0Z"/>
  <path class="st0" d="M100.03,121.93h0c-.78.6-1.77.58-2.65.88-2.31,1.66-4.36,3.61-6.33,5.66-.51.53-.86,1.41-1.87,1.23-.09.17-.17.24-.25.23.08,0,.16-.06.25-.23-.01-.04-.02-.07-.04-.11-.05.05-.11.09-.19.11.07-.02.13-.06.18-.11h0c-1.11-3.03,1.23-3.86,3.28-4.72,1.45-.61,2.63-1.9,4.27-2.05.17-.1.33-.19.5-.28.81-.28,1.59-.7,2.47-.65-.88-.05-1.65.38-2.46.65-.17.09-.33.18-.5.28.22-.02.45-.02.69,0,.88-.3,1.87-.29,2.65-.88,0,0,0,0,0,0,.63-1.1.12-1.5-.93-1.3-3.98.78-7.63,2.37-10.74,4.96-2,1.67-1.83,2.59.33,4.09,0,0,0,0,0,0,0,0,0,0,0,0-1,1.82.67,1.66,2.05,2.05-.65.47-1.04.68-1.34.98-1.11,1.1-1.57,2.43-.91,3.89.24.53.91,1.13,1.6.78.72-.36.39-.9-.06-1.4-.73-.8-.09-1.31.61-2.25.27,1.85.5,3.3.67,4.74.06.54.13,1.06.78.99.5-.06.62-.56.55-1.02-.23-1.48-.41-2.96-.76-4.41-.25-1.04-.08-1.79.83-2.4,2.73-1.8,5.65-2.6,8.94-2.06,1.76.29,3.55.42,5.28.97.59.19,1.98.02,1.27-.85-1.17-1.42-.82-3.76-2.98-4.47.79-.81,1.75-1.54,1.24-2.65-.49-1.07-1.65-.62-2.54-.65-1.3-.05-2.6,0-3.9,0ZM102.96,124.38c-.24.66,1.56,1.58-.28,1.89h0c-1.34.23-.77.99-.34,1.77-3.72-.33-7.21.22-10.53,2,2.52-3.35,5.47-6.05,9.97-6.23.55-.02,1.48-.24,1.18.57Z"/>
  <path class="st0" d="M465.05,11.42h0c2.77.49,3.4,1.15,3.22,3.96-.1,1.57.43,2.12,1.91,2.05.65-.03,1.31.07,1.95.03,1.45-.08,1.93.44,1.57,1.94-.51,2.1-1.69,3.93-2.2,6-.23.92-.98,2.66,1.4,2.06.59-.15.92.4,1.19.79,1.07,1.53,1.54,3.17.89,5.05-.45,1.31-1.23,2.42-1.91,3.59-.5.86-1.33,2.01.64,2.35.92.16.52.8.35,1.34-1.16,3.67-2.47,7.26-5.11,10.19-.42.47-1.11.98-.38,1.61.59.52,1.11-.11,1.47-.49,3.22-3.45,4.59-7.76,5.69-11.63-.04-.94.07-1.52-.1-1.62-1.94-1.17-.39-2.26.14-3.18,1.8-3.15,1.54-6.54-.86-8.67-2.2-1.95-.98-3.17-.46-4.81.13-.4.3-.79.43-1.2,1.11-3.35.39-4.71-3-4.93-1.48-.1-1.82-.61-2.11-1.88-.64-2.78-2.41-4.19-4.57-3.94-.53.06-1.11.15-1.13.73-.01.45.49.57.97.65Z"/>
  <path class="st0" d="M70.98,78.56c-.22.11-.83-.09-.43.5.38.56.81,1.08,1.22,1.62h0c6.01,1.33,11.89,2.81,16.39,7.53,1.85,1.94,4.17,3.4,5.78,5.64,3.28,4.56,5.63,9.46,6.2,15.13.31,3.04,2.36,5.77,1.67,9.01-.1.49.24.77.82.6,1.08-.33,1.57-.92,1.18-2.08-.75-2.28-1.22-4.6-1.58-7.01-.66-4.48-2.49-8.73-4.63-12.75-2.11-3.97-5.56-6.77-8.78-9.85-3.39-3.24-7.23-4.99-11.6-6.22-2.09-.59-4.49-.47-6.23-2.12-.33.93,1.09,1.21.79,2.12h0c.31-.91-1.12-1.19-.79-2.12Z"/>
  <path class="st0" d="M208.69,254.02h0c-3.22-9.15-5.43-18.58-8.07-27.9-1.49-5.27-2.8-10.62-3.15-16.14,0-.58-.04-1.16.01-1.73.05-.65-.09-1.26-.8-1.25-.63.01-.64.69-.62,1.19.06,1.8-.06,3.63.26,5.39,1.99,11.31,5.26,22.3,8.51,33.29.91,3.07,1.97,6.09,2.87,9.16.24.8.65,1.12,1.37.88,1.03-.34.49-.98.16-1.51-.27-.43-.37-.91-.54-1.38Z"/>
  <path class="st0" d="M40.51,34.84h0c1.51.27,2.64-.95,4.15-.95,3.26,0,6.37.93,9.56,1.28,1.17.13,2.09.64,2.85,1.34,4.86,4.49,10,8.79,11.58,15.69.08.33.22.67.41.96.09.14.37.23.56.23.4,0,.44-.39.38-.63-.66-2.21-.63-4.57-2.18-6.6-2.8-3.67-5.61-7.3-9.16-10.26-1.56-1.3-3.28-2.68-5.4-2.78-2.37-.12-4.71-.78-7.23-.42-1.83-.34-3.73.13-5.65.4-.68.1-1.34.23-1.23,1.14.11.9.85.51,1.35.6Z"/>
  <path class="st0" d="M459.03,225.42h0c-.59-.37-.78.18-.94.53-.92,1.93-2.5,3.22-4.1,4.56-5.46,4.57-11.02,9.01-16.29,13.81-1.74,1.58-3.39,3.31-5.63,4.26-.62.27-1.39.88-.84,1.69.65.95,1.07.06,1.65-.32.68-.44,1.34-1.13,2.31-.99,0,0,0,0,0,0h0c.22,2.89,2.2,5.02,3.3,7.53.23.52.84.7,1.29.4.62-.41.03-.82-.14-1.27-.83-2.24-2.79-4.01-2.73-6.65.01-.69-.78-.4-1.24-.45.26-.32.47-.69.77-.96,6.2-5.33,12.4-10.65,18.62-15.96,1.65-1.41,3.19-2.88,4.17-4.85.25-.5.33-.97-.22-1.31ZM435.69,248.53s0-.02,0-.03c-.16.14-.32.29-.48.44,0,0,0,0,0,0,.16-.14.31-.29.47-.43,0,0,0,0,0,0,0,.01,0,.02,0,.03Z"/>
  <path class="st0" d="M439.47,18.08h-.01c2.23,3.45,4.35,7.05,9.16,7.26.98.04,1.43.39,1.36,1.44-.15,2.17,1.02,3.47,2.98,4.16.59.21.86.5,1.02,1.18.4,1.71,2.83,2.52,4.31,1.53.48-.32,1.01-.76.77-1.4-.29-.76-.87-.48-1.42-.2-.6.32-1.25.26-2.12-.12,2.11-2.47.42-2.46-1.5-2.35-1.26.07-2.04-.76-2.46-1.75-.41-.97-.59-2.1.39-2.97.38-.34.63-.71.77-1.23.17-.62.23-1.18-.3-1.55-.77-.55-1.05.25-1.24.69-.62,1.38-1.76,1.37-2.9,1.12-1.55-.34-2.99-.93-4.16-2.11-1.23-1.24-2.24-2.58-2.78-4.26-.23-.73-.85-1.02-1.51-.79-.62.21-.81.67-.36,1.35Z"/>
  <path class="st0" d="M458.4,50.38h0c-.48.24-1.03.36-.89.96.14.63.74.56,1.23.45.55-.14,1.19-.2,1.62-.52,3.35-2.55,5.82-5.68,6.21-8.92,0-4.96-1.79-6.61-5.29-5.86-3.65.78-5.27,3.92-7.27,6.57-.23.31-.38,1.1.29,1.27.59.16,1.13.16,1.45-.77.66-1.86,2.05-3.28,3.47-4.61,1.35-1.26,3.15-1.63,4.61-.84,1.49.81,1.61,2.65,1.12,4.26-1.09,3.54-3.16,6.34-6.55,8.01Z"/>
  <path class="st0" d="M376.58,68.78c.6.73,1.01-.06,1.39-.37.56-.45,1.09-.94,1.52-1.5,2.39-3.15,2.82-6.73,2.34-10.54-.22-1.77-.3-3.51-2.58-3.81-2.28-.31-3.52.54-4.49,2.76-.31.7-.21,1.23.12,1.78.11.17.54.3.76.23.78-.24.56-.82.63-1.48.1-1.04.81-1.92,2.15-1.96,1.33-.04,1.48.79,1.61,1.77.13.92.5,1.81.4,2.78-.51,3.2-.62,6.56-3.47,8.88h0c-.49.39-.86.9-.4,1.46Z"/>
  <path class="st0" d="M448.02,1.87h0c1.48-.94,2.8.05,4.17.03,1.07-.01,1.6.34,1.07,1.6-.72,1.69-.17,2.77,1.83,2.87.5.02,1.01.3,1.48.24,1.71-.23,2.51.61,2.9,2.14.25.99.89,1.77,1.55,2.53.42.49.95.78,1.5.37.78-.57,0-.94-.29-1.36-.45-.63-1.14-1.24-1.26-1.94-.45-2.59-2.28-3.23-4.48-3.44-.64-.06-1.29-.08-2.04-.12.16-.55.22-1.05.46-1.45,1.03-1.72,0-2.52-1.43-2.72-1.91-.26-3.81-.82-5.77-.56-.62.08-1.68-.36-1.53.87.13,1.03,1.34,1.26,1.85.94Z"/>
  <path class="st0" d="M331.21,169.86c.48.14.9-.05,1.19-.34.55-.54,0-.85-.34-1.22-.47-.51-.19-1.06-.04-1.62,1.34-5.02,1.67-10.22,2.72-15.29.19-.92-.43-2.34-1.25-2.43-1.31-.16-.76,1.21-.82,1.97-.18,2.07.15,4.15-.33,6.23-.77,3.4-1.32,6.85-1.93,10.12,0,.54,0,.89,0,1.26-.02.62.13,1.13.81,1.34Z"/>
  <path class="st0" d="M423.09,11.23h0c.32.25.67.22.98-.04.31-.26.46-.64.15-.94-1.43-1.35-.15-2.12.74-2.64,4.04-2.41,8.18-4.63,13.12-4.45.48.02,1.15.17,1.25-.5.13-.78-.59-.89-1.14-.98-.49-.08-1-.06-1.5-.04-4.65.21-8.65,2.21-12.48,4.61-1.1.69-1.98,1.66-2.04,3.45-.04.46.32,1.06.91,1.53Z"/>
  <path class="st0" d="M291.73,100.77h0c-1.22-.11-1.2,1.02-1.3,2-.53,5.04-1.38,10.01-3.09,14.81-.15.43-.7.92-.03,1.29.65.37,1.1-.08,1.4-.62.2-.37.36-.78.48-1.18,1.33-4.73,2.37-9.52,3.11-14.04-.2-1.01.74-2.14-.56-2.26Z"/>
  <path class="st0" d="M432.6,38.26c.01,1.41.29,2.95,1.74,2.9,1.37-.05,1.21-1.78,1.35-2.68,0-1.22.2-2.53-1.16-2.53-1.22,0-1.94.88-1.93,2.31Z"/>
  <path class="st0" d="M64.82,62.97c.26.63.68,1.38,1.54,1.11.76-.24,1.02-.96.94-1.98-.29-1-.34-2.35-1.33-3.3-.41-.39-.81-.05-1.08.31h0c-.96,1.26-.6,2.58-.08,3.86Z"/>
  <path class="st0" d="M49.21,65.17h0c.37,1.26.08,3.08,1.96,3.42.97.17,1.1-.7,1.08-1.47,0-1.68-1.08-3.78-1.96-3.69-1.05.1-1.27,1.11-1.08,1.74Z"/>
  <path class="st0" d="M364.03,42.34h0c-1.33.92-2.44,2.24-4.32,2.04-.57-.06-.74.42-.63.88.13.54.56.8,1.13.8,2.25-.36,3.74-2.27,5.88-2.92.29-.09.06-.91-.49-1.19-.66-.33-1.12.08-1.57.39Z"/>
  <path class="st0" d="M60.09,63.36h0c-.57.02-1.21.32-.84.86,1.17,1.74,1.22,3.94,2.48,5.62.31.4.67.64,1.08.47.5-.21.43-.71.17-1.09-.99-1.5-1.28-3.29-1.99-4.9-.21-.47-.21-.99-.9-.96Z"/>
  <path class="st0" d="M374.63,47.57h0c-1.43-1.07-2.92-2.04-4.11-3.4-.13-.15-.36-.2-.63-.34-.22.12-.56.19-.65.39-.17.37.1.65.38.91,1.3,1.22,2.43,2.61,4.01,3.53.47.27.63,1.4,1.39.76.7-.59.16-1.43-.39-1.84Z"/>
  <path class="st0" d="M503.09,152.29c.43.52,1.04.4,1.61.4h0c6.23,0,12.46,0,18.69,0,.5,0,1.02.05,1.41-.36,0,0,0,0,0,0h0s0,0,0,0c-.04,0-.07,0-.11,0-7.2-.02-14.39-.03-21.59-.05,0,0-.02,0-.03,0,0,0,0,0,0,0h0s0,0,0,0Z"/>
  <path class="st0" d="M353.84,50.91h0c-.98-.11-1.23.85-1.18,1.67.06.98-.51,2.38,1.09,2.61,1.66.23.89-1.22,1.05-1.62.3-1.36.43-2.51-.95-2.66Z"/>
  <path class="st0" d="M70.86,70.35s0-.08,0-.12c0,.04,0,.08,0,.12,0-3.46-.02-6.92-.03-10.38,0,.02,0,.04,0,.06,0-.02,0-.04,0-.06-.6,3.46-.65,6.92.03,10.38Z"/>
  <polygon class="st0" points="233.61 95.17 233.61 95.17 233.61 95.17 233.61 95.17"/>
  <path class="st0" d="M176.63,141.86c.59-2.74.59-5.48,0-8.22v8.22Z"/>
  <path class="st0" d="M176.79,143.4c0-.36-.08-.73-.16-1.09-.03.72-.06,1.44-.09,2.17.69-.7.61-1.42.09-2.17.08.36.16.73.16,1.09Z"/>
  <path class="st0" d="M160.45,65.3h-.01c.51,1.44,1.23,2.73,2.24,3.83,1.52,1.66,4.31,2.22,6.05,1.18,2.85-1.7,5.01-4.03,6.3-7.12.52-1.25.19-1.94-1.23-1.96-.51,0-1.01,0-1.94,0-2.93.32-6.28.64-9.63,1.05-1.81.22-2.43,1.21-1.79,3ZM162.63,63.83c3.55-.38,7.07-1,10.77-1.06-.98,2.36-2.57,4.09-4.46,5.63-1.4,1.14-2.69,1.25-4.28.34-1.64-.93-2.35-2.38-2.85-4.03-.19-.62.19-.81.83-.88Z"/>
  <path class="st0" d="M143.35,57.78c.95.17.9-.47,1.07-1.17.79-3.43,2.24-6.61,4.04-9.61,1.1-1.84,2.55-3.46,4.57-4.41.23-.18.48-.34.71-.53-.24.03-.47.07-.7.13h0,0c.24-.06.47-.1.7-.13.09-.08.18-.15.26-.23.4-.4,1.54-.35,1.09-1.22-.42-.82-1.36-.36-1.91-.07-.86.46-1.65,1.05-2.45,1.62-.02.18-.07.35-.17.49,1.26-.16,1.95-1.65,3.32-1.58h0c-1.37-.07-2.06,1.43-3.32,1.58-.04.05-.09.1-.14.15-3,3.5-5.11,7.49-6.53,11.86-.19.6-.46,1.19-.29,1.89,0,0,0,0,0,0-.17-.71.09-1.3.29-1.9,1.41-4.37,3.52-8.36,6.53-11.86.06-.05.1-.1.14-.15.1-.15.15-.31.17-.49-.23.16-.45.32-.68.48-3.89,3.76-5.53,8.72-7.3,13.6-.21.59-.35,1.35.61,1.53Z"/>
  <path class="st0" d="M171.63,52.11h0c1.47.09.87-1.31,1.04-1.98.13-1.45.14-2.86-1.57-3.07-1.35-.16-1.33,1.18-1.32,1.98.01,1.3.02,2.95,1.84,3.07Z"/>
  <path class="st0" d="M167.59,56.44h0c.41.8,1.04,1.36,1.81.77.66-.52-.05-1.05-.45-1.55-1.07-1.35-1.65-2.94-1.95-4.62-.1-.52.24-1.37-.57-1.37-.83,0-.81.82-.8,1.71.17,1.71,1.11,3.37,1.96,5.07Z"/>
  <path class="st0" d="M159.07,56.13h0c1.65-.13,1.22-1.6,1.42-2.54-.07-1.08.1-2.37-1.37-2.28-1.85.11-1.21,1.8-1.4,2.84-.17.94.09,2.06,1.35,1.97Z"/>
  <path class="st0" d="M378.09,100.67c-2.1.03-4.05.72-6.05,1.24-2.33.6-4.75.86-7.12,1.29-.51.09-1.01.3-.93.96.07.63.6.47.98.51.16-.02.31-.05.45-.07,4.3-.56,8.47-1.89,12.82-2.17.75-.05,1.01-.47.98-1.12-.04-.73-.6-.64-1.11-.64Z"/>
  <path class="st0" d="M375.82,106.66h0c-.59.24-1.22.37-1.83.54-2.55.69-5.15.2-7.72.39-.65.05-1.88-.55-1.83.68.04,1.1,1.24.64,1.95.7.93.07,1.87.01,3.32.01,1.93.09,4.36.08,6.67-.91.65-.27.97-.6.66-1.28-.32-.72-.75-.32-1.21-.13Z"/>
  <path class="st0" d="M256.16,61.98h0c-.16.72.43.89,1.06,1.04,2.67.65,5.37.94,7.7.83,1.58,0,2.74.08,3.89-.02.96-.08,1.58.48,1.96,1.1.34.55-.43.97-.81,1.37-.94.99-1.89,1.98-2.9,2.9-1.82,1.65-4.78,1.58-6.68,0-1.28-1.07-1.83-2.53-2.42-3.99-.17-.42-.16-1.14-.91-.8-.52.24-.6.77-.41,1.31.54,1.48,1.13,2.94,2.24,4.1,1.92,1.98,5.63,3.01,7.21,1.91,1.68-1.17,3.37-2.3,4.72-3.93,1.05-1.27,1.9-2.52,1.15-4.03-.69-1.39-2.27-1.29-3.64-1.27-3.61.05-7.2-.02-10.75-.78-.45-.1-1.2-.68-1.41.27Z"/>
  <path class="st0" d="M263.08,58.72h0c.73.24,1.21-.41,1.19-.87-.07-1.76.76-3.3,1.02-4.75-.09-.68.23-1.34-.56-1.37-.64-.02-.72.5-.83,1.03-.32,1.58-.7,3.15-1.09,4.72-.12.49-.43,1,.27,1.24Z"/>
  <path class="st0" d="M258.11,51.73h0c.23.42.66.53,1.12.42.33-.08.42-.33.36-.62-.05-1.06-2.31-3.56-3.32-3.7-.53-.07-1,.01-1.3.52-.3.5.06,1,.37,1.04,1.49.17,2.13,1.22,2.76,2.35Z"/>
  <path class="st0" d="M272.41,51.72c1.49.08,3.01-.23,4.47.39.33.14.9.19,1.05-.39.12-.48-.16-.71-.6-.94-1.02-.55-2.11-.3-2.98-.41-.76,0-1.34-.04-1.91,0-.45.04-1.09-.1-1.1.67,0,.79.59.65,1.07.67Z"/>
</svg>