<svg width="584" height="247" viewBox="0 0 584 247" fill="none" xmlns="http://www.w3.org/2000/svg">
<path d="M0.124059 1.19106C11.2102 18.3348 27.9186 31.5858 45.9657 37.5447C60.4778 42.3364 74.9829 42.36 89.01 42.3816C93.6625 42.3885 98.4762 42.3963 103.114 42.5899C124.644 43.4859 140.387 49.8251 149.926 61.4353L130.113 73.639C129.863 73.7923 129.722 74.0733 129.749 74.3651C129.775 74.6569 129.964 74.9074 130.237 75.0145L148.829 82.2831C162.408 87.5925 176.79 86.0942 188.288 78.1742C188.513 78.019 188.639 77.7567 188.62 77.4845C188.602 77.2124 188.439 76.9697 188.193 76.8479L152.931 59.3033L141.87 37.7167L158.866 44.6571C170.346 49.3436 180.095 58.6145 186.318 70.7603L189.145 76.28C189.234 76.4519 189.383 76.5845 189.564 76.6523L260.56 103.034C257.716 111.801 255.514 121.071 254.08 130.681C247.782 172.9 256.652 212.013 277.229 232.755C286.546 242.146 297.705 246.999 309.81 247C311.112 247 312.427 246.924 313.75 246.812H583.227C583.654 246.812 584 246.466 584 246.04C584 245.614 583.654 245.268 583.227 245.268H322.521C340.205 240.495 356.67 226.037 369.415 203.886C383.055 180.177 390.879 149.809 390.879 120.567C390.879 87.9521 381.265 59.878 364.503 43.5429C354.964 34.2474 343.654 29.5068 331.776 29.782C302.942 30.4933 274.866 60.2691 261.048 101.566L190.387 75.3093L187.696 70.0568C181.304 57.5829 171.273 48.0546 159.454 43.2275L140.526 35.4991C140.225 35.3754 139.883 35.453 139.663 35.6917C139.445 35.9295 139.398 36.2783 139.544 36.5662L151.672 60.2337C151.748 60.3801 151.868 60.5 152.017 60.5727L186.312 77.6358C175.433 84.6146 162.055 85.7955 149.394 80.8457L132.244 74.1411L151.49 62.2862C151.675 62.1692 151.803 61.9796 151.84 61.7645C151.878 61.5493 151.822 61.3272 151.686 61.1553C141.914 48.7453 125.595 41.9788 103.18 41.0464C98.5106 40.8528 93.6831 40.844 89.014 40.8371C75.1088 40.8145 60.7296 40.7919 46.4526 36.0778C28.7321 30.229 12.3197 17.2069 1.42143 0.35397C1.19028 -0.00366208 0.713236 -0.10879 0.353238 0.124064C-0.00479218 0.355935 -0.10807 0.833432 0.124059 1.19106ZM262.002 103.571L266.766 105.341C264.291 113.223 262.374 121.534 261.155 130.153C255.849 167.661 263.939 202.432 282.271 220.896C290.696 229.382 300.783 233.774 311.709 233.774C313.545 233.774 315.404 233.649 317.283 233.399C335.193 231.024 352.136 217.613 364.99 195.64C377.345 174.518 384.534 147.328 384.714 121.04C384.918 91.2278 376.27 65.5667 360.984 50.6366C352.309 42.1615 342 37.8375 331.165 38.1657C304.874 38.933 279.492 66.1946 267.232 103.867L262.487 102.103C276.076 61.3773 303.589 32.024 331.813 31.3274C332.143 31.3186 332.475 31.3147 332.804 31.3147C343.889 31.3147 354.454 35.9108 363.421 44.6492C379.887 60.6955 389.331 88.3667 389.331 120.568C389.331 182.484 355.806 239.471 316.123 245.01C315.344 245.119 314.57 245.2 313.798 245.269H306.637C306.571 245.269 306.511 245.291 306.449 245.307C296.057 244.486 286.467 239.874 278.326 231.669C258.085 211.266 249.38 172.657 255.608 130.909C257.026 121.405 259.199 112.239 262.002 103.571ZM315.828 121.924C317.566 115.296 321.721 110.244 326.161 109.946C326.293 109.938 326.424 109.933 326.553 109.933C328.164 109.933 329.683 110.6 330.971 111.878C333.618 114.505 335.003 119.281 334.676 124.655C334.136 133.562 329.185 141.191 323.638 141.661C321.827 141.815 320.113 141.146 318.691 139.726C315.986 137.026 314.594 131.906 315.059 126.365C315.143 125.37 315.288 124.394 315.478 123.442L322.379 126.007C322.329 128.062 323.296 129.613 324.638 129.509C326.048 129.399 327.314 127.513 327.467 125.305C327.62 123.108 326.612 121.418 325.216 121.52C324.092 121.603 323.064 122.827 322.612 124.445L315.828 121.924ZM314.366 121.381L307.619 118.875C310.966 106.629 318.812 97.3282 327.103 96.832C327.33 96.8183 327.558 96.8124 327.784 96.8124C330.89 96.8124 333.822 98.0955 336.301 100.55C341.201 105.402 343.827 114.172 343.324 124.009C342.466 140.794 333.16 155.245 322.58 156.221C319.014 156.556 315.666 155.263 312.899 152.497C307.733 147.331 305.138 137.579 306.127 127.05C306.341 124.765 306.721 122.533 307.235 120.38L314.006 122.896C313.782 123.98 313.615 125.095 313.52 126.237C313.009 132.309 314.535 137.761 317.599 140.82C319.185 142.403 321.083 143.228 323.12 143.228C323.334 143.228 323.551 143.219 323.769 143.199C330.048 142.668 335.633 134.391 336.218 124.748C336.571 118.939 335.016 113.718 332.06 110.784C330.343 109.08 328.274 108.262 326.057 108.406C320.926 108.75 316.291 114.135 314.366 121.381ZM306.145 118.326L297.282 115.033C302.785 95.9419 315.254 81.5266 328.251 80.8594C328.563 80.8437 328.874 80.8349 329.184 80.8349C334.158 80.8349 338.859 82.8893 342.835 86.8124C350.485 94.362 354.696 107.966 354.099 123.202C353.061 149.679 337.994 173.502 321.197 175.225C315.358 175.819 309.888 173.759 305.392 169.252C297.013 160.853 292.936 145.014 294.755 127.916C295.172 124 295.888 120.183 296.861 116.524L305.759 119.831C305.216 122.106 304.815 124.471 304.587 126.905C303.541 138.046 306.238 148.021 311.804 153.587C314.586 156.369 317.909 157.816 321.478 157.816C321.889 157.816 322.303 157.797 322.72 157.759C334.036 156.713 343.97 141.609 344.866 124.088C345.391 113.82 342.596 104.61 337.387 99.4533C334.408 96.5029 330.823 95.0615 327.009 95.2914C317.95 95.8338 309.661 105.4 306.143 118.327L306.145 118.326ZM295.794 114.481L289.55 112.16C296.665 87.8932 312.368 70.1265 329.077 69.373C329.427 69.3572 329.776 69.3494 330.123 69.3494C336.47 69.3494 342.481 71.9737 347.567 76.9785C357.198 86.4577 362.602 103.517 362.022 122.611C360.986 156.665 341.805 187.454 320.136 189.846C312.55 190.675 305.469 188.043 299.662 182.213C288.807 171.314 283.659 150.759 286.227 128.569C286.824 123.408 287.81 118.411 289.124 113.648L295.38 115.972C294.389 119.741 293.654 123.687 293.221 127.753C291.354 145.302 295.6 161.62 304.3 170.343C308.587 174.639 313.709 176.872 319.22 176.872C319.927 176.872 320.639 176.834 321.357 176.761C339.179 174.932 354.561 150.933 355.646 123.262C356.26 107.6 351.878 93.5632 343.924 85.714C339.384 81.2328 333.935 79.0202 328.173 79.3159C314.315 80.0273 301.451 94.6292 295.796 114.479L295.794 114.481ZM288.106 111.624L282.79 109.648C291.44 81.1188 310.105 60.3133 329.786 59.5302C330.151 59.5155 330.517 59.5076 330.881 59.5076C338.426 59.5076 345.582 62.6291 351.642 68.5781C362.974 79.704 369.435 99.7107 368.927 122.095C367.999 162.932 345.216 200.014 319.175 203.069C310.017 204.142 301.484 201.004 294.506 193.99C281.407 180.822 275.337 155.977 278.664 129.148C279.438 122.907 280.696 116.873 282.351 111.132L287.677 113.111C286.32 117.989 285.303 123.107 284.692 128.393C282.072 151.039 287.388 172.079 298.568 183.303C303.971 188.728 310.429 191.543 317.393 191.543C318.356 191.543 319.328 191.489 320.309 191.38C343.087 188.867 362.493 158.039 363.569 122.658C364.162 103.143 358.586 85.655 348.655 75.8791C342.977 70.2906 336.182 67.5042 329.011 67.8314C311.692 68.6135 295.443 86.7967 288.109 111.624H288.106ZM281.346 109.111L275.144 106.806C285.595 73.58 307.601 49.4556 330.565 48.6745C330.931 48.6618 331.298 48.6559 331.664 48.6559C340.552 48.6559 348.999 52.3363 356.156 59.3445C369.367 72.2802 377.035 95.5213 376.667 121.515C375.98 170.164 349.139 214.562 318.054 218.462C307.068 219.84 296.863 216.14 288.536 207.76C272.822 191.945 265.734 162.074 270.041 129.806C271.037 122.339 272.626 115.131 274.691 108.286L280.904 110.595C279.206 116.447 277.917 122.597 277.129 128.959C273.745 156.248 279.982 181.584 293.408 195.079C299.792 201.495 307.426 204.822 315.668 204.822C316.885 204.822 318.113 204.749 319.353 204.604C332.616 203.047 345.277 193.367 355.003 177.345C364.387 161.889 370.024 141.764 370.47 122.131C370.989 99.3286 364.354 78.8983 352.724 67.4777C346.06 60.9352 338.109 57.6507 329.724 57.9877C309.432 58.7963 290.217 80.0204 281.346 109.112V109.111ZM273.703 106.271L268.672 104.402C280.706 67.2989 305.53 40.4578 331.21 39.7082C331.564 39.6984 331.918 39.6925 332.271 39.6925C342.287 39.6925 351.819 43.8436 359.903 51.74C374.891 66.3793 383.369 91.6346 383.168 121.03C382.787 176.411 352.522 227.168 317.079 231.869C304.513 233.535 292.856 229.366 283.367 219.808C265.37 201.68 257.445 167.409 262.684 130.368C263.888 121.86 265.775 113.656 268.209 105.878L273.248 107.751C271.14 114.702 269.521 122.021 268.51 129.603C264.142 162.336 271.396 192.7 287.441 208.847C294.931 216.386 303.894 220.289 313.589 220.29C315.125 220.29 316.678 220.191 318.248 219.994C334.004 218.017 348.971 206.357 360.392 187.161C371.391 168.678 377.887 144.76 378.214 121.538C378.593 94.7353 370.947 71.6652 357.24 58.2432C349.479 50.6445 340.253 46.8038 330.514 47.132C306.939 47.9337 284.381 72.4787 273.705 106.271H273.703Z" fill="#FF6900"/>
</svg>
