<svg preserveAspectRatio="xMidYMid meet" width="39.0001" height="33.4395" overflow="visible" style="display: block;" viewBox="0 0 39.0001 33.4395" fill="none" xmlns="http://www.w3.org/2000/svg">
<path id="Vector" d="M13.412 27.1086C14.2888 26.0877 14.8208 24.7621 14.8208 23.3137C14.8208 20.0978 12.2045 17.4812 8.98832 17.4812C5.77244 17.4812 3.15611 20.0978 3.15611 23.3137C3.15611 24.7621 3.68782 26.0877 4.56499 27.1086C2.7693 27.9804 1.23485 29.3741 0.205337 31.1523C-0.216286 31.8804 0.0321652 32.8123 0.760262 33.2339C1.48836 33.6555 2.42028 33.4074 2.8422 32.6793C4.06511 30.567 6.30505 29.228 8.73243 29.1397C8.93119 29.1483 9.04545 29.1483 9.24451 29.1397C11.6719 29.228 13.9115 30.567 15.1347 32.6793C15.5552 33.405 16.4862 33.657 17.2167 33.2339C17.9448 32.8123 18.1932 31.8804 17.7716 31.1523C16.7418 29.3744 15.2076 27.9804 13.412 27.1086ZM9.18976 26.0913C8.96392 26.0865 9.0148 26.0865 8.78718 26.0913C7.34497 25.9874 6.20299 24.7818 6.20299 23.3137C6.20299 21.7777 7.45239 20.5281 8.98832 20.5281C10.5243 20.5281 11.774 21.7777 11.774 23.3137C11.774 24.7818 10.632 25.9874 9.18976 26.0913ZM38.7948 31.1523C37.765 29.3744 36.2308 27.9804 34.4351 27.1086C35.312 26.0877 35.844 24.7621 35.844 23.3137C35.844 20.0978 33.2277 17.4815 30.0115 17.4815C26.7956 17.4815 24.1793 20.0978 24.1793 23.3137C24.1793 24.7621 24.711 26.088 25.5882 27.1086C23.7922 27.9804 22.258 29.3744 21.2285 31.1523C20.8069 31.8804 21.0553 32.8126 21.7834 33.2342C22.5115 33.6555 23.4434 33.4074 23.8651 32.6793C25.0883 30.567 27.3282 29.228 29.7556 29.1397C29.9544 29.1483 30.0686 29.1483 30.2677 29.1397C32.6951 29.228 34.9347 30.567 36.1579 32.6793C36.5783 33.405 37.5094 33.657 38.2398 33.2342C38.9679 32.8126 39.2164 31.8804 38.7948 31.1523ZM30.2129 26.0913C29.9871 26.0865 30.038 26.0865 29.8103 26.0913C28.3681 25.9874 27.2262 24.7818 27.2262 23.3137C27.2262 21.7777 28.4756 20.5281 30.0115 20.5281C31.5474 20.5281 32.7971 21.7777 32.7971 23.3137C32.7971 24.7818 31.6551 25.9874 30.2129 26.0913ZM25.6462 15.1972C26.0675 15.9256 26.9994 16.1743 27.7275 15.753C28.4559 15.3317 28.7047 14.3998 28.2833 13.6717C27.2532 11.8909 25.7182 10.4951 23.921 9.62266C24.7997 8.60238 25.3323 7.27651 25.3323 5.82775C25.3323 2.61425 22.7159 0 19.5001 0C16.2839 0 13.6675 2.61425 13.6675 5.82775C13.6675 7.27651 14.2004 8.60238 15.0788 9.62266C13.2819 10.4951 11.7466 11.8909 10.7165 13.6717C10.2951 14.3998 10.5439 15.3317 11.2723 15.753C12.0004 16.1743 12.9326 15.9256 13.3539 15.1972C14.5923 13.0561 16.8733 11.7091 19.3358 11.6516C19.5384 11.6573 19.4614 11.6573 19.664 11.6516C22.1265 11.7091 24.4075 13.0561 25.6462 15.1972ZM19.6527 8.60446C19.4388 8.60119 19.5893 8.60089 19.3474 8.60446C17.8823 8.52501 16.7144 7.31013 16.7144 5.82775C16.7144 4.29449 17.9641 3.04688 19.5001 3.04688C21.036 3.04688 22.2857 4.29449 22.2857 5.82775C22.2857 7.31013 21.1178 8.52501 19.6527 8.60446Z" fill="var(--fill-0, #FF6900)"/>
</svg>
