<svg preserveAspectRatio="xMidYMid meet" width="29" height="28.9997" overflow="visible" style="display: block;" viewBox="0 0 29 28.9997" fill="none" xmlns="http://www.w3.org/2000/svg">
<g id="Group">
<path id="Vector" d="M28.6457 26.9371L20.3989 18.6903C21.9963 16.7171 22.9581 14.2099 22.9581 11.4791C22.9581 5.14988 17.8082 0 11.479 0C5.14983 0 0 5.14983 0 11.479C0 17.8082 5.14989 22.9581 11.4791 22.9581C14.2099 22.9581 16.7171 21.9963 18.6903 20.3989L26.9371 28.6457C27.1727 28.8813 27.482 28.9997 27.7914 28.9997C28.1008 28.9997 28.4101 28.8813 28.6457 28.6457C29.1182 28.1732 29.1181 27.4095 28.6457 26.9371ZM11.4791 20.5414C6.48144 20.5414 2.41666 16.4767 2.41666 11.479C2.41666 6.48138 6.48144 2.41661 11.4791 2.41661C16.4767 2.41661 20.5415 6.48138 20.5415 11.479C20.5415 16.4767 16.4767 20.5414 11.4791 20.5414Z" fill="var(--fill-0, black)"/>
</g>
</svg>
