<svg width="105.172" height="95.4842" overflow="visible" style="display: block;" viewBox="0 0 105.172 95.4842" fill="none" xmlns="http://www.w3.org/2000/svg">
<path id="&#226;&#128;&#156;" opacity="0.2" d="M41.2716 3.49758C37.774 6.29566 34.1598 9.32691 30.429 12.5913C26.9314 15.8557 23.5504 19.4699 20.286 23.4338C17.2548 27.3978 14.6899 31.5949 12.5913 36.0252C10.7259 40.2223 9.79325 44.7692 9.79325 49.6658C9.79325 54.3292 10.4928 58.06 11.8918 60.8581C13.524 63.6561 14.6899 65.6381 15.3894 66.804C16.7884 65.1718 18.6538 63.3064 20.9855 61.2078C23.5504 59.1093 26.8149 58.06 30.7788 58.06C35.9086 58.06 40.2223 59.6922 43.7199 62.9566C47.2175 66.221 48.9663 70.6513 48.9663 76.2475C48.9663 80.9109 47.1009 85.3412 43.3701 89.5383C39.6394 93.5023 34.7427 95.4842 28.6802 95.4842C22.6178 95.4842 17.7211 94.2018 13.9904 91.6369C10.2596 89.072 7.34494 86.0407 5.24638 82.5431C3.14783 78.8124 1.74879 75.0816 1.04928 71.3508C0.349758 67.3869 0 64.2391 0 61.9073C0 54.4458 1.28245 47.5672 3.84735 41.2716C6.64542 34.7427 10.0264 28.9134 13.9904 23.7836C17.9543 18.4206 22.1514 13.7572 26.5817 9.79325C31.012 5.82931 34.9759 2.56489 38.4735 0L41.2716 3.49758ZM97.4773 3.49758C93.9797 6.29566 90.3656 9.32691 86.6348 12.5913C83.1372 15.8557 79.7562 19.4699 76.4918 23.4338C73.4606 27.3978 70.8956 31.5949 68.7971 36.0252C66.9317 40.2223 65.999 44.7692 65.999 49.6658C65.999 54.3292 66.6985 58.06 68.0976 60.8581C69.7298 63.6561 70.8956 65.6381 71.5952 66.804C72.9942 65.1718 74.8596 63.3064 77.1913 61.2078C79.7562 59.1093 83.0206 58.06 86.9846 58.06C92.1144 58.06 96.4281 59.6922 99.9256 62.9566C103.423 66.221 105.172 70.6513 105.172 76.2475C105.172 80.9109 103.307 85.3412 99.5759 89.5383C95.8451 93.5023 90.9485 95.4842 84.886 95.4842C78.8235 95.4842 73.9269 94.2018 70.1961 91.6369C66.4654 89.072 63.5507 86.0407 61.4522 82.5431C59.3536 78.8124 57.9546 75.0816 57.255 71.3508C56.5555 67.3869 56.2058 64.2391 56.2058 61.9073C56.2058 54.4458 57.4882 47.5672 60.0531 41.2716C62.8512 34.7427 66.2322 28.9134 70.1961 23.7836C74.1601 18.4206 78.3572 13.7572 82.7874 9.79325C87.2177 5.82931 91.1817 2.5649 94.6793 7.73641e-07L97.4773 3.49758Z" fill="var(--fill-0, #FF6900)"/>
</svg>
