<svg width="42.5859" height="38.6632" overflow="visible" style="display: block;" viewBox="0 0 42.5859 38.6632" fill="none" xmlns="http://www.w3.org/2000/svg">
<path id="&#226;&#128;&#156;" d="M16.7116 1.41623C15.2953 2.54922 13.8319 3.77662 12.3212 5.09844C10.905 6.42026 9.53598 7.8837 8.21416 9.48876C6.98675 11.0938 5.94818 12.7933 5.09844 14.5872C4.34312 16.2867 3.96545 18.1278 3.96545 20.1105C3.96545 21.9988 4.2487 23.5095 4.81519 24.6425C5.4761 25.7755 5.94818 26.578 6.23143 27.0501C6.79792 26.3892 7.55325 25.6338 8.4974 24.7841C9.53598 23.9344 10.8578 23.5095 12.4629 23.5095C14.54 23.5095 16.2867 24.1704 17.7029 25.4922C19.1192 26.814 19.8273 28.6079 19.8273 30.8739C19.8273 32.7622 19.0719 34.5561 17.5613 36.2556C16.0507 37.8606 14.0679 38.6632 11.6131 38.6632C9.15831 38.6632 7.17558 38.1439 5.66494 37.1053C4.15429 36.0668 2.97409 34.8394 2.12435 33.4231C1.27461 31.9125 0.708117 30.4018 0.42487 28.8912C0.141623 27.2861 0 26.0115 0 25.0673C0 22.046 0.519285 19.2608 1.55786 16.7116C2.69084 14.0679 4.05987 11.7075 5.66494 9.63038C7.27 7.45882 8.96948 5.57051 10.7634 3.96545C12.5573 2.36039 14.1623 1.03857 15.5786 0L16.7116 1.41623ZM39.4702 1.41623C38.054 2.54922 36.5906 3.77662 35.0799 5.09844C33.6637 6.42026 32.2946 7.8837 30.9728 9.48876C29.7454 11.0938 28.7069 12.7933 27.8571 14.5872C27.1018 16.2867 26.7241 18.1278 26.7241 20.1105C26.7241 21.9988 27.0074 23.5095 27.5739 24.6425C28.2348 25.7755 28.7068 26.578 28.9901 27.0501C29.5566 26.3892 30.3119 25.6338 31.2561 24.7841C32.2946 23.9344 33.6165 23.5095 35.2215 23.5095C37.2987 23.5095 39.0454 24.1704 40.4616 25.4922C41.8778 26.814 42.5859 28.6079 42.5859 30.8739C42.5859 32.7622 41.8306 34.5561 40.32 36.2556C38.8093 37.8606 36.8266 38.6632 34.3718 38.6632C31.917 38.6632 29.9343 38.1439 28.4236 37.1053C26.913 36.0668 25.7328 34.8394 24.883 33.4231C24.0333 31.9125 23.4668 30.4018 23.1835 28.8912C22.9003 27.2861 22.7587 26.0115 22.7587 25.0673C22.7587 22.046 23.278 19.2608 24.3165 16.7116C25.4495 14.0679 26.8185 11.7075 28.4236 9.63038C30.0287 7.45882 31.7281 5.57051 33.522 3.96545C35.3159 2.36039 36.921 1.03857 38.3372 3.1326e-07L39.4702 1.41623Z" fill="var(--fill-0, #FF6900)"/>
</svg>
