<svg width="41" height="41" viewBox="0 0 41 41" fill="none" xmlns="http://www.w3.org/2000/svg">
<path d="M20.5 3.84375C11.301 3.84375 3.84375 11.301 3.84375 20.5C3.84375 29.699 11.301 37.1562 20.5 37.1562C29.699 37.1562 37.1562 29.699 37.1562 20.5C37.1562 19.7924 37.7299 19.2188 38.4375 19.2188C39.1451 19.2188 39.7188 19.7924 39.7188 20.5C39.7188 31.1142 31.1142 39.7188 20.5 39.7188C9.8858 39.7188 1.28125 31.1142 1.28125 20.5C1.28125 9.8858 9.8858 1.28125 20.5 1.28125C21.2076 1.28125 21.7812 1.85488 21.7812 2.5625C21.7812 3.27012 21.2076 3.84375 20.5 3.84375Z" fill="white"/>
<path d="M20.5 12.8125C16.2543 12.8125 12.8125 16.2543 12.8125 20.5C12.8125 24.7457 16.2543 28.1875 20.5 28.1875C24.7457 28.1875 28.1875 24.7457 28.1875 20.5C28.1875 19.7924 28.7611 19.2188 29.4688 19.2188C30.1764 19.2188 30.75 19.7924 30.75 20.5C30.75 26.1609 26.1609 30.75 20.5 30.75C14.8391 30.75 10.25 26.1609 10.25 20.5C10.25 14.8391 14.8391 10.25 20.5 10.25C21.2076 10.25 21.7812 10.8236 21.7812 11.5312C21.7812 12.2389 21.2076 12.8125 20.5 12.8125Z" fill="white"/>
<path fill-rule="evenodd" clip-rule="evenodd" d="M26.9275 7.37468L27.1295 12.021L20.2347 18.9159C19.7343 19.4162 19.7343 20.2274 20.2347 20.7278C20.735 21.2281 21.5462 21.2281 22.0466 20.7278L28.9414 13.833L33.5877 14.035C33.9465 14.0506 34.2954 13.9149 34.5494 13.6609L39.3058 8.9045C39.665 8.54523 39.7781 8.00762 39.5938 7.53407C39.4097 7.06052 38.963 6.74059 38.4555 6.71849L34.4194 6.54302L34.2439 2.507C34.2219 1.99938 33.9019 1.55277 33.4284 1.36857C32.9549 1.18437 32.4172 1.29739 32.0579 1.65668L27.3015 6.41311C27.0476 6.66705 26.9118 7.01593 26.9275 7.37468ZM29.663 11.2994L29.512 7.82652L31.8104 5.52815L31.9103 7.82767C31.9392 8.49161 32.4709 9.0232 33.1347 9.0521L35.4343 9.1521L33.136 11.4504L29.663 11.2994Z" fill="white"/>
</svg>
