<svg preserveAspectRatio="xMidYMid meet" width="39" height="39.0002" overflow="visible" style="display: block;" viewBox="0 0 39 39.0002" fill="none" xmlns="http://www.w3.org/2000/svg">
<g id="Group">
<path id="Vector" d="M23.3798 22.8507C24.5062 21.8065 25.2129 20.3157 25.2129 18.6623C25.2129 15.5122 22.6501 12.9494 19.5 12.9494C16.35 12.9494 13.7871 15.5122 13.7871 18.6623C13.7871 20.3157 14.4939 21.8065 15.6203 22.8507C11.8678 24.3851 9.21684 28.0751 9.21684 32.3732V37.8576C9.21684 38.4886 9.72841 39.0002 10.3594 39.0002H28.6407C29.2717 39.0002 29.7832 38.4886 29.7832 37.8576V32.3732C29.7832 28.0751 27.1322 24.3851 23.3798 22.8507ZM19.5 15.2346C21.3901 15.2346 22.9278 16.7722 22.9278 18.6623C22.9278 20.5523 21.3901 22.09 19.5 22.09C17.61 22.09 16.0723 20.5523 16.0723 18.6623C16.0723 16.7722 17.61 15.2346 19.5 15.2346ZM27.4981 36.715H11.502V32.3732C11.502 27.9631 15.0899 24.3752 19.5 24.3752C23.9102 24.3752 27.4981 27.9631 27.4981 32.3732V36.715Z" fill="var(--fill-0, #FF6900)"/>
<path id="Vector_2" d="M37.8252 15.8322H31.4752L32.5716 14.7359C33.0178 14.2896 33.0178 13.5662 32.5716 13.12C32.1254 12.6738 31.402 12.6738 30.9558 13.12L27.9089 16.1669C27.4627 16.6131 27.4627 17.3365 27.9089 17.7827L30.9558 20.8296C31.402 21.2758 32.1254 21.2758 32.5716 20.8296C33.0178 20.3834 33.0178 19.66 32.5716 19.2138L31.4752 18.1174H37.8575C38.5068 18.1174 39.0297 17.5758 38.9987 16.9196C38.9698 16.305 38.4404 15.8322 37.8252 15.8322Z" fill="var(--fill-0, #FF6900)"/>
<path id="Vector_3" d="M11.0912 16.1669L8.04432 13.12C7.59811 12.6738 6.8747 12.6738 6.42849 13.12C5.98227 13.5662 5.98227 14.2896 6.42849 14.7359L7.52483 15.8322H1.17491C0.559674 15.8322 0.0302796 16.305 0.00133429 16.9196C-0.0295915 17.5757 0.493252 18.1174 1.14262 18.1174H7.52483L6.42841 19.2138C5.9822 19.66 5.9822 20.3834 6.42841 20.8296C6.87463 21.2758 7.59803 21.2758 8.04425 20.8296L11.0911 17.7827C11.5374 17.3365 11.5374 16.6131 11.0912 16.1669Z" fill="var(--fill-0, #FF6900)"/>
<path id="Vector_4" d="M22.9667 9.35477C23.13 9.9643 23.7565 10.326 24.366 10.1627L28.5282 9.04742C29.1377 8.88411 29.4994 8.25759 29.3361 7.64807C29.1728 7.03854 28.5463 6.6768 27.9368 6.84011L26.4391 7.24138L29.6302 1.7142C29.9457 1.16774 29.7585 0.468942 29.212 0.153438C28.6655 -0.162294 27.9667 0.0251645 27.6513 0.571622L24.4601 6.09881L24.0588 4.60111C23.8955 3.99159 23.269 3.62985 22.6595 3.79316C22.05 3.95647 21.6882 4.58299 21.8516 5.19251L22.9667 9.35477Z" fill="var(--fill-0, #FF6900)"/>
<path id="Vector_5" d="M12.561 7.24147L11.0633 6.84019C10.4538 6.67688 9.82728 7.03862 9.66397 7.64815C9.50065 8.25768 9.86239 8.88419 10.4719 9.0475L14.634 10.1627C15.2436 10.326 15.8701 9.96431 16.0334 9.35486L17.1486 5.19275C17.3119 4.58322 16.9503 3.95671 16.3407 3.79339C15.7312 3.63008 15.1047 3.99182 14.9414 4.60135L14.5401 6.09904L11.3489 0.571705C11.0243 0.00932818 10.2937 -0.17257 9.7409 0.182315C9.22316 0.514652 9.07843 1.20949 9.38609 1.74224L12.561 7.24147Z" fill="var(--fill-0, #FF6900)"/>
</g>
</svg>
