<svg preserveAspectRatio="xMidYMid meet" width="26" height="26" overflow="visible" style="display: block;" viewBox="0 0 26 26" fill="none" xmlns="http://www.w3.org/2000/svg">
<g id="instagram 1" clip-path="url(#clip0_0_147)">
<path id="Vector" d="M25.9746 7.64407C25.9137 6.26259 25.6903 5.31284 25.3702 4.48986C25.0401 3.61629 24.5322 2.83419 23.8667 2.18402C23.2166 1.52374 22.4293 1.01066 21.5659 0.685681C20.7381 0.365657 19.7933 0.142255 18.4118 0.0813452C17.02 0.015277 16.5782 3.01756e-08 13.0482 3.01756e-08C9.51823 3.01756e-08 9.07638 0.015277 7.68974 0.0761868C6.30826 0.137097 5.35851 0.360697 4.53573 0.680522C3.66196 1.01067 2.87986 1.51858 2.22969 2.18402C1.56941 2.83419 1.05654 3.62145 0.731353 4.4849C0.411329 5.31284 0.187927 6.25743 0.127018 7.63891C0.0609494 9.03071 0.0456724 9.47255 0.0456724 13.0025C0.0456724 16.5325 0.0609494 16.9744 0.121859 18.361C0.182769 19.7425 0.406369 20.6922 0.726393 21.5152C1.05654 22.3888 1.56941 23.1709 2.22969 23.8211C2.87986 24.4813 3.66712 24.9944 4.53057 25.3194C5.35851 25.6394 6.30311 25.8628 7.68478 25.9237C9.07122 25.9848 9.51327 25.9999 13.0433 25.9999C16.5732 25.9999 17.0151 25.9848 18.4017 25.9237C19.7832 25.8628 20.733 25.6394 21.5557 25.3194C23.3031 24.6438 24.6846 23.2624 25.3601 21.5152C25.6799 20.6873 25.9035 19.7425 25.9644 18.361C26.0254 16.9744 26.0406 16.5325 26.0406 13.0025C26.0406 9.47255 26.0355 9.03071 25.9746 7.64407ZM23.6332 18.2594C23.5773 19.5292 23.364 20.2149 23.1862 20.672C22.7493 21.8047 21.8504 22.7037 20.7177 23.1405C20.2606 23.3183 19.5699 23.5316 18.3051 23.5873C16.9337 23.6484 16.5224 23.6635 13.0534 23.6635C9.58429 23.6635 9.16785 23.6484 7.80145 23.5873C6.53167 23.5316 5.84598 23.3183 5.38886 23.1405C4.8252 22.9322 4.31213 22.6021 3.89568 22.1703C3.46396 21.7487 3.13382 21.2408 2.92549 20.6772C2.74772 20.22 2.53444 19.5292 2.47869 18.2646C2.41758 16.8932 2.4025 16.4817 2.4025 13.0127C2.4025 9.54358 2.41758 9.12713 2.47869 7.76093C2.53444 6.49115 2.74772 5.80547 2.92549 5.34835C3.13382 4.78449 3.46396 4.27162 3.90084 3.85497C4.32225 3.42325 4.83016 3.0931 5.39402 2.88498C5.85114 2.70721 6.54198 2.49393 7.8066 2.43798C9.17797 2.37707 9.58945 2.36179 13.0583 2.36179C16.5326 2.36179 16.9439 2.37707 18.3103 2.43798C19.58 2.49393 20.2657 2.70721 20.7228 2.88498C21.2865 3.0931 21.7996 3.42325 22.216 3.85497C22.6477 4.27658 22.9779 4.78449 23.1862 5.34835C23.364 5.80547 23.5773 6.49611 23.6332 7.76093C23.6941 9.13229 23.7094 9.54358 23.7094 13.0127C23.7094 16.4817 23.6941 16.8881 23.6332 18.2594Z" fill="var(--fill-0, black)"/>
<path id="Vector_2" d="M13.0482 6.3235C9.36089 6.3235 6.36917 9.31502 6.36917 13.0025C6.36917 16.6901 9.36089 19.6816 13.0482 19.6816C16.7357 19.6816 19.7273 16.6901 19.7273 13.0025C19.7273 9.31502 16.7357 6.3235 13.0482 6.3235ZM13.0482 17.3351C10.6561 17.3351 8.71569 15.3949 8.71569 13.0025C8.71569 10.6102 10.6561 8.67001 13.0482 8.67001C15.4406 8.67001 17.3807 10.6102 17.3807 13.0025C17.3807 15.3949 15.4406 17.3351 13.0482 17.3351Z" fill="var(--fill-0, black)"/>
<path id="Vector_3" d="M21.5508 6.05943C21.5508 6.9205 20.8526 7.61868 19.9913 7.61868C19.1303 7.61868 18.4321 6.9205 18.4321 6.05943C18.4321 5.19816 19.1303 4.50018 19.9913 4.50018C20.8526 4.50018 21.5508 5.19816 21.5508 6.05943Z" fill="var(--fill-0, black)"/>
</g>
<defs>
<clipPath id="clip0_0_147">
<rect width="26" height="26" fill="white"/>
</clipPath>
</defs>
</svg>
