<svg preserveAspectRatio="xMidYMid meet" width="32" height="33" overflow="visible" style="display: block;" viewBox="0 0 32 33" fill="none" xmlns="http://www.w3.org/2000/svg">
<g id="Group">
<path id="Vector" d="M9.75 21.3984C9.75 19.2661 8.06775 17.5312 6 17.5312C3.93225 17.5312 2.25 19.2661 2.25 21.3984C2.25 23.5308 3.93225 25.2656 6 25.2656C8.06775 25.2656 9.75 23.5308 9.75 21.3984ZM6 22.6875C5.31075 22.6875 4.75 22.1092 4.75 21.3984C4.75 20.6876 5.31075 20.1094 6 20.1094C6.68925 20.1094 7.25 20.6876 7.25 21.3984C7.25 22.1092 6.68925 22.6875 6 22.6875Z" fill="var(--fill-0, #FF6900)"/>
<path id="Vector_2" d="M19.75 21.3984C19.75 19.2661 18.0677 17.5312 16 17.5312C13.9323 17.5312 12.25 19.2661 12.25 21.3984C12.25 23.5308 13.9323 25.2656 16 25.2656C18.0677 25.2656 19.75 23.5308 19.75 21.3984ZM16 22.6875C15.3108 22.6875 14.75 22.1092 14.75 21.3984C14.75 20.6876 15.3108 20.1094 16 20.1094C16.6892 20.1094 17.25 20.6876 17.25 21.3984C17.25 22.1092 16.6892 22.6875 16 22.6875Z" fill="var(--fill-0, #FF6900)"/>
<path id="Vector_3" d="M26 25.2656C23.9578 25.2656 22.1412 26.2811 21 27.848C19.8588 26.2811 18.0422 25.2656 16 25.2656C13.9578 25.2656 12.1412 26.2811 11 27.848C9.85881 26.2811 8.04225 25.2656 6 25.2656C2.53919 25.2656 0 28.1587 0 31.7109C0 32.4229 0.559625 33 1.25 33C1.94037 33 2.5 32.4229 2.5 31.7109C2.5 29.5063 4.00469 27.8438 6 27.8438C8.06775 27.8438 9.75 29.5786 9.75 31.7109C9.75 32.4229 10.3096 33 11 33C11.6904 33 12.25 32.4229 12.25 31.7109C12.25 29.5786 13.9323 27.8438 16 27.8438C18.0677 27.8438 19.75 29.5786 19.75 31.7109C19.75 32.4229 20.3096 33 21 33C21.6904 33 22.25 32.4229 22.25 31.7109C22.25 29.5786 23.9323 27.8438 26 27.8438C27.9953 27.8438 29.5 29.5063 29.5 31.7109C29.5 32.4229 30.0596 33 30.75 33C31.4404 33 32 32.4229 32 31.7109C32 28.1525 29.4552 25.2656 26 25.2656Z" fill="var(--fill-0, #FF6900)"/>
<path id="Vector_4" d="M29.75 21.3984C29.75 19.2661 28.0677 17.5312 26 17.5312C23.9323 17.5312 22.25 19.2661 22.25 21.3984C22.25 23.5308 23.9323 25.2656 26 25.2656C28.0677 25.2656 29.75 23.5308 29.75 21.3984ZM26 22.6875C25.3108 22.6875 24.75 22.1092 24.75 21.3984C24.75 20.6876 25.3108 20.1094 26 20.1094C26.6892 20.1094 27.25 20.6876 27.25 21.3984C27.25 22.1092 26.6892 22.6875 26 22.6875Z" fill="var(--fill-0, #FF6900)"/>
<path id="Vector_5" d="M11 16.5C13.0677 16.5 14.75 14.7652 14.75 12.6328C14.75 10.5004 13.0677 8.76562 11 8.76562C8.93225 8.76562 7.25 10.5004 7.25 12.6328C7.25 14.7652 8.93225 16.5 11 16.5ZM11 11.3438C11.6892 11.3438 12.25 11.922 12.25 12.6328C12.25 13.3436 11.6892 13.9219 11 13.9219C10.3108 13.9219 9.75 13.3436 9.75 12.6328C9.75 11.922 10.3108 11.3438 11 11.3438Z" fill="var(--fill-0, #FF6900)"/>
<path id="Vector_6" d="M18.5 12.6328C18.5 14.7652 20.1823 16.5 22.25 16.5C24.3177 16.5 26 14.7652 26 12.6328C26 10.5004 24.3177 8.76562 22.25 8.76562C20.1823 8.76562 18.5 10.5004 18.5 12.6328ZM22.25 11.3438C22.9392 11.3438 23.5 11.922 23.5 12.6328C23.5 13.3436 22.9392 13.9219 22.25 13.9219C21.5608 13.9219 21 13.3436 21 12.6328C21 11.922 21.5608 11.3438 22.25 11.3438Z" fill="var(--fill-0, #FF6900)"/>
<path id="Vector_7" d="M16 7.73438C18.0677 7.73438 19.75 5.99955 19.75 3.86719C19.75 1.73482 18.0677 0 16 0C13.9323 0 12.25 1.73482 12.25 3.86719C12.25 5.99955 13.9323 7.73438 16 7.73438ZM16 2.57812C16.6892 2.57812 17.25 3.1564 17.25 3.86719C17.25 4.57798 16.6892 5.15625 16 5.15625C15.3108 5.15625 14.75 4.57798 14.75 3.86719C14.75 3.1564 15.3108 2.57812 16 2.57812Z" fill="var(--fill-0, #FF6900)"/>
</g>
</svg>
