<svg preserveAspectRatio="xMidYMid meet" width="218" height="37" overflow="visible" style="display: block;" viewBox="0 0 218 37" fill="none" xmlns="http://www.w3.org/2000/svg">
<g id="logo" clip-path="url(#clip0_0_129)">
<path id="Vector" d="M24.7117 14.3756C21.8207 14.3756 19.865 11.9651 19.865 7.92235C19.865 3.50956 21.7782 1.00118 24.632 1.00118C26.9066 1.00118 28.4424 2.30706 28.942 4.73926H29.3405L29.1811 0.941324H28.9207L28.6603 1.92074C27.3423 1.00118 26.0456 0.593088 24.5098 0.593088C20.3008 0.593088 17.4098 3.71632 17.4098 8.02574C17.4098 12.3351 20.2424 14.8871 24.2122 14.8871C25.9075 14.8871 27.3423 14.3157 28.9207 13.2112L29.2768 14.2341H29.5159V9.84309H29.1545C28.6178 12.8031 27.0022 14.3756 24.7064 14.3756M36.2758 5.32691C33.6239 5.32691 31.4291 7.32926 31.4291 10.0825C31.4291 12.8357 33.5229 14.8381 36.2332 14.8381C38.9436 14.8381 40.9418 12.531 40.9418 9.97912C40.9418 7.62853 38.9276 5.32147 36.2758 5.32147M36.1376 14.4137C34.3839 14.4137 33.3635 12.8629 33.3635 10.1043C33.3635 7.34559 34.5008 5.735 36.1535 5.735C37.9073 5.735 39.0073 7.24765 39.0073 10.0226C39.0073 12.7976 37.9923 14.4137 36.1376 14.4137ZM57.1346 13.086V8.30868C57.1346 6.34985 56.3374 5.34868 54.3233 5.34868C52.9681 5.34868 51.8096 6.00162 51.1347 7.14426C50.8955 5.97985 49.939 5.32691 48.4616 5.32691C47.0852 5.32691 46.0489 5.94176 45.3314 7.16603V6.98103C45.3314 6.36618 45.2304 5.75676 45.071 5.14191C43.955 5.63162 43.0356 5.92 42.2597 5.92V6.32809H42.4404C43.5192 6.32809 43.6946 6.71441 43.6946 7.90059V13.1296C43.6946 13.8859 43.2748 14.1307 42.2597 14.1525V14.5824C43.195 14.5007 43.9763 14.479 44.5715 14.479C45.2092 14.479 45.9851 14.5225 46.8832 14.5824V14.1525C45.8469 14.1307 45.4483 13.9076 45.4483 13.0915V8.96706C45.4483 7.12794 46.3837 6.00706 47.8026 6.00706C48.9399 6.00706 49.5351 6.71985 49.5351 8.00941V13.135C49.5351 13.8696 49.1365 14.1144 48.2012 14.1579V14.5878C48.9771 14.5279 49.6998 14.4844 50.4119 14.4844C51.0709 14.4844 51.8309 14.5279 52.6865 14.5878V14.1579C51.6874 14.1362 51.2888 13.8913 51.2888 13.0969V8.9725C51.2888 7.13338 52.2082 6.0125 53.6431 6.0125C54.7803 6.0125 55.3755 6.70897 55.3755 8.01485V12.814C55.3755 12.999 55.3543 13.1187 55.3543 13.1404C55.3543 13.8968 54.9557 14.1416 53.9353 14.1634V14.5932C54.8707 14.5116 55.6519 14.4899 56.2471 14.4899C56.8848 14.4899 57.666 14.5334 58.5588 14.5932V14.1634C57.5225 14.1416 57.124 13.9185 57.124 13.1024M65.611 5.32691C64.3143 5.32691 63.3577 5.81662 62.6403 6.87765C62.5605 6.14309 62.4808 5.57176 62.3639 5.14191C61.2479 5.63162 60.3285 5.92 59.5526 5.92V6.32809H59.7333C60.8121 6.32809 60.9928 6.71441 60.9928 7.90059V18.4565C60.9928 18.6415 60.9716 18.7449 60.9716 18.7612C60.9716 19.5175 60.573 19.7624 59.5579 19.7841V20.2357C60.4135 20.1759 61.1948 20.1106 61.8697 20.1106C62.5446 20.1106 63.3258 20.1704 64.1814 20.2357V19.7841C63.1451 19.7624 62.7465 19.5393 62.7465 18.7231V13.5159C63.5224 14.3538 64.3834 14.7401 65.4994 14.7401C68.0131 14.7401 69.9847 12.8629 69.9847 10.0009C69.9847 7.13882 68.13 5.32691 65.6163 5.32691M65.1327 14.1307C63.5384 14.1307 62.7412 13.0915 62.7412 10.9857V9.22823C62.7412 8.35221 62.7412 7.61221 63.0973 7.02456C63.5171 6.33353 64.3727 5.90368 65.1539 5.90368C66.9874 5.90368 68.0078 7.31294 68.0078 10.0716C68.0078 12.8303 66.8333 14.1362 65.138 14.1362M79.6515 13.9893C79.2317 13.9893 78.9925 13.6029 78.9925 12.8847V7.69926C78.9925 6.105 77.8978 5.34868 75.5648 5.34868C73.2318 5.34868 72.1157 6.16485 72.1157 7.04088C72.1157 7.47073 72.3921 7.79721 72.7747 7.79721C73.5719 7.79721 73.5719 7.3075 73.6729 6.73618C73.7738 6.12676 74.4116 5.75676 75.3681 5.75676C76.8668 5.75676 77.3398 6.38794 77.3398 7.6775V8.39029C77.3398 9.10309 77.0422 9.08676 76.1228 9.45132L75.0652 9.85941C72.8704 10.7354 71.7916 11.6169 71.7916 12.9609C71.7916 14.1035 72.5303 14.8218 73.9439 14.8218C75.0227 14.8218 76.2769 14.3321 77.2335 13.4125C77.3929 14.2722 78.1103 14.8435 78.8915 14.8435C79.6728 14.8435 80.2254 14.5388 80.6453 13.8641L80.3849 13.5757C80.1032 13.8206 79.9278 13.9838 79.6462 13.9838M77.2972 12.0903C77.2972 13.3744 75.8039 14.0491 75.044 14.0491C74.1458 14.0491 73.6463 13.4996 73.6463 12.5365C73.6463 11.2687 74.8208 10.4144 77.2972 9.41323V12.0903ZM85.0349 8.79838C83.7967 8.10191 83.2174 7.73735 83.2174 6.89941C83.2174 6.22471 83.7967 5.77853 84.5938 5.77853C85.5292 5.77853 86.4486 6.57294 86.6505 7.75912H86.9694V7.14426C86.9694 6.59471 86.9906 6.00162 87.0066 5.365H86.7674L86.3901 5.87647C85.7736 5.51191 85.1731 5.32691 84.5566 5.32691C83.0421 5.32691 82.0217 6.36618 82.0217 7.81897C82.0217 9.10853 82.8614 9.84309 84.4769 10.7191C85.7524 11.3938 86.5123 11.8237 86.5123 12.8412C86.5123 13.7009 85.7524 14.3701 84.7798 14.3701C83.5841 14.3701 82.5638 13.4125 82.2874 11.7965H82.0111C82.0111 12.4276 82.0323 12.901 82.0323 13.2275C82.0323 13.3907 82.0323 13.8424 82.0111 14.5932H82.1918L82.5319 14.0219C83.1324 14.5551 83.9455 14.8599 84.7639 14.8599C86.6399 14.8599 87.7559 13.7771 87.7559 12.0196C87.7559 10.0607 86.6186 9.69073 85.0456 8.79294M92.6504 8.79838C91.4122 8.10191 90.8382 7.73735 90.8382 6.89941C90.8382 6.22471 91.4175 5.77853 92.2146 5.77853C93.15 5.77853 94.0693 6.57294 94.2713 7.75912H94.5901V7.14426C94.5901 6.59471 94.6114 6.00162 94.6327 5.365H94.3935L94.0162 5.87647C93.3997 5.51191 92.7992 5.32691 92.1827 5.32691C90.6682 5.32691 89.6478 6.36618 89.6478 7.81897C89.6478 9.10853 90.4875 9.84309 92.103 10.7191C93.3785 11.3938 94.1384 11.8237 94.1384 12.8412C94.1384 13.7009 93.3785 14.3701 92.4059 14.3701C91.2102 14.3701 90.1899 13.4125 89.9135 11.7965H89.6372C89.6372 12.4276 89.6584 12.901 89.6584 13.2275C89.6584 13.3907 89.6584 13.8424 89.6372 14.5932H89.8178L90.158 14.0219C90.7532 14.5551 91.5716 14.8599 92.39 14.8599C94.266 14.8599 95.382 13.7771 95.382 12.0196C95.382 10.0607 94.2447 9.69073 92.6717 8.79294M98.8522 2.10029C99.4315 2.10029 99.8886 1.63235 99.8886 1.06103C99.8886 0.489706 99.4103 0 98.8522 0C98.2942 0 97.8372 0.467941 97.8372 1.06103C97.8372 1.65412 98.2783 2.10029 98.8522 2.10029ZM99.9311 13.086V5.14191C98.7938 5.57176 97.7947 5.83838 96.9178 5.92V6.32809H97.0773C98.1136 6.32809 98.172 6.69265 98.172 7.69382V13.1241C98.172 13.8587 97.7947 14.1035 96.8541 14.1471V14.5769C97.5927 14.5171 98.3314 14.4735 99.0489 14.4735C99.7663 14.4735 100.526 14.5171 101.281 14.5769V14.1471C100.303 14.109 99.9257 13.8641 99.9257 13.086M107.467 5.32691C104.815 5.32691 102.62 7.32926 102.62 10.0825C102.62 12.8357 104.714 14.8381 107.424 14.8381C110.135 14.8381 112.133 12.531 112.133 9.97912C112.133 7.62853 110.119 5.32147 107.467 5.32147M107.329 14.4137C105.575 14.4137 104.555 12.8629 104.555 10.1043C104.555 7.34559 105.692 5.735 107.345 5.735C109.098 5.735 110.198 7.24765 110.198 10.0226C110.198 12.7976 109.183 14.4137 107.329 14.4137ZM122.783 13.086V8.04206C122.783 6.28456 121.704 5.365 119.833 5.365C118.398 5.365 117.341 5.95809 116.544 7.26397C116.522 6.48588 116.443 5.77309 116.262 5.14191C115.146 5.63162 114.227 5.92 113.451 5.92V6.32809H113.631C114.71 6.32809 114.886 6.71441 114.886 7.90059V12.8031C114.886 12.9881 114.864 13.1078 114.864 13.1296C114.864 13.8859 114.466 14.1307 113.451 14.1525V14.5824C114.386 14.5007 115.167 14.479 115.763 14.479C116.4 14.479 117.176 14.5225 118.074 14.5824V14.1525C117.038 14.1307 116.639 13.9076 116.639 13.0915V8.94529C116.639 7.23132 117.798 6.00706 119.153 6.00706C120.407 6.00706 121.029 6.71985 121.029 8.17265V13.135C121.029 13.8913 120.609 14.1362 119.594 14.1579V14.5878C120.529 14.5062 121.311 14.4844 121.906 14.4844C122.544 14.4844 123.325 14.5279 124.218 14.5878V14.1579C123.181 14.1362 122.783 13.9131 122.783 13.0969M149.339 26.7162V26.7053C149.28 26.5965 149.195 26.4659 149.094 26.4659C149.083 26.4659 149.046 26.504 149.046 26.6618C149.046 26.6944 149.052 26.8196 149.115 27.2385C149.28 27.9132 149.482 28.8328 149.716 29.9591C149.859 30.5141 149.928 30.9712 149.928 31.3194C149.928 31.6132 149.812 31.956 149.27 31.956C147.468 31.956 145.613 31.6132 143.764 30.9331C142.196 30.3509 140.719 29.464 139.364 28.2941C138.083 27.1515 136.802 25.5844 135.564 23.6365C135.372 23.4188 135.303 23.4025 135.293 23.4025C135.25 23.4025 135.245 23.4079 135.245 23.4569C135.245 23.5331 135.335 23.8704 135.952 25.2851C136.6 26.5203 137.349 27.6901 138.173 28.7512C139.018 29.8829 140.155 30.8896 141.558 31.7493C142.807 32.5709 144.104 33.164 145.406 33.5231C146.915 34.0291 148.536 34.2849 150.226 34.2849C151.581 34.2849 152.554 34.1869 153.117 33.9965C153.521 33.8441 153.728 33.6646 153.728 33.4687C153.728 33.3054 153.595 33.0932 153.346 32.8593C152.118 31.3085 150.779 29.2518 149.339 26.7162ZM131.743 23.8106C131.573 23.8106 131.488 24.0772 131.445 24.3003C131.052 25.5409 130.68 26.3407 130.308 26.776C130.085 27.146 129.739 27.5106 129.303 27.8371C129.192 27.9296 129.133 28.0656 129.133 28.2288C129.133 31.2378 129.218 31.7384 129.256 31.8091L129.277 31.8635C129.33 32.0757 129.431 32.1029 129.505 32.1029C129.569 32.1029 129.819 32.0104 130.414 30.8515C130.956 29.9537 131.35 28.996 131.583 27.9894C131.817 26.8631 131.934 25.6171 131.934 24.2949C131.923 24.1588 131.886 23.816 131.743 23.816M155.328 5.44118C154.233 4.64676 153.808 4.47809 153.643 4.47809C153.324 4.47809 152.936 4.56515 152.49 4.72838C151.64 5.14191 149.525 5.60441 146.23 6.08868L145.528 6.19206L146.065 5.71324C147.016 4.85897 147.702 4.23324 148.1 3.84147C148.419 3.58029 148.435 3.48235 148.435 3.46603C148.435 2.99809 148.26 2.36147 147.909 1.5725C147.5 0.696471 147.149 0.244853 146.857 0.244853C146.793 0.244853 146.697 0.266618 146.623 0.440735C146.533 1.33853 146.246 2.41588 145.767 3.6075C145.443 4.49985 145.061 5.38132 144.619 6.21382L144.566 6.31176L144.46 6.32809C143.429 6.46956 142.255 6.61103 140.968 6.75794L138.885 6.91574L139.098 6.55662C139.204 6.3825 139.321 6.12132 139.449 5.79485C139.661 5.31603 139.762 4.72838 139.762 4.04279C139.762 3.96118 139.693 3.81971 139.358 3.56397C138.434 3.04706 137.482 2.55735 136.552 2.13294C136.34 2.01324 136.175 1.95338 136.047 1.95338C136.016 1.95338 135.994 2.05676 135.994 2.14926C135.994 2.16559 136.005 2.25265 136.233 2.64985C137.153 4.09721 137.822 5.43574 138.226 6.62735L138.317 6.88853L138.062 6.94838C133.332 7.32382 130.117 7.51426 128.512 7.51426C127.714 7.51426 127.714 7.88426 127.714 8.00397C127.714 8.12368 127.81 8.39029 128.453 8.86912C129.176 9.46765 129.755 9.76691 130.18 9.76691C130.388 9.76691 130.685 9.70706 131.084 9.58735C131.195 9.54382 131.567 9.40779 135.527 8.95074L135.835 8.91265L135.75 9.22279C135.309 10.5613 134.708 11.791 133.948 12.9337C133.348 13.8424 132.577 14.4572 131.668 14.751C131.562 14.7782 131.44 14.8435 131.44 15.1374C131.44 15.2571 131.52 15.5019 131.881 15.9862C132.327 16.6065 132.593 16.7697 132.742 16.786L132.827 16.7588H132.869L132.923 16.7207L133.576 16.3888L133.826 16.1004C134.512 15.7631 135.367 15.3768 136.366 14.9632L137.078 14.664L136.611 15.2897C136.425 15.54 136.207 15.8175 135.968 16.1113C134.405 18.0049 133.225 19.2128 132.46 19.7025C132.078 19.9691 131.397 20.1868 130.441 20.3282C130.271 20.3554 130.271 20.4479 130.271 20.4915C130.271 20.6003 130.372 20.8941 131.031 21.6287C131.562 22.2 131.796 22.2871 131.886 22.2871C132.003 22.2871 132.131 22.2163 132.274 22.0694C132.885 21.6994 133.651 21.3349 134.591 20.9485C135.989 20.3772 137.854 19.7732 140.124 19.1529L140.294 19.104L140.368 19.2672C140.586 19.746 140.767 20.2521 140.905 20.7635C140.968 20.9322 141 20.9703 141.016 20.9812C141.107 20.9649 141.346 20.8016 141.58 19.8059C141.718 19.0496 141.787 18.2497 141.787 17.4335H141.782C141.782 17.4335 141.723 17.3628 141.378 17.2757C140.735 17.0254 140.033 16.7915 139.263 16.5793C139.082 16.5249 138.97 16.5031 138.88 16.514C138.853 16.5249 138.843 16.5521 138.843 16.5956C138.843 16.6282 138.859 16.7153 138.981 16.9275C139.31 17.3465 139.624 17.8416 139.895 18.3694L140.028 18.6306L135.176 19.5066L135.633 19.0278C136.494 18.1246 137.344 17.2485 138.152 16.4215C139.098 15.4094 139.863 14.6313 140.373 14.1797C140.74 13.9729 140.899 13.7172 140.899 13.3635C140.899 13.1568 140.804 12.6562 140.618 11.889C140.219 10.545 139.953 10.3981 139.852 10.3981C139.698 10.3981 139.581 10.6266 139.507 10.8171C139.342 11.3449 139.077 11.9107 138.726 12.4929C138.481 12.8194 138.136 13.2874 137.679 13.924L137.626 14.0001L135.197 14.3266L136.797 12.2046C137.004 11.8509 137.296 11.5353 137.679 11.2741C137.727 11.2197 137.764 11.1435 137.764 11.0728C137.764 10.7572 137.519 10.2621 137.036 9.59823C136.924 9.45132 136.802 9.29897 136.68 9.15206L136.441 8.85824L136.813 8.79838C137.817 8.64059 139.002 8.49368 140.341 8.35765C142.621 8.09647 144.8 7.87338 146.82 7.68294L147.133 7.65573L146.979 8.15632C146.575 9.53838 145.985 10.866 145.231 12.1066C144.603 13.0915 143.817 13.7553 142.892 14.0709C142.754 14.0926 142.648 14.1362 142.648 14.3865C142.648 14.5225 142.728 14.7946 143.1 15.3224C143.647 15.9426 143.886 16.0406 143.976 16.0406C144.077 16.0406 144.125 16.0243 144.162 16.0025C144.168 15.9916 144.279 15.91 144.837 15.6597L144.906 15.5509L144.965 15.5291C145.677 15.2299 146.543 14.8925 147.548 14.5225L148.26 14.2613L147.558 15.1428C146.182 16.8894 145.151 18.0103 144.481 18.4728C144.115 18.7231 143.493 18.9135 142.627 19.0332C142.536 19.0496 142.494 19.0985 142.494 19.1965C142.494 19.3271 142.627 19.6372 143.254 20.3337C143.785 20.9104 144.019 20.9921 144.109 20.9921C144.221 20.9921 144.338 20.9322 144.46 20.8125L144.508 20.7744C145.098 20.4643 145.874 20.1215 146.814 19.7624C148.223 19.2346 150.077 18.7013 152.325 18.1735L152.469 18.1409L152.548 18.2715C152.952 18.9353 153.266 19.659 153.478 20.4207C153.579 20.6765 153.638 20.7037 153.643 20.7037C153.776 20.6928 154.063 20.5132 154.329 19.4196C154.467 18.5925 154.536 17.7437 154.536 16.9057C154.483 16.7969 154.297 16.6718 153.994 16.5575C153.16 16.2201 152.219 15.8991 151.183 15.6107C150.981 15.5672 150.816 15.54 150.678 15.54C150.593 15.54 150.593 15.5672 150.593 15.5944C150.593 15.6271 150.614 15.725 150.811 15.9209C151.22 16.3834 151.581 16.8513 151.895 17.3084L152.081 17.5859L146.968 18.4565L147.415 17.9831C148.148 17.2159 148.897 16.4324 149.657 15.6597C150.476 14.751 151.135 14.0491 151.555 13.641C151.969 13.3853 152.15 13.1132 152.15 12.7813C152.15 12.6018 152.033 12.1066 151.799 11.3176C151.379 9.89206 151.145 9.82132 151.103 9.82132C151.05 9.82132 150.885 9.82132 150.763 10.1968C150.598 10.7354 150.338 11.2687 150.003 11.7856C149.796 12.1338 149.397 12.6888 148.823 13.4234L148.77 13.4941L146.145 13.7771L148.01 11.1218C148.217 10.7681 148.515 10.4253 148.887 10.1206C148.945 10.0553 148.983 9.97368 148.983 9.87573C148.983 9.58191 148.738 9.08676 148.254 8.40118C148.127 8.22706 148.005 8.06926 147.888 7.93323L147.617 7.61765L148.026 7.57956C151.119 7.27485 153.861 7.04088 156.168 6.87221C156.518 6.87221 156.518 6.73074 156.518 6.67632C156.518 6.62735 156.433 6.39338 155.307 5.43573M144.545 27.5868C144.667 27.5868 144.928 27.4399 145.31 26.4496C145.496 26.0197 145.592 25.5028 145.592 24.9151C145.592 24.7846 145.443 24.6213 145.167 24.4472C144.136 23.8976 143.073 23.3971 142.031 22.9726C141.792 22.8529 141.59 22.7931 141.415 22.7931C141.399 22.804 141.367 22.8638 141.367 23.0271C141.367 23.0379 141.383 23.1196 141.659 23.4351C142.781 24.8063 143.61 26.0687 144.125 27.2059C144.285 27.5922 144.476 27.5922 144.54 27.5922M155.285 24.9315H155.269C153.861 24.1534 152.272 23.4079 150.55 22.7115C150.205 22.57 149.918 22.4993 149.695 22.4993C149.642 22.5156 149.641 22.5428 149.641 22.5537C149.641 22.6081 149.689 22.7496 150.019 23.0815C152.463 24.9315 154.191 26.9012 155.142 28.9199C155.333 29.3388 155.482 29.3388 155.535 29.3388C155.599 29.3334 155.827 29.1974 156.04 28.1363C156.178 27.3528 156.253 26.5475 156.253 25.7531C156.168 25.4701 155.843 25.1872 155.285 24.9315Z" fill="var(--fill-0, #FF6900)"/>
<path id="Vector_2" d="M168.268 21.0791C168.364 21.3022 168.492 21.411 168.656 21.411C168.805 21.411 168.98 21.1607 169.188 20.6601C169.31 20.3935 169.374 20.0616 169.374 19.659C169.374 19.5066 169.267 19.3271 169.05 19.1149C168.3 18.5435 167.556 18.0593 166.807 17.6566C166.631 17.5478 166.488 17.4825 166.382 17.4716C166.329 17.4716 166.302 17.5315 166.302 17.6566C166.302 17.711 166.371 17.8362 166.504 18.0321C167.306 19.1475 167.896 20.1596 168.279 21.0791M60.3391 32.0975V27.0535C60.3391 25.296 59.2603 24.3819 57.3897 24.3819C55.9548 24.3819 54.8973 24.975 54.1001 26.2809C54.0788 25.5028 53.9991 24.79 53.8237 24.1588C52.7077 24.6485 51.7884 24.9369 51.0125 24.9369V25.345H51.1931C52.272 25.345 52.4473 25.7313 52.4473 26.9175V31.8146C52.4473 31.9996 52.4261 32.1193 52.4261 32.141C52.4261 32.8974 52.0275 33.1422 51.0125 33.164V33.5938C51.9478 33.5122 52.729 33.4904 53.3242 33.4904C53.9619 33.4904 54.7378 33.534 55.6359 33.5938V33.164C54.5996 33.1422 54.2011 32.9191 54.2011 32.1029V27.9622C54.2011 26.2482 55.3596 25.024 56.7148 25.024C57.9689 25.024 58.5907 25.7368 58.5907 27.1896V32.1519C58.5907 32.9082 58.1709 33.1531 57.1559 33.1749V33.6047C58.0912 33.5231 58.8724 33.5013 59.4676 33.5013C60.1053 33.5013 60.8812 33.5448 61.7793 33.6047V33.1749C60.743 33.1531 60.3445 32.93 60.3445 32.1138M11.9254 0.0435294H10.65L9.01314 4.76103H6.22311L7.85993 0.0435294H6.56322L4.94766 4.76103H1.5571L1.13727 5.90368H4.52783L3.54999 8.76029H0.419834L0 9.90294H3.15141L1.53585 14.5769H2.81129L4.42685 9.90294H7.21689L5.60133 14.5769H6.89803L8.51359 9.90294H11.7235L12.1433 8.76029H8.91217L9.89001 5.90368H12.9032L13.3018 4.76103H10.3098L11.9254 0.0435294ZM7.63672 8.76029H4.82543L5.80327 5.90368H8.63582L7.63672 8.76029ZM48.4722 32.0975V24.1588C47.3349 24.5887 46.3411 24.8553 45.4643 24.9369V25.345H45.6237C46.66 25.345 46.7185 25.7096 46.7185 26.7107V32.141C46.7185 32.8756 46.3411 33.1204 45.4005 33.164V33.5938C46.1392 33.534 46.8779 33.4904 47.5953 33.4904C48.3128 33.4904 49.0727 33.534 49.8274 33.5938V33.164C48.8495 33.1259 48.4722 32.881 48.4722 32.1029M186.523 19.8929C187.814 20.9921 188.697 22.1347 189.17 23.3154C189.249 23.4841 189.334 23.5657 189.414 23.5657C189.552 23.5549 189.664 23.3154 189.76 22.8584C189.839 22.4122 189.882 21.9606 189.882 21.5035C189.829 21.2968 189.653 21.1063 189.35 20.9376C188.601 20.4643 187.783 20.029 186.884 19.6209C186.683 19.5393 186.512 19.4957 186.374 19.4957C186.321 19.4957 186.295 19.5229 186.295 19.5774C186.295 19.659 186.369 19.7678 186.518 19.8929M98.916 21.1172C99.4953 21.1172 99.9523 20.6493 99.9523 20.0779C99.9523 19.5066 99.474 19.0169 98.916 19.0169C98.358 19.0169 97.901 19.4849 97.901 20.0779C97.901 20.671 98.3368 21.1172 98.916 21.1172ZM200.638 23.8324C200.681 23.8324 200.76 23.7888 200.882 23.7072C201.781 23.2338 202.551 22.7441 203.205 22.249C203.816 21.7919 204.448 21.1771 205.102 20.4099C205.469 19.9637 205.777 19.6753 206.021 19.5338C206.117 19.4903 206.165 19.4141 206.165 19.3053C206.165 19.0115 205.99 18.6088 205.634 18.0974C205.214 17.5151 204.932 17.2213 204.799 17.2213C204.677 17.2213 204.613 17.3029 204.613 17.4716C204.613 17.9559 204.475 18.4782 204.204 19.0387C203.837 19.8059 203.279 20.6601 202.53 21.6069C201.961 22.3034 201.34 22.9618 200.675 23.5875C200.595 23.6691 200.553 23.7181 200.553 23.7344C200.553 23.8051 200.58 23.8378 200.633 23.8378M47.3987 21.1172C47.978 21.1172 48.435 20.6493 48.435 20.0779C48.435 19.5066 47.9567 19.0169 47.3987 19.0169C46.8407 19.0169 46.3837 19.4849 46.3837 20.0779C46.3837 20.671 46.8248 21.1172 47.3987 21.1172ZM209.279 19.7678C209.662 20.0181 209.933 20.1432 210.092 20.1432C210.145 20.1432 210.22 20.1215 210.315 20.0834C210.576 20.0126 211.272 19.9147 212.415 19.7896C213.621 19.6372 214.716 19.5121 215.694 19.4141C215.8 19.4141 215.858 19.3543 215.858 19.2237C215.858 19.1149 215.704 18.8972 215.391 18.5762C215.093 18.3422 214.822 18.2225 214.578 18.2225C214.524 18.2225 214.408 18.2497 214.232 18.3041C214.041 18.3749 213.796 18.4347 213.499 18.4946C213.148 18.549 212.691 18.6197 212.133 18.7013C211.75 18.7557 211.352 18.8101 210.932 18.87C210.576 18.9244 209.938 18.9897 209.019 19.0604C208.854 19.0604 208.774 19.1149 208.774 19.2291C208.774 19.3434 208.944 19.5229 209.284 19.7732M205.182 21.8082C205.086 21.8082 205.038 21.9007 205.038 22.0803C205.038 22.6244 204.858 23.2229 204.491 23.8759C204.013 24.741 203.29 25.7204 202.312 26.8196C201.579 27.614 200.776 28.3649 199.91 29.0722C199.798 29.1701 199.745 29.23 199.745 29.2626C199.745 29.3715 199.798 29.4313 199.91 29.4313C199.952 29.4313 200.053 29.3878 200.218 29.3062C201.318 28.7349 202.275 28.1526 203.093 27.5541C203.295 27.3854 203.508 27.2113 203.726 27.0318V31.7275C203.726 32.424 203.657 32.9953 203.524 33.436C203.348 33.8822 203.258 34.1815 203.258 34.3338C203.258 34.7093 203.401 35.1554 203.688 35.6669C204.193 36.3471 204.502 36.6899 204.624 36.6899C204.799 36.6899 204.89 36.5429 204.89 36.2491V25.9653C205.065 25.7966 205.251 25.5953 205.442 25.3613C205.889 24.8335 206.266 24.4853 206.564 24.3166C206.702 24.2731 206.765 24.1969 206.765 24.0881C206.765 23.7562 206.553 23.3154 206.133 22.7713C205.671 22.1347 205.357 21.8137 205.198 21.8137M122.841 32.0975V27.0535C122.841 25.296 121.768 24.3819 119.892 24.3819C118.457 24.3819 117.399 24.975 116.602 26.2809C116.581 25.5028 116.501 24.79 116.321 24.1588C115.205 24.6485 114.285 24.9369 113.509 24.9369V25.345H113.69C114.769 25.345 114.944 25.7313 114.944 26.9175V31.8146C114.944 31.9996 114.923 32.1193 114.923 32.141C114.923 32.8974 114.524 33.1422 113.509 33.164V33.5938C114.445 33.5122 115.226 33.4904 115.821 33.4904C116.459 33.4904 117.235 33.534 118.133 33.5938V33.164C117.096 33.1422 116.698 32.9191 116.698 32.1029V27.9622C116.698 26.2482 117.856 25.024 119.212 25.024C120.466 25.024 121.087 25.7368 121.087 27.1896V32.1519C121.087 32.9082 120.668 33.1531 119.653 33.1749V33.6047C120.588 33.5231 121.369 33.5013 121.964 33.5013C122.602 33.5013 123.378 33.5448 124.276 33.6047V33.1749C123.24 33.1531 122.841 32.93 122.841 32.1138M178.52 33.1585C177.866 33.2021 177.074 33.2565 176.134 33.3272C175.618 33.3707 175.018 33.3979 174.337 33.4088C173.769 33.4088 172.647 33.2782 170.973 33.0116C169.182 32.7178 167.609 32.4185 166.265 32.1138C165.967 32.0431 165.648 31.9887 165.308 31.9451C167.577 29.7197 169.724 27.5378 171.749 25.394C172.578 24.5343 173.2 23.9684 173.625 23.7018C173.912 23.5331 174.146 23.4079 174.337 23.3263C174.449 23.3263 174.502 23.2447 174.502 23.076C174.502 22.9944 174.3 22.706 173.891 22.2218C173.508 21.8354 173.258 21.6396 173.136 21.6396C172.998 21.6396 172.828 21.781 172.626 22.0585C172.488 22.2272 172.355 22.4013 172.217 22.5809C171.972 22.7224 171.616 22.8257 171.159 22.8965C170.033 23.0488 168.784 23.2012 167.407 23.3535C165.616 23.5494 163.847 23.7344 162.109 23.9194C161.96 23.9194 161.886 23.9738 161.886 24.0881C161.886 24.1697 162.04 24.3656 162.353 24.6703C162.731 24.9913 163.034 25.1491 163.252 25.1491C163.4 25.1491 163.756 25.0675 164.309 24.8988C164.676 24.8009 165.234 24.6757 165.978 24.5234L171.255 23.7725C170.373 24.8716 169.416 26.0306 168.38 27.2549C167.386 28.5063 166.01 30.0244 164.245 31.8037C163.826 31.7601 163.363 31.7438 162.858 31.7438C162.167 31.7438 161.524 31.7765 160.945 31.8472C160.685 31.9016 160.557 31.9887 160.557 32.0975C160.557 32.2063 160.695 32.3913 160.966 32.6416C161.28 32.9463 161.583 33.0987 161.886 33.0987C162.295 33.0987 162.747 33.0171 163.252 32.8484C163.725 32.7232 164.298 32.6579 164.963 32.6579C165.372 32.6579 166.015 32.7885 166.897 33.0551C168.364 33.4578 170.755 34.3121 174.072 35.6234C174.236 35.7213 174.406 35.7703 174.582 35.7703C174.895 35.7594 175.39 35.5799 176.07 35.2479C177.797 34.4263 178.658 33.8169 178.658 33.4088C178.658 33.2401 178.61 33.1585 178.514 33.1585M188.76 27.8207C188.76 27.7228 188.707 27.6738 188.596 27.6738C188.527 27.6738 188.42 27.7282 188.272 27.8425L184.116 31.0746V23.3318C184.116 22.7604 184.179 22.2599 184.302 21.83C184.397 21.5797 184.445 21.324 184.445 21.0574C184.445 20.8071 184.206 20.4479 183.733 19.9746C183.164 19.3651 182.776 19.055 182.569 19.055C182.458 19.055 182.404 19.1366 182.404 19.3053C182.404 19.4304 182.505 19.8984 182.707 20.7037C182.872 21.5634 182.952 22.3306 182.952 22.9999V29.2572C182.952 30.4107 182.883 31.1888 182.75 31.5915C182.644 31.9397 182.463 32.2607 182.218 32.5491C182.107 32.6906 182.054 32.8157 182.054 32.9246C182.054 33.0769 182.218 33.2837 182.543 33.5503C182.936 33.855 183.186 34.0074 183.297 34.0074C183.473 34.0074 183.6 33.9257 183.685 33.7571C184.53 32.5056 186.151 30.6121 188.553 28.0819C188.691 27.9404 188.755 27.8534 188.755 27.8099M217.267 23.2501C216.751 22.8475 216.427 22.6462 216.289 22.6462C216.167 22.6462 216.023 22.6843 215.864 22.7496C215.417 22.9999 214.078 23.2665 211.851 23.544C209.598 23.7399 208.142 23.8378 207.488 23.8378C207.148 23.8378 206.978 23.9521 206.978 24.1697C206.978 24.3112 207.127 24.4907 207.424 24.7138C207.844 25.0621 208.19 25.2362 208.466 25.2362C208.535 25.2362 208.636 25.2144 208.774 25.1763C208.95 25.1219 210.06 24.9696 212.096 24.7193H212.154C212.197 24.8716 212.266 25.0893 212.356 25.3668C212.643 26.7162 212.787 28.3812 212.787 30.3509V33.1041C212.744 33.6591 212.601 33.9366 212.356 33.9366C212.261 33.9366 211.851 33.7571 211.134 33.3925C210.507 33.0279 210.161 32.8484 210.092 32.8484C210.039 32.8484 210.013 32.9028 210.013 33.0171C210.013 33.0715 210.076 33.1912 210.199 33.3707C210.985 34.3284 211.841 35.4493 212.765 36.7279C212.904 36.9075 213.01 37 213.09 37C213.334 37 213.531 36.6735 213.679 36.0206C213.828 35.3241 213.903 34.546 213.903 33.6863V27.429C213.903 27.195 213.977 26.9284 214.126 26.6346C214.264 26.3299 214.328 26.0904 214.328 25.9272C214.328 25.6932 214.014 25.296 213.392 24.741C213.339 24.6866 213.276 24.6376 213.206 24.5941C215.013 24.3982 216.523 24.2622 217.729 24.1751C217.904 24.1751 217.995 24.1207 217.995 24.0065C217.995 23.8922 217.75 23.6474 217.261 23.2556M79.3167 31.3031L74.7517 19.5665H74.2946L69.7296 30.7535C69.0919 32.326 68.672 33.0171 67.2372 33.1803V33.5666C67.9759 33.5068 68.6933 33.485 69.3523 33.485C69.7721 33.485 70.5108 33.5068 71.5259 33.5666V33.1803C70.5268 33.1422 70.0485 32.7722 70.0485 31.9941C70.0485 31.7112 70.1282 31.3194 70.3089 30.8297L71.1857 28.5825H76.2291L77.1484 31.0746C77.3663 31.684 77.446 32.2172 77.446 32.3804C77.446 32.8701 76.9465 33.0932 75.8517 33.1749V33.5612C76.8083 33.5013 77.7649 33.4796 78.7002 33.4796C79.5399 33.4796 80.4965 33.5013 81.5487 33.5612V33.1749C80.2308 33.0715 79.795 32.5437 79.3167 31.2976M71.4036 27.9949L73.7951 22.0966L76.0271 27.9949H71.4036ZM196.344 32.5763C195.393 31.6731 194.335 30.8188 193.166 30.0081C193.357 29.6054 193.527 29.1593 193.676 28.675C193.947 27.6466 194.181 26.2754 194.367 24.5669C194.542 22.5482 194.776 21.2151 195.058 20.5622C195.196 20.2303 195.26 19.98 195.26 19.8113C195.26 19.7025 194.984 19.3543 194.426 18.7666C193.745 18.1409 193.347 17.8253 193.224 17.8253C193.129 17.8253 193.081 17.9015 193.081 18.0538C193.081 18.081 193.124 18.4728 193.203 19.2237C193.272 20.5731 193.304 21.4328 193.304 21.8082C193.304 22.6407 193.224 23.7235 193.06 25.0403C192.842 26.64 192.528 27.984 192.124 29.0668C191.689 30.2094 191.115 31.2487 190.392 32.1954C189.781 32.9898 189.079 33.6809 188.293 34.2794C187.421 34.9596 186.534 35.5472 185.625 36.0315C185.381 36.2001 185.258 36.3035 185.258 36.3471C185.258 36.4559 185.306 36.5157 185.402 36.5157C185.657 36.5157 186.311 36.2491 187.357 35.7213C188.282 35.2751 189.186 34.6984 190.068 33.991C191.019 33.2401 191.768 32.4403 192.31 31.5915C192.528 31.2432 192.736 30.8841 192.943 30.5087C194.548 32.0649 195.653 33.6809 196.264 35.3513C196.36 35.6288 196.466 35.7703 196.588 35.7703C196.727 35.7594 196.838 35.5146 196.934 35.0412C197.014 34.5841 197.056 34.1325 197.056 33.6863C196.987 33.2674 196.748 32.9028 196.344 32.5818M86.6346 33.1803C84.6417 33.1803 83.5044 31.771 83.5044 29.1375C83.5044 26.3625 84.6576 24.7682 86.3742 24.7682C87.2138 24.7682 87.4317 25.0131 87.6283 25.5463C87.8303 26.0578 87.9472 26.3244 88.5424 26.3244C88.8613 26.3244 89.1217 26.0796 89.1217 25.6715C89.1217 24.9369 88.1226 24.3438 86.5708 24.3438C83.5203 24.3438 81.5062 26.5257 81.5062 29.3225C81.5062 32.1193 83.4194 33.8768 86.034 33.8768C87.3679 33.8768 88.468 33.4088 89.2811 32.511L88.9835 32.1029C88.2235 32.8375 87.4902 33.1857 86.6292 33.1857M107.531 24.3438C104.879 24.3438 102.684 26.3462 102.684 29.0994C102.684 31.8526 104.778 33.855 107.488 33.855C110.198 33.855 112.191 31.5479 112.191 28.996C112.191 26.6509 110.177 24.3438 107.525 24.3438M107.392 33.4251C105.639 33.4251 104.624 31.8744 104.624 29.1212C104.624 26.3679 105.761 24.7519 107.414 24.7519C109.167 24.7519 110.262 26.2646 110.262 29.0396C110.262 31.8146 109.247 33.4306 107.392 33.4306M94.3297 33.1803C93.4104 33.1803 93.0543 32.5709 93.0543 31.3412V25.1981H95.366V24.5832H93.033V22.336H92.6929C92.0765 23.4787 91.2952 24.3384 90.4184 24.8662V25.1926H91.3537V31.2324C91.3537 32.9246 91.7735 33.7843 93.7239 33.7843C94.8399 33.7843 95.5999 33.4143 96.0782 32.5382L95.7221 32.2118C95.3235 32.8429 94.8665 33.1694 94.3244 33.1694M99.9948 32.0975V24.1588C98.8576 24.5887 97.8638 24.8553 96.9869 24.9369V25.345H97.1463C98.1826 25.345 98.2411 25.7096 98.2411 26.7107V32.141C98.2411 32.8756 97.8638 33.1204 96.9231 33.164V33.5938C97.6618 33.534 98.4005 33.4904 99.118 33.4904C99.8354 33.4904 100.59 33.534 101.35 33.5938V33.164C100.372 33.1259 99.9948 32.881 99.9948 32.1029" fill="var(--fill-0, black)"/>
</g>
<defs>
<clipPath id="clip0_0_129">
<rect width="218" height="37" fill="white"/>
</clipPath>
</defs>
</svg>
