<svg preserveAspectRatio="xMidYMid meet" width="270" height="45" overflow="visible" style="display: block;" viewBox="0 0 270 45" fill="none" xmlns="http://www.w3.org/2000/svg">
<g id="logo" clip-path="url(#clip0_0_143)">
<path id="Vector" d="M30.6063 17.4838C27.0257 17.4838 24.6035 14.5522 24.6035 9.63529C24.6035 4.26838 26.973 1.21765 30.5075 1.21765C33.3246 1.21765 35.2268 2.80588 35.8455 5.76397H36.3392L36.1417 1.14485H35.8192L35.4967 2.33603C33.8644 1.21765 32.2584 0.721324 30.3562 0.721324C25.1432 0.721324 21.5626 4.51985 21.5626 9.76103C21.5626 15.0022 25.0708 18.1059 29.9876 18.1059C32.0872 18.1059 33.8644 17.411 35.8192 16.0676L36.2602 17.3118H36.5564V11.9713H36.1088C35.444 15.5713 33.4431 17.4838 30.5997 17.4838M44.9287 6.47868C41.6443 6.47868 38.9259 8.91397 38.9259 12.2625C38.9259 15.611 41.5192 18.0463 44.876 18.0463C48.2329 18.0463 50.7077 15.2404 50.7077 12.1368C50.7077 9.27794 48.2131 6.47206 44.9287 6.47206M44.7576 17.5301C42.5855 17.5301 41.3218 15.6441 41.3218 12.289C41.3218 8.93382 42.7303 6.975 44.7773 6.975C46.9494 6.975 48.3118 8.81471 48.3118 12.1897C48.3118 15.5647 47.0547 17.5301 44.7576 17.5301ZM70.763 15.9154V10.1051C70.763 7.72279 69.7757 6.50515 67.2812 6.50515C65.6027 6.50515 64.1679 7.29926 63.332 8.68897C63.0358 7.27279 61.851 6.47868 60.0212 6.47868C58.3165 6.47868 57.033 7.22647 56.1444 8.71544V8.49044C56.1444 7.74265 56.0194 7.00147 55.8219 6.25368C54.4397 6.84926 53.301 7.2 52.34 7.2V7.69632H52.5638C53.9 7.69632 54.1172 8.16618 54.1172 9.60882V15.9684C54.1172 16.8882 53.5972 17.186 52.34 17.2125V17.7353C53.4985 17.636 54.466 17.6096 55.2032 17.6096C55.993 17.6096 56.954 17.6625 58.0664 17.7353V17.2125C56.7829 17.186 56.2892 16.9147 56.2892 15.9221V10.9059C56.2892 8.66912 57.4476 7.30588 59.205 7.30588C60.6136 7.30588 61.3508 8.17279 61.3508 9.74118V15.975C61.3508 16.8684 60.8571 17.1662 59.6987 17.2191V17.7419C60.6597 17.6691 61.5548 17.6162 62.4368 17.6162C63.253 17.6162 64.1942 17.6691 65.2539 17.7419V17.2191C64.0165 17.1926 63.5228 16.8949 63.5228 15.9287V10.9125C63.5228 8.67573 64.6615 7.3125 66.4387 7.3125C67.8472 7.3125 68.5844 8.15956 68.5844 9.74779V15.5846C68.5844 15.8096 68.5581 15.9551 68.5581 15.9816C68.5581 16.9015 68.0644 17.1993 66.8007 17.2257V17.7485C67.9591 17.6493 68.9266 17.6228 69.6638 17.6228C70.4537 17.6228 71.4212 17.6757 72.527 17.7485V17.2257C71.2435 17.1993 70.7499 16.9279 70.7499 15.9353M81.2613 6.47868C79.6553 6.47868 78.4705 7.07426 77.582 8.36471C77.4832 7.47132 77.3845 6.77647 77.2397 6.25368C75.8575 6.84926 74.7188 7.2 73.7578 7.2V7.69632H73.9816C75.3178 7.69632 75.5415 8.16618 75.5415 9.60882V22.4471C75.5415 22.6721 75.5152 22.7978 75.5152 22.8176C75.5152 23.7375 75.0216 24.0353 73.7644 24.0618V24.611C74.8241 24.5382 75.7917 24.4588 76.6276 24.4588C77.4635 24.4588 78.431 24.5316 79.4907 24.611V24.0618C78.2073 24.0353 77.7136 23.764 77.7136 22.7713V16.4382C78.6746 17.4574 79.7409 17.9272 81.1231 17.9272C84.2364 17.9272 86.6783 15.6441 86.6783 12.1632C86.6783 8.68235 84.3812 6.47868 81.2679 6.47868M80.6689 17.186C78.6943 17.186 77.707 15.9221 77.707 13.361V11.2235C77.707 10.1581 77.707 9.25809 78.148 8.54338C78.668 7.70294 79.7277 7.18015 80.6953 7.18015C82.966 7.18015 84.2298 8.89412 84.2298 12.2493C84.2298 15.6044 82.7752 17.1926 80.6755 17.1926M98.6509 17.014C98.131 17.014 97.8348 16.5441 97.8348 15.6706V9.36397C97.8348 7.425 96.4789 6.50515 93.5894 6.50515C90.6999 6.50515 89.3177 7.49779 89.3177 8.56323C89.3177 9.08603 89.6599 9.48309 90.1338 9.48309C91.1211 9.48309 91.1211 8.8875 91.2462 8.19265C91.3713 7.45147 92.1611 7.00147 93.3459 7.00147C95.202 7.00147 95.7878 7.76912 95.7878 9.3375V10.2044C95.7878 11.0713 95.4192 11.0515 94.2805 11.4949L92.9707 11.9912C90.2523 13.0566 88.9162 14.1287 88.9162 15.7632C88.9162 17.1529 89.8311 18.0265 91.5819 18.0265C92.918 18.0265 94.4714 17.4309 95.6561 16.3125C95.8536 17.3581 96.7422 18.0529 97.7097 18.0529C98.6773 18.0529 99.3618 17.6824 99.8818 16.8618L99.5593 16.511C99.2104 16.8088 98.9932 17.0074 98.6444 17.0074M95.7351 14.7044C95.7351 16.2662 93.8856 17.0868 92.9444 17.0868C91.832 17.0868 91.2133 16.4184 91.2133 15.2471C91.2133 13.7051 92.6679 12.6662 95.7351 11.4485V14.7044ZM105.318 10.7007C103.785 9.85368 103.067 9.41029 103.067 8.39118C103.067 7.57059 103.785 7.02794 104.772 7.02794C105.931 7.02794 107.069 7.99412 107.319 9.43676H107.714V8.68897C107.714 8.02059 107.741 7.29926 107.76 6.525H107.464L106.997 7.14706C106.233 6.70368 105.49 6.47868 104.726 6.47868C102.85 6.47868 101.587 7.74265 101.587 9.50956C101.587 11.0779 102.626 11.9713 104.627 13.0368C106.207 13.8574 107.148 14.3801 107.148 15.6176C107.148 16.6632 106.207 17.4772 105.003 17.4772C103.522 17.4772 102.258 16.3125 101.916 14.3471H101.573C101.573 15.1147 101.6 15.6904 101.6 16.0875C101.6 16.286 101.6 16.8353 101.573 17.7485H101.797L102.218 17.0537C102.962 17.7022 103.969 18.0728 104.983 18.0728C107.306 18.0728 108.688 16.7559 108.688 14.6184C108.688 12.236 107.28 11.786 105.332 10.6941M114.75 10.7007C113.217 9.85368 112.506 9.41029 112.506 8.39118C112.506 7.57059 113.223 7.02794 114.211 7.02794C115.369 7.02794 116.508 7.99412 116.758 9.43676H117.153V8.68897C117.153 8.02059 117.179 7.29926 117.206 6.525H116.909L116.442 7.14706C115.679 6.70368 114.935 6.47868 114.171 6.47868C112.295 6.47868 111.032 7.74265 111.032 9.50956C111.032 11.0779 112.072 11.9713 114.073 13.0368C115.652 13.8574 116.593 14.3801 116.593 15.6176C116.593 16.6632 115.652 17.4772 114.448 17.4772C112.967 17.4772 111.703 16.3125 111.361 14.3471H111.019C111.019 15.1147 111.045 15.6904 111.045 16.0875C111.045 16.286 111.045 16.8353 111.019 17.7485H111.242L111.664 17.0537C112.401 17.7022 113.414 18.0728 114.428 18.0728C116.751 18.0728 118.134 16.7559 118.134 14.6184C118.134 12.236 116.725 11.786 114.777 10.6941M122.432 2.55441C123.149 2.55441 123.715 1.98529 123.715 1.29044C123.715 0.595588 123.123 0 122.432 0C121.741 0 121.175 0.569118 121.175 1.29044C121.175 2.01176 121.721 2.55441 122.432 2.55441ZM123.768 15.9154V6.25368C122.359 6.77647 121.122 7.10074 120.036 7.2V7.69632H120.233C121.517 7.69632 121.589 8.13971 121.589 9.35735V15.9618C121.589 16.8551 121.122 17.1529 119.957 17.2059V17.7287C120.872 17.6559 121.787 17.6029 122.675 17.6029C123.564 17.6029 124.505 17.6559 125.44 17.7287V17.2059C124.229 17.1596 123.761 16.8618 123.761 15.9154M133.101 6.47868C129.817 6.47868 127.098 8.91397 127.098 12.2625C127.098 15.611 129.692 18.0463 133.048 18.0463C136.405 18.0463 138.88 15.2404 138.88 12.1368C138.88 9.27794 136.386 6.47206 133.101 6.47206M132.93 17.5301C130.758 17.5301 129.494 15.6441 129.494 12.289C129.494 8.93382 130.903 6.975 132.95 6.975C135.122 6.975 136.484 8.81471 136.484 12.1897C136.484 15.5647 135.227 17.5301 132.93 17.5301ZM152.07 15.9154V9.78088C152.07 7.64338 150.734 6.525 148.417 6.525C146.64 6.525 145.33 7.24632 144.343 8.83456C144.317 7.88824 144.218 7.02132 143.994 6.25368C142.612 6.84926 141.473 7.2 140.512 7.2V7.69632H140.736C142.072 7.69632 142.29 8.16618 142.29 9.60882V15.5713C142.29 15.7963 142.263 15.9419 142.263 15.9684C142.263 16.8882 141.77 17.186 140.512 17.2125V17.7353C141.671 17.636 142.638 17.6096 143.376 17.6096C144.165 17.6096 145.126 17.6625 146.239 17.7353V17.2125C144.955 17.186 144.462 16.9147 144.462 15.9221V10.8794C144.462 8.79485 145.897 7.30588 147.575 7.30588C149.128 7.30588 149.898 8.17279 149.898 9.93971V15.975C149.898 16.8949 149.378 17.1926 148.121 17.2191V17.7419C149.28 17.6426 150.247 17.6162 150.984 17.6162C151.774 17.6162 152.742 17.6691 153.848 17.7419V17.2191C152.564 17.1926 152.07 16.9213 152.07 15.9287M184.961 32.4926V32.4794C184.888 32.3471 184.783 32.1882 184.658 32.1882C184.645 32.1882 184.599 32.2346 184.599 32.4265C184.599 32.4662 184.605 32.6184 184.684 33.1279C184.888 33.9485 185.138 35.0669 185.428 36.4368C185.606 37.1118 185.691 37.6676 185.691 38.0912C185.691 38.4485 185.546 38.8654 184.875 38.8654C182.644 38.8654 180.347 38.4485 178.056 37.6213C176.114 36.9132 174.285 35.8346 172.606 34.4118C171.02 33.0221 169.434 31.1162 167.9 28.7471C167.663 28.4824 167.578 28.4625 167.564 28.4625C167.512 28.4625 167.505 28.4691 167.505 28.5287C167.505 28.6213 167.617 29.0316 168.381 30.7522C169.184 32.2544 170.112 33.6772 171.132 34.9676C172.178 36.3441 173.587 37.5684 175.325 38.614C176.871 39.6132 178.477 40.3346 180.09 40.7713C181.959 41.3868 183.967 41.6978 186.06 41.6978C187.738 41.6978 188.943 41.5787 189.64 41.3471C190.141 41.1618 190.397 40.9434 190.397 40.7051C190.397 40.5066 190.233 40.2485 189.923 39.964C188.403 38.0779 186.744 35.5765 184.961 32.4926ZM163.168 28.9588C162.957 28.9588 162.852 29.2831 162.799 29.5544C162.312 31.0632 161.851 32.036 161.391 32.5654C161.114 33.0154 160.686 33.4588 160.147 33.8559C160.008 33.9684 159.936 34.1338 159.936 34.3324C159.936 37.9919 160.041 38.6007 160.087 38.6868L160.114 38.7529C160.179 39.011 160.304 39.0441 160.397 39.0441C160.476 39.0441 160.785 38.9316 161.522 37.5221C162.194 36.4301 162.681 35.2654 162.97 34.0412C163.26 32.6713 163.405 31.1559 163.405 29.5478C163.391 29.3824 163.345 28.9654 163.168 28.9654M192.379 6.61765C191.023 5.65147 190.496 5.44632 190.292 5.44632C189.897 5.44632 189.417 5.55221 188.864 5.75073C187.811 6.25368 185.191 6.81618 181.11 7.40515L180.241 7.53088L180.906 6.94853C182.084 5.90956 182.933 5.14853 183.427 4.67206C183.822 4.35441 183.842 4.23529 183.842 4.21544C183.842 3.64632 183.624 2.87206 183.19 1.9125C182.683 0.847059 182.249 0.297794 181.887 0.297794C181.808 0.297794 181.689 0.324265 181.597 0.536029C181.485 1.62794 181.13 2.93824 180.538 4.3875C180.136 5.47279 179.662 6.54485 179.116 7.55735L179.05 7.67647L178.918 7.69632C177.641 7.86838 176.187 8.04044 174.594 8.21912L172.014 8.41103L172.277 7.97426C172.409 7.7625 172.554 7.44485 172.712 7.04779C172.975 6.46544 173.1 5.75073 173.1 4.91691C173.1 4.81765 173.014 4.64559 172.6 4.33456C171.454 3.70588 170.276 3.11029 169.124 2.59412C168.861 2.44853 168.657 2.37574 168.499 2.37574C168.46 2.37574 168.433 2.50147 168.433 2.61397C168.433 2.63382 168.446 2.73971 168.729 3.22279C169.868 4.98309 170.697 6.61103 171.198 8.06029L171.31 8.37794L170.994 8.45074C165.136 8.90735 161.154 9.13897 159.166 9.13897C158.179 9.13897 158.179 9.58897 158.179 9.73456C158.179 9.88015 158.297 10.2044 159.093 10.7868C159.989 11.5147 160.706 11.8787 161.233 11.8787C161.489 11.8787 161.858 11.8059 162.351 11.6603C162.49 11.6074 162.95 11.4419 167.854 10.886L168.236 10.8397L168.13 11.2169C167.584 12.8449 166.84 14.3404 165.899 15.7301C165.155 16.8353 164.201 17.5831 163.076 17.9404C162.944 17.9735 162.792 18.0529 162.792 18.4103C162.792 18.5559 162.891 18.8537 163.339 19.4426C163.892 20.1971 164.221 20.3956 164.405 20.4154L164.51 20.3824H164.563L164.629 20.336L165.438 19.9324L165.748 19.5816C166.597 19.1713 167.657 18.7015 168.894 18.1985L169.776 17.8346L169.197 18.5956C168.966 18.9 168.697 19.2375 168.4 19.5949C166.465 21.8978 165.004 23.3669 164.056 23.9625C163.582 24.2868 162.74 24.5515 161.555 24.7235C161.344 24.7566 161.344 24.8691 161.344 24.9221C161.344 25.0544 161.469 25.4118 162.286 26.3051C162.944 27 163.233 27.1059 163.345 27.1059C163.49 27.1059 163.648 27.0199 163.826 26.8412C164.583 26.3912 165.531 25.9478 166.696 25.4779C168.427 24.7831 170.737 24.0485 173.547 23.2941L173.758 23.2346L173.85 23.4331C174.12 24.0154 174.344 24.6309 174.515 25.2529C174.594 25.4581 174.633 25.5044 174.653 25.5176C174.765 25.4978 175.061 25.2993 175.351 24.0882C175.522 23.1684 175.608 22.1956 175.608 21.2029H175.601C175.601 21.2029 175.529 21.1169 175.101 21.011C174.304 20.7066 173.436 20.4221 172.481 20.164C172.257 20.0978 172.119 20.0713 172.007 20.0846C171.974 20.0978 171.961 20.1309 171.961 20.1838C171.961 20.2235 171.981 20.3294 172.132 20.5875C172.54 21.0971 172.929 21.6993 173.264 22.3412L173.429 22.6588L167.42 23.7243L167.986 23.1419C169.052 22.0434 170.105 20.9779 171.106 19.9721C172.277 18.7412 173.225 17.7949 173.857 17.2456C174.311 16.9941 174.508 16.6831 174.508 16.2529C174.508 16.0015 174.39 15.3926 174.16 14.4596C173.666 12.825 173.337 12.6463 173.212 12.6463C173.021 12.6463 172.876 12.9243 172.784 13.1559C172.58 13.7978 172.251 14.486 171.816 15.1941C171.514 15.5912 171.086 16.1603 170.52 16.9346L170.454 17.0272L167.446 17.4243L169.427 14.8434C169.684 14.4132 170.046 14.0294 170.52 13.7118C170.579 13.6456 170.625 13.5529 170.625 13.4669C170.625 13.0831 170.322 12.4809 169.723 11.6735C169.585 11.4949 169.434 11.3096 169.282 11.1309L168.986 10.7735L169.447 10.7007C170.691 10.5088 172.159 10.3301 173.817 10.1647C176.641 9.84706 179.34 9.57573 181.841 9.34412L182.229 9.31103L182.038 9.91985C181.538 11.6007 180.807 13.2154 179.873 14.7243C179.096 15.9221 178.122 16.7294 176.977 17.1132C176.806 17.1397 176.674 17.1926 176.674 17.4971C176.674 17.6625 176.773 17.9934 177.233 18.6353C177.911 19.3897 178.208 19.5088 178.319 19.5088C178.444 19.5088 178.504 19.489 178.55 19.4625C178.556 19.4493 178.695 19.35 179.386 19.0456L179.471 18.9132L179.544 18.8868C180.426 18.5228 181.499 18.1125 182.743 17.6625L183.625 17.3449L182.756 18.4169C181.051 20.5412 179.774 21.9044 178.945 22.4669C178.491 22.7713 177.72 23.0029 176.648 23.1485C176.536 23.1684 176.483 23.2279 176.483 23.3471C176.483 23.5059 176.648 23.8831 177.424 24.7301C178.082 25.4316 178.372 25.5309 178.484 25.5309C178.622 25.5309 178.767 25.4581 178.918 25.3125L178.978 25.2662C179.708 24.889 180.669 24.4721 181.834 24.0353C183.578 23.3934 185.876 22.7449 188.66 22.1029L188.837 22.0632L188.936 22.2221C189.436 23.0294 189.825 23.9096 190.088 24.836C190.213 25.1471 190.285 25.1801 190.292 25.1801C190.457 25.1669 190.812 24.9485 191.141 23.6184C191.312 22.6125 191.398 21.5801 191.398 20.561C191.332 20.4287 191.102 20.2765 190.726 20.1375C189.693 19.7272 188.528 19.3368 187.245 18.986C186.994 18.9331 186.79 18.9 186.619 18.9C186.514 18.9 186.514 18.9331 186.514 18.9662C186.514 19.0059 186.54 19.125 186.784 19.3632C187.291 19.9257 187.738 20.4949 188.127 21.0507L188.357 21.3882L182.025 22.4471L182.578 21.8713C183.486 20.9382 184.414 19.9853 185.356 19.0456C186.369 17.9404 187.185 17.0868 187.705 16.5904C188.219 16.2794 188.443 15.9485 188.443 15.5449C188.443 15.3265 188.298 14.7243 188.008 13.7647C187.488 12.0309 187.199 11.9449 187.146 11.9449C187.08 11.9449 186.876 11.9449 186.725 12.4015C186.521 13.0566 186.198 13.7051 185.783 14.3338C185.527 14.7574 185.033 15.4324 184.322 16.3257L184.256 16.4118L181.005 16.7559L183.315 13.5265C183.572 13.0963 183.94 12.6794 184.401 12.3088C184.474 12.2294 184.52 12.1301 184.52 12.011C184.52 11.6537 184.217 11.0515 183.618 10.2176C183.46 10.0059 183.309 9.81397 183.164 9.64853L182.828 9.26471L183.335 9.21838C187.166 8.84779 190.562 8.56324 193.418 8.35809C193.853 8.35809 193.853 8.18603 193.853 8.11985C193.853 8.06029 193.748 7.77573 192.352 6.61103M179.024 33.5515C179.175 33.5515 179.498 33.3728 179.971 32.1684C180.202 31.6456 180.32 31.0169 180.32 30.3022C180.32 30.1434 180.136 29.9449 179.794 29.7331C178.517 29.0647 177.2 28.4559 175.91 27.9397C175.614 27.7941 175.364 27.7213 175.147 27.7213C175.127 27.7346 175.088 27.8074 175.088 28.0059C175.088 28.0191 175.107 28.1184 175.45 28.5022C176.838 30.1699 177.865 31.7051 178.504 33.0882C178.701 33.5581 178.938 33.5581 179.017 33.5581M192.326 30.3221H192.306C190.562 29.3757 188.594 28.4691 186.461 27.6221C186.034 27.45 185.678 27.364 185.402 27.364C185.336 27.3838 185.336 27.4169 185.336 27.4301C185.336 27.4963 185.395 27.6684 185.803 28.0721C188.831 30.3221 190.97 32.7176 192.148 35.1728C192.385 35.6824 192.569 35.6824 192.635 35.6824C192.714 35.6757 192.997 35.5103 193.261 34.2199C193.432 33.2669 193.524 32.2875 193.524 31.3213C193.418 30.9772 193.017 30.6331 192.326 30.3221Z" fill="var(--fill-0, #FF6900)"/>
<path id="Vector_2" d="M208.406 25.6368C208.524 25.9081 208.682 26.0404 208.886 26.0404C209.07 26.0404 209.288 25.736 209.544 25.1272C209.696 24.8029 209.775 24.3993 209.775 23.9096C209.775 23.7243 209.643 23.5059 209.373 23.2478C208.445 22.5529 207.524 21.964 206.596 21.4743C206.378 21.3419 206.201 21.2625 206.069 21.2493C206.003 21.2493 205.97 21.3221 205.97 21.4743C205.97 21.5404 206.056 21.6926 206.22 21.9309C207.214 23.2875 207.945 24.5184 208.419 25.6368M74.732 39.0375V32.9029C74.732 30.7654 73.3958 29.6537 71.079 29.6537C69.3018 29.6537 67.992 30.375 67.0047 31.9632C66.9784 31.0169 66.8796 30.15 66.6624 29.3824C65.2802 29.9779 64.1415 30.3287 63.1806 30.3287V30.825H63.4044C64.7405 30.825 64.9577 31.2949 64.9577 32.7375V38.6934C64.9577 38.9184 64.9314 39.064 64.9314 39.0904C64.9314 40.0103 64.4377 40.3081 63.1806 40.3346V40.8574C64.339 40.7581 65.3066 40.7316 66.0437 40.7316C66.8336 40.7316 67.7945 40.7846 68.9069 40.8574V40.3346C67.6234 40.3081 67.1298 40.0368 67.1298 39.0441V34.0081C67.1298 31.9235 68.5646 30.4346 70.2431 30.4346C71.7964 30.4346 72.5665 31.3015 72.5665 33.0684V39.1037C72.5665 40.0235 72.0465 40.3213 70.7894 40.3478V40.8706C71.9478 40.7713 72.9153 40.7449 73.6525 40.7449C74.4424 40.7449 75.4033 40.7978 76.5157 40.8706V40.3478C75.2322 40.3213 74.7386 40.05 74.7386 39.0574M14.77 0.0529412H13.1903L11.1631 5.79044H7.70752L9.73477 0.0529412H8.12876L6.12784 5.79044H1.92852L1.40855 7.18015H5.60786L4.39677 10.6544H0.519978L0 12.0441H3.90312L1.9022 17.7287H3.48188L5.4828 12.0441H8.93835L6.93742 17.7287H8.54343L10.5444 12.0441H14.5199L15.0399 10.6544H11.038L12.2491 7.18015H15.9811L16.4747 5.79044H12.7691L14.77 0.0529412ZM9.45833 10.6544H5.97645L7.18754 7.18015H10.6957L9.45833 10.6544ZM60.0344 39.0375V29.3824C58.6258 29.9051 57.395 30.2294 56.309 30.3287V30.825H56.5064C57.7899 30.825 57.8623 31.2684 57.8623 32.486V39.0904C57.8623 39.9838 57.395 40.2816 56.23 40.3346V40.8574C57.1449 40.7846 58.0598 40.7316 58.9483 40.7316C59.8369 40.7316 60.7781 40.7846 61.7128 40.8574V40.3346C60.5017 40.2882 60.0344 39.9904 60.0344 39.0441M231.015 24.1941C232.614 25.5309 233.707 26.9206 234.293 28.3566C234.391 28.5618 234.497 28.661 234.595 28.661C234.767 28.6478 234.905 28.3566 235.023 27.8007C235.122 27.2581 235.175 26.7088 235.175 26.1529C235.109 25.9015 234.892 25.6699 234.516 25.4647C233.588 24.889 232.575 24.3596 231.462 23.8632C231.212 23.764 231.002 23.711 230.831 23.711C230.765 23.711 230.732 23.7441 230.732 23.8103C230.732 23.9096 230.824 24.0419 231.008 24.1941M122.511 25.6831C123.228 25.6831 123.794 25.114 123.794 24.4191C123.794 23.7243 123.202 23.1287 122.511 23.1287C121.82 23.1287 121.254 23.6978 121.254 24.4191C121.254 25.1404 121.793 25.6831 122.511 25.6831ZM248.497 28.9853C248.549 28.9853 248.648 28.9324 248.799 28.8331C249.912 28.2574 250.866 27.6618 251.676 27.0596C252.433 26.5037 253.216 25.7559 254.026 24.8228C254.48 24.2801 254.861 23.9294 255.164 23.7574C255.283 23.7044 255.342 23.6118 255.342 23.4794C255.342 23.1221 255.125 22.6323 254.684 22.0103C254.164 21.3022 253.815 20.9449 253.65 20.9449C253.499 20.9449 253.42 21.0441 253.42 21.2493C253.42 21.8382 253.249 22.4735 252.913 23.1551C252.459 24.0882 251.768 25.1272 250.84 26.2787C250.136 27.1257 249.365 27.9265 248.543 28.6875C248.444 28.7868 248.391 28.8463 248.391 28.8662C248.391 28.9522 248.424 28.9919 248.49 28.9919M58.7048 25.6831C59.4223 25.6831 59.9883 25.114 59.9883 24.4191C59.9883 23.7243 59.3959 23.1287 58.7048 23.1287C58.0137 23.1287 57.4477 23.6978 57.4477 24.4191C57.4477 25.1404 57.994 25.6831 58.7048 25.6831ZM259.199 24.0419C259.673 24.3463 260.009 24.4985 260.206 24.4985C260.272 24.4985 260.364 24.4721 260.482 24.4257C260.805 24.3397 261.667 24.2206 263.082 24.0684C264.576 23.8831 265.932 23.7309 267.143 23.6118C267.275 23.6118 267.347 23.539 267.347 23.3801C267.347 23.2478 267.157 22.9831 266.768 22.5926C266.4 22.3081 266.064 22.1625 265.761 22.1625C265.695 22.1625 265.551 22.1956 265.333 22.2618C265.096 22.3478 264.794 22.4206 264.425 22.4934C263.991 22.5596 263.425 22.6456 262.733 22.7449C262.26 22.811 261.766 22.8772 261.246 22.95C260.805 23.0162 260.015 23.0956 258.876 23.1816C258.672 23.1816 258.574 23.2478 258.574 23.3868C258.574 23.5257 258.784 23.7441 259.206 24.0485M254.124 26.5235C254.006 26.5235 253.947 26.636 253.947 26.8544C253.947 27.5162 253.723 28.2441 253.269 29.0382C252.676 30.0904 251.781 31.2816 250.57 32.6184C249.662 33.5846 248.668 34.4978 247.595 35.3581C247.457 35.4772 247.391 35.55 247.391 35.5897C247.391 35.7221 247.457 35.7949 247.595 35.7949C247.648 35.7949 247.773 35.7419 247.977 35.6426C249.339 34.9478 250.524 34.2397 251.538 33.5118C251.788 33.3066 252.051 33.0949 252.321 32.8765V38.5875C252.321 39.4346 252.235 40.1294 252.071 40.6654C251.853 41.2081 251.742 41.5721 251.742 41.7573C251.742 42.214 251.919 42.7566 252.275 43.3787C252.9 44.2059 253.282 44.6228 253.433 44.6228C253.65 44.6228 253.762 44.4441 253.762 44.0868V31.5794C253.979 31.3743 254.21 31.1294 254.447 30.8449C255 30.2029 255.467 29.7794 255.836 29.5743C256.007 29.5213 256.086 29.4287 256.086 29.2963C256.086 28.8926 255.822 28.3566 255.302 27.6948C254.73 26.9206 254.341 26.5301 254.144 26.5301M152.143 39.0375V32.9029C152.143 30.7654 150.813 29.6537 148.49 29.6537C146.713 29.6537 145.403 30.375 144.416 31.9632C144.389 31.0169 144.29 30.15 144.067 29.3824C142.684 29.9779 141.546 30.3287 140.585 30.3287V30.825H140.809C142.145 30.825 142.362 31.2949 142.362 32.7375V38.6934C142.362 38.9184 142.336 39.064 142.336 39.0904C142.336 40.0103 141.842 40.3081 140.585 40.3346V40.8574C141.743 40.7581 142.711 40.7316 143.448 40.7316C144.238 40.7316 145.199 40.7846 146.311 40.8574V40.3346C145.028 40.3081 144.534 40.0368 144.534 39.0441V34.0081C144.534 31.9235 145.969 30.4346 147.647 30.4346C149.201 30.4346 149.971 31.3015 149.971 33.0684V39.1037C149.971 40.0235 149.451 40.3213 148.194 40.3478V40.8706C149.352 40.7713 150.32 40.7449 151.057 40.7449C151.847 40.7449 152.808 40.7978 153.92 40.8706V40.3478C152.636 40.3213 152.143 40.05 152.143 39.0574M221.102 40.3279C220.293 40.3809 219.312 40.4471 218.147 40.5331C217.509 40.586 216.765 40.6191 215.922 40.6324C215.218 40.6324 213.829 40.4735 211.756 40.1493C209.538 39.7919 207.59 39.4279 205.924 39.0574C205.556 38.9713 205.161 38.9051 204.74 38.8522C207.55 36.1456 210.209 33.4919 212.717 30.8846C213.744 29.839 214.514 29.1507 215.04 28.8265C215.396 28.6213 215.685 28.4691 215.922 28.3698C216.061 28.3698 216.126 28.2706 216.126 28.0654C216.126 27.9662 215.876 27.6154 215.369 27.0265C214.896 26.5566 214.586 26.3184 214.435 26.3184C214.264 26.3184 214.053 26.4904 213.803 26.8279C213.632 27.0331 213.467 27.2449 213.296 27.4632C212.993 27.6353 212.552 27.761 211.986 27.8471C210.591 28.0324 209.044 28.2176 207.339 28.4029C205.121 28.6412 202.929 28.8662 200.777 29.0912C200.593 29.0912 200.501 29.1574 200.501 29.2963C200.501 29.3956 200.692 29.6338 201.08 30.0044C201.547 30.3949 201.922 30.5868 202.192 30.5868C202.377 30.5868 202.818 30.4875 203.502 30.2823C203.956 30.1632 204.647 30.011 205.569 29.8257L212.105 28.9125C211.012 30.2493 209.827 31.6588 208.544 33.1478C207.313 34.6699 205.608 36.5162 203.423 38.6801C202.903 38.6272 202.331 38.6074 201.705 38.6074C200.85 38.6074 200.053 38.6471 199.336 38.7331C199.013 38.7993 198.855 38.9051 198.855 39.0375C198.855 39.1699 199.026 39.3949 199.362 39.6993C199.75 40.0699 200.126 40.2551 200.501 40.2551C201.008 40.2551 201.567 40.1559 202.192 39.9507C202.778 39.7985 203.489 39.7191 204.312 39.7191C204.819 39.7191 205.615 39.8779 206.708 40.2022C208.524 40.6919 211.486 41.7309 215.593 43.3257C215.797 43.4449 216.008 43.5044 216.225 43.5044C216.613 43.4912 217.226 43.2728 218.068 42.8691C220.207 41.8698 221.273 41.1287 221.273 40.6324C221.273 40.4272 221.214 40.3279 221.096 40.3279M233.786 33.836C233.786 33.7169 233.72 33.6574 233.582 33.6574C233.496 33.6574 233.365 33.7235 233.18 33.8625L228.033 37.7934V28.3765C228.033 27.6816 228.112 27.0728 228.264 26.55C228.382 26.2456 228.441 25.9346 228.441 25.6103C228.441 25.3059 228.145 24.8691 227.559 24.2934C226.855 23.5522 226.375 23.175 226.118 23.175C225.98 23.175 225.914 23.2743 225.914 23.4794C225.914 23.6316 226.039 24.2007 226.289 25.1801C226.493 26.2257 226.592 27.1588 226.592 27.9728V35.5831C226.592 36.986 226.506 37.9324 226.342 38.4221C226.21 38.8456 225.986 39.236 225.683 39.5868C225.545 39.7588 225.479 39.911 225.479 40.0434C225.479 40.2287 225.683 40.4801 226.085 40.8044C226.572 41.175 226.881 41.3603 227.02 41.3603C227.237 41.3603 227.395 41.261 227.5 41.0559C228.547 39.5338 230.554 37.2309 233.529 34.1537C233.7 33.9816 233.779 33.8757 233.779 33.8228M269.092 28.2772C268.453 27.7875 268.052 27.5426 267.881 27.5426C267.729 27.5426 267.552 27.589 267.354 27.6684C266.801 27.9728 265.143 28.2971 262.385 28.6346C259.594 28.8728 257.79 28.9919 256.981 28.9919C256.56 28.9919 256.349 29.1309 256.349 29.3956C256.349 29.5676 256.533 29.786 256.902 30.0573C257.422 30.4809 257.85 30.6926 258.192 30.6926C258.277 30.6926 258.403 30.6662 258.574 30.6199C258.791 30.5537 260.167 30.3684 262.687 30.064H262.76C262.812 30.2493 262.898 30.514 263.01 30.8515C263.365 32.4926 263.543 34.5176 263.543 36.9132V40.2618C263.49 40.9368 263.313 41.2743 263.01 41.2743C262.891 41.2743 262.385 41.0559 261.496 40.6125C260.719 40.1691 260.292 39.9507 260.206 39.9507C260.14 39.9507 260.107 40.0169 260.107 40.1559C260.107 40.2221 260.186 40.3676 260.338 40.586C261.312 41.7507 262.371 43.114 263.517 44.6691C263.688 44.8875 263.82 45 263.918 45C264.221 45 264.465 44.6029 264.649 43.8088C264.833 42.9618 264.925 42.0154 264.925 40.9699V33.3596C264.925 33.075 265.017 32.7507 265.202 32.3934C265.373 32.0228 265.452 31.7316 265.452 31.5331C265.452 31.2485 265.064 30.7654 264.293 30.0904C264.228 30.0243 264.149 29.9647 264.063 29.9118C266.301 29.6735 268.17 29.5081 269.664 29.4022C269.882 29.4022 269.993 29.336 269.993 29.1971C269.993 29.0581 269.691 28.7603 269.085 28.2838M98.2363 38.0713L92.5823 23.7971H92.0163L86.3624 37.4029C85.5725 39.3154 85.0525 40.1559 83.2754 40.3544V40.8243C84.1903 40.7515 85.0789 40.725 85.895 40.725C86.415 40.725 87.3299 40.7515 88.5871 40.8243V40.3544C87.3497 40.3081 86.7573 39.8581 86.7573 38.9118C86.7573 38.5676 86.856 38.0912 87.0798 37.4956L88.1658 34.7625H94.4121L95.5508 37.7934C95.8207 38.5346 95.9194 39.1831 95.9194 39.3816C95.9194 39.9772 95.3007 40.2485 93.9448 40.3478V40.8176C95.1296 40.7449 96.3143 40.7184 97.4728 40.7184C98.5127 40.7184 99.6975 40.7449 101.001 40.8176V40.3478C99.3684 40.2221 98.8287 39.5801 98.2363 38.0647M88.4357 34.0478L91.3976 26.8743L94.162 34.0478H88.4357ZM243.178 39.6198C242 38.5213 240.69 37.4824 239.242 36.4963C239.479 36.0066 239.69 35.464 239.874 34.875C240.21 33.6243 240.5 31.9566 240.73 29.8787C240.947 27.4235 241.237 25.8022 241.586 25.0081C241.757 24.6044 241.836 24.3 241.836 24.0949C241.836 23.9625 241.493 23.539 240.802 22.8243C239.96 22.0632 239.466 21.6794 239.315 21.6794C239.196 21.6794 239.137 21.7721 239.137 21.9574C239.137 21.9904 239.19 22.4669 239.288 23.3801C239.374 25.0213 239.413 26.0669 239.413 26.5235C239.413 27.536 239.315 28.8529 239.111 30.4544C238.841 32.4 238.453 34.0346 237.952 35.3515C237.413 36.7412 236.702 38.0051 235.807 39.1566C235.05 40.1228 234.181 40.9632 233.207 41.6912C232.127 42.5184 231.028 43.2331 229.903 43.8221C229.6 44.0272 229.448 44.1529 229.448 44.2059C229.448 44.3382 229.508 44.411 229.626 44.411C229.942 44.411 230.752 44.0868 232.048 43.4449C233.193 42.9022 234.312 42.2007 235.405 41.3404C236.583 40.4272 237.511 39.4544 238.183 38.4221C238.453 37.9985 238.709 37.5618 238.966 37.1051C240.954 38.9978 242.323 40.9632 243.08 42.9949C243.198 43.3324 243.33 43.5044 243.481 43.5044C243.652 43.4912 243.791 43.1934 243.909 42.6176C244.008 42.0618 244.06 41.5125 244.06 40.9699C243.975 40.4603 243.679 40.0169 243.178 39.6265M107.3 40.3544C104.831 40.3544 103.423 38.6404 103.423 35.4375C103.423 32.0625 104.851 30.1235 106.977 30.1235C108.017 30.1235 108.287 30.4213 108.531 31.0699C108.781 31.6919 108.925 32.0162 109.663 32.0162C110.058 32.0162 110.38 31.7184 110.38 31.2221C110.38 30.3287 109.143 29.6074 107.221 29.6074C103.443 29.6074 100.948 32.261 100.948 35.6625C100.948 39.064 103.318 41.2015 106.556 41.2015C108.208 41.2015 109.57 40.6324 110.578 39.5404L110.209 39.0441C109.268 39.9375 108.359 40.361 107.293 40.361M133.18 29.6074C129.896 29.6074 127.177 32.0426 127.177 35.3912C127.177 38.7397 129.771 41.175 133.127 41.175C136.484 41.175 138.952 38.3691 138.952 35.2654C138.952 32.4132 136.458 29.6074 133.174 29.6074M133.009 40.6522C130.837 40.6522 129.58 38.7662 129.58 35.4176C129.58 32.0691 130.988 30.1037 133.035 30.1037C135.207 30.1037 136.563 31.9434 136.563 35.3184C136.563 38.6934 135.306 40.6588 133.009 40.6588M116.83 40.3544C115.692 40.3544 115.251 39.6132 115.251 38.1176V30.6463H118.114V29.8985H115.224V27.1654H114.803C114.04 28.5551 113.072 29.6007 111.986 30.2426V30.6397H113.144V37.9853C113.144 40.0434 113.664 41.089 116.08 41.089C117.462 41.089 118.404 40.639 118.996 39.5735L118.555 39.1765C118.061 39.9441 117.495 40.3412 116.824 40.3412M123.847 39.0375V29.3824C122.438 29.9051 121.207 30.2294 120.121 30.3287V30.825H120.319C121.602 30.825 121.675 31.2684 121.675 32.486V39.0904C121.675 39.9838 121.207 40.2816 120.042 40.3346V40.8574C120.957 40.7846 121.872 40.7316 122.761 40.7316C123.649 40.7316 124.584 40.7846 125.525 40.8574V40.3346C124.314 40.2882 123.847 39.9904 123.847 39.0441" fill="var(--fill-0, black)"/>
</g>
<defs>
<clipPath id="clip0_0_143">
<rect width="270" height="45" fill="white"/>
</clipPath>
</defs>
</svg>
